<svg width="697" height="485" viewBox="0 0 697 485" fill="none" xmlns="http://www.w3.org/2000/svg">
<path d="M582.627 273.38L562.588 324.578L633.319 356.506L653.359 305.307L582.627 273.38Z" fill="#EBEBEB"/>
<path d="M653.348 306.065C653.356 306.089 653.037 306.22 652.423 306.449C651.743 306.692 650.847 307.013 649.728 307.413C647.306 308.244 643.923 309.404 639.771 310.829C631.275 313.668 619.645 317.555 606.765 321.859L606.493 321.95L606.357 321.68C606.252 321.475 606.139 321.252 606.026 321.03C599.528 308.138 593.647 296.473 589.348 287.943C587.27 283.746 585.577 280.325 584.364 277.875C583.814 276.73 583.373 275.814 583.04 275.12C582.744 274.486 582.598 274.147 582.619 274.135C582.641 274.123 582.827 274.437 583.163 275.048C583.526 275.724 584.004 276.619 584.602 277.735C585.862 280.158 587.621 283.54 589.78 287.689C594.126 296.191 600.07 307.821 606.637 320.671C606.751 320.894 606.863 321.116 606.967 321.322L606.559 321.143C619.464 316.922 631.115 313.111 639.627 310.326C643.806 308.996 647.211 307.912 649.649 307.135C650.784 306.79 651.692 306.515 652.382 306.305C653.009 306.124 653.342 306.04 653.348 306.065Z" fill="#E0E0E0"/>
<path d="M562.579 325.331C562.492 325.147 570.558 320.531 580.593 315.021C590.631 309.509 598.837 305.191 598.925 305.375C599.012 305.559 590.948 310.174 580.909 315.686C570.875 321.196 562.667 325.515 562.579 325.331Z" fill="#E0E0E0"/>
<path d="M622.686 315.348C622.872 315.294 625.399 324.633 628.332 336.205C631.266 347.781 633.493 357.206 633.308 357.261C633.122 357.315 630.594 347.978 627.661 336.402C624.728 324.83 622.5 315.403 622.686 315.348Z" fill="#E0E0E0"/>
<path d="M129.174 366.867L114.271 404.943L166.873 428.686L181.776 390.611L129.174 366.867Z" fill="#F5F5F5"/>
<path d="M181.752 391.165C181.758 391.183 181.521 391.281 181.065 391.451C180.559 391.631 179.894 391.87 179.061 392.167C177.26 392.785 174.744 393.648 171.656 394.708C165.338 396.82 156.689 399.71 147.11 402.911L146.907 402.978L146.806 402.778C146.729 402.625 146.644 402.459 146.561 402.294C141.728 392.707 137.355 384.031 134.157 377.688C132.611 374.566 131.352 372.022 130.451 370.201C130.042 369.35 129.714 368.668 129.465 368.152C129.245 367.681 129.137 367.429 129.153 367.42C129.169 367.411 129.307 367.644 129.557 368.098C129.827 368.602 130.183 369.267 130.627 370.097C131.564 371.899 132.872 374.414 134.478 377.499C137.71 383.823 142.13 392.47 147.015 402.027C147.099 402.193 147.183 402.359 147.26 402.511L146.957 402.379C156.555 399.239 165.219 396.405 171.549 394.334C174.658 393.345 177.189 392.538 179.003 391.962C179.846 391.705 180.522 391.499 181.035 391.344C181.501 391.209 181.748 391.147 181.752 391.165Z" fill="#E0E0E0"/>
<path d="M114.249 405.493C114.184 405.357 120.183 401.924 127.646 397.826C135.111 393.727 141.214 390.516 141.279 390.653C141.344 390.79 135.347 394.222 127.882 398.322C120.418 402.419 114.314 405.63 114.249 405.493Z" fill="#E0E0E0"/>
<path d="M158.949 398.069C159.087 398.029 160.968 404.974 163.149 413.58C165.331 422.189 166.987 429.198 166.849 429.239C166.711 429.279 164.831 422.336 162.649 413.727C160.468 405.121 158.811 398.11 158.949 398.069Z" fill="#E0E0E0"/>
<path d="M104.958 241.937L42.5655 268.487L66.4849 333.311L128.877 306.761L104.958 241.937Z" fill="#F5F5F5"/>
<path d="M69.2762 325.691L74.2258 284.991L96.2102 300.303L100.61 285.331L121.992 303.258L69.2762 325.691Z" fill="#E0E0E0"/>
<path d="M91.9622 269.936C92.9445 272.599 91.7308 275.614 89.2513 276.669C86.7718 277.723 83.9652 276.42 82.982 273.757C81.9997 271.095 83.2125 268.081 85.6929 267.025C88.1733 265.97 90.9799 267.273 91.9622 269.936Z" fill="#E0E0E0"/>
<g opacity="0.3">
<path d="M122.058 303.439C122.051 303.436 122.013 303.348 121.945 303.179C121.871 302.987 121.774 302.741 121.652 302.43C121.39 301.743 121.021 300.774 120.547 299.526C119.583 296.962 118.188 293.253 116.418 288.545C112.893 279.091 107.872 265.627 101.845 249.462L102.201 249.627C86.9382 256.138 68.8459 263.855 49.5074 272.104C49.461 272.2 49.8438 271.266 49.6849 271.67L49.6905 271.684L49.7007 271.712L49.7221 271.77L49.7648 271.886L49.8503 272.118L50.0213 272.58L50.3624 273.503L51.0418 275.344C51.4934 276.57 51.9432 277.789 52.3921 279.004C53.2879 281.433 54.1755 283.84 55.0537 286.221C56.8092 290.986 58.5275 295.651 60.2003 300.192C63.5404 309.274 66.6982 317.862 69.6033 325.761L69.2418 325.593C84.9968 318.957 98.1571 313.413 107.409 309.515C112.027 307.586 115.669 306.064 118.186 305.013C119.418 304.505 120.374 304.111 121.05 303.831C121.362 303.706 121.605 303.609 121.795 303.533C121.962 303.467 122.051 303.435 122.058 303.439C122.065 303.442 121.989 303.48 121.833 303.553C121.652 303.634 121.422 303.738 121.127 303.871C120.469 304.159 119.538 304.569 118.338 305.096C115.847 306.175 112.243 307.737 107.673 309.718C98.4052 313.701 85.2245 319.368 69.4444 326.15L69.1861 326.262L69.0829 325.983C66.1601 318.092 62.9837 309.512 59.6232 300.438C57.9448 295.899 56.2219 291.235 54.4608 286.474C53.5816 284.093 52.6922 281.685 51.7964 279.257C51.3475 278.043 50.8977 276.823 50.4451 275.598L49.7658 273.756L49.4247 272.833L49.2537 272.371L49.1682 272.14L49.1255 272.024L49.1041 271.966L49.0939 271.937L49.0883 271.923C48.9266 272.316 49.302 271.37 49.2695 271.466C68.6201 263.25 86.7244 255.564 101.996 249.079L102.253 248.971L102.353 249.245C108.299 265.529 113.251 279.09 116.73 288.614C118.433 293.319 119.775 297.027 120.703 299.589C121.144 300.826 121.487 301.786 121.731 302.466C121.836 302.771 121.919 303.01 121.984 303.198C122.04 303.36 122.065 303.441 122.058 303.439Z" fill="#E0E0E0"/>
</g>
<path d="M462.368 419.363L458.997 416.742C457.081 415.253 455.729 413.069 455.193 410.595L452.818 399.633C451.246 392.382 444.982 387.632 438.276 388.185L437.354 383.928C437.121 382.85 436.118 382.18 435.115 382.431C434.111 382.681 433.488 383.758 433.721 384.836L434.626 389.015C428.1 391.532 424.217 398.948 425.827 406.378L428.11 416.917C428.609 419.214 428.373 421.624 427.445 423.761L425.334 428.618L439.078 425.184C439.975 426.573 441.376 427.596 442.932 427.881C445.121 428.28 447.484 427.212 448.747 425.251C449.267 424.443 449.578 423.501 449.7 422.53L462.368 419.363Z" fill="#EBEBEB"/>
<path d="M470.344 119.846L529.803 161.568L504.746 205.947L443.851 161.657L470.344 119.846Z" fill="#F5F5F5"/>
<path d="M470.344 119.846L513.393 115.476C515.215 115.29 516.908 116.506 517.446 118.385L529.804 161.568" fill="#FF725E"/>
<path d="M470.344 119.846L513.393 115.476C515.215 115.29 516.908 116.506 517.446 118.385L529.804 161.568" fill="#E0E0E0"/>
<path d="M443.851 161.657C443.823 161.53 451.993 159.353 462.098 156.795C472.206 154.236 480.421 152.265 480.449 152.392C480.476 152.518 472.308 154.695 462.199 157.255C452.095 159.813 443.878 161.784 443.851 161.657Z" fill="#E0E0E0"/>
<path d="M504.746 205.947C504.626 205.965 503.376 197.235 501.956 186.448C500.535 175.659 499.481 166.9 499.601 166.882C499.721 166.864 500.97 175.593 502.391 186.382C503.812 197.168 504.866 205.928 504.746 205.947Z" fill="#E0E0E0"/>
<path d="M470.344 119.846L484.331 165.877L529.803 161.568L470.344 119.846Z" fill="#E0E0E0"/>
<path d="M471.864 124.33L484.041 104.418L536.262 140.697L523.938 161.996L484.535 165.54L471.864 124.33Z" fill="#FAFAFA"/>
<path d="M471.864 124.33C471.864 124.33 471.963 124.586 472.124 125.079C472.288 125.592 472.521 126.319 472.822 127.259C473.428 129.189 474.308 131.988 475.43 135.558C477.661 142.739 480.852 153.012 484.724 165.474L484.518 165.329C495.876 164.295 509.343 163.067 523.917 161.74L523.734 161.861C526.084 157.797 528.551 153.533 531.06 149.195C532.751 146.275 534.421 143.39 536.058 140.561L536.131 140.915C515.116 126.27 496.574 113.35 483.957 104.557L484.171 104.509C480.324 110.735 477.267 115.685 475.159 119.098C474.108 120.783 473.295 122.087 472.731 122.99C472.459 123.418 472.248 123.75 472.095 123.992C471.95 124.217 471.864 124.33 471.864 124.33C471.864 124.33 471.92 124.212 472.051 123.986C472.194 123.742 472.392 123.407 472.646 122.975C473.191 122.065 473.979 120.751 474.995 119.053C477.081 115.608 480.106 110.611 483.91 104.326L483.994 104.187L484.124 104.277C496.764 113.032 515.338 125.897 536.392 140.479L536.591 140.617L536.465 140.833C534.829 143.662 533.159 146.548 531.47 149.468C528.959 153.806 526.491 158.068 524.139 162.131L524.076 162.241L523.956 162.252C509.381 163.547 495.91 164.744 484.551 165.753L484.394 165.767L484.345 165.607C480.536 153.088 477.397 142.768 475.202 135.555C474.127 131.981 473.283 129.178 472.703 127.246C472.427 126.309 472.213 125.583 472.062 125.071C471.922 124.58 471.864 124.33 471.864 124.33Z" fill="#E0E0E0"/>
<path d="M521.896 144.853C521.822 144.972 513.807 139.472 503.995 132.569C494.179 125.664 486.285 119.971 486.357 119.85C486.431 119.73 494.444 125.229 504.26 132.134C514.073 139.037 521.969 144.733 521.896 144.853Z" fill="#E0E0E0"/>
<path d="M518.43 150.458C518.357 150.578 510.342 145.078 500.53 138.175C490.714 131.27 482.819 125.576 482.892 125.456C482.964 125.335 490.979 130.835 500.794 137.74C510.607 144.644 518.504 150.339 518.43 150.458Z" fill="#E0E0E0"/>
<path d="M514.436 156.92C514.363 157.039 506.347 151.539 496.535 144.636C486.72 137.731 478.825 132.037 478.898 131.917C478.971 131.797 486.985 137.296 496.8 144.201C506.613 151.105 514.51 156.8 514.436 156.92Z" fill="#E0E0E0"/>
<path d="M510.442 163.382C510.368 163.501 502.719 158.259 493.358 151.673C483.993 145.085 476.464 139.648 476.537 139.528C476.61 139.409 484.259 144.65 493.623 151.238C502.985 157.824 510.515 163.262 510.442 163.382Z" fill="#E0E0E0"/>
<path d="M500.309 164.329C500.291 164.359 499.987 164.186 499.452 163.847C498.83 163.437 498.084 162.946 497.21 162.372C495.234 161.023 492.698 159.292 489.894 157.379C487.041 155.418 484.486 153.597 482.652 152.255C481.735 151.584 480.998 151.032 480.494 150.641C479.99 150.25 479.721 150.02 479.74 149.989C479.758 149.959 480.062 150.133 480.597 150.471C481.218 150.881 481.965 151.372 482.839 151.946C484.815 153.295 487.351 155.026 490.155 156.94C493.008 158.901 495.563 160.721 497.397 162.063C498.314 162.734 499.051 163.286 499.555 163.677C500.058 164.068 500.327 164.299 500.309 164.329Z" fill="#E0E0E0"/>
<path d="M490.269 165.024C490.195 165.144 488.445 164.036 486.362 162.551C484.277 161.065 482.648 159.764 482.722 159.645C482.795 159.525 484.545 160.633 486.63 162.119C488.713 163.604 490.343 164.906 490.269 165.024Z" fill="#E0E0E0"/>
<path d="M262.683 157.21L253.554 171.82L249.98 170.242L223.483 188.229L218.317 173.176C218.317 173.176 233.322 168.41 236.57 163.285C239.818 158.16 236.907 156.528 236.907 156.528L244.535 149.197L262.683 157.21Z" fill="#EBEBEB"/>
<path d="M256.608 124.185C256.608 124.185 246.071 120.222 232.592 102.534C219.114 84.845 214.284 63.0357 212.408 62.8979C210.532 62.7602 202.844 57.6545 183.328 91.834C163.812 126.013 168.974 135.197 172.063 135.526C175.152 135.855 196.771 132.283 209.661 135.558C222.551 138.834 238.532 148.307 238.532 148.307L256.608 124.185Z" fill="#EBEBEB"/>
<path d="M277.36 148.23L272.827 155.295L270.796 158.459C268.01 162.801 262.548 164.041 258.365 161.282L236.132 149.618L253.336 118.229L275.037 134.475C279.203 137.594 280.241 143.74 277.36 148.23Z" fill="#E0E0E0"/>
<path d="M184.506 92.6543C174.082 111.189 168.705 128.208 172.496 130.668C176.288 133.128 187.814 120.096 198.239 101.562C208.663 83.0286 214.04 66.0087 210.249 63.5496C206.456 61.0886 194.931 74.1195 184.506 92.6543Z" fill="#E0E0E0"/>
<path d="M272.371 148.909C272.255 149.115 269.262 147.402 265.688 145.081C262.111 142.761 259.308 140.712 259.424 140.505C259.54 140.299 262.532 142.012 266.108 144.333C269.683 146.654 272.487 148.703 272.371 148.909Z" fill="#EBEBEB"/>
<path d="M274.833 144.425C274.709 144.627 272.013 142.976 268.809 140.739C265.603 138.499 263.106 136.521 263.229 136.319C263.352 136.117 266.047 137.767 269.252 140.006C272.456 142.245 274.954 144.223 274.833 144.425Z" fill="#EBEBEB"/>
<path d="M269.378 153.559C269.333 153.67 268.606 153.389 267.458 152.841C266.885 152.567 266.207 152.226 265.459 151.836C264.718 151.435 263.962 150.894 263.146 150.363C259.897 148.206 257.458 146.189 257.566 146C257.694 145.778 260.352 147.481 263.571 149.617C264.38 150.143 265.121 150.703 265.832 151.135C266.547 151.557 267.186 151.948 267.718 152.288C268.782 152.969 269.423 153.448 269.378 153.559Z" fill="#EBEBEB"/>
<path d="M201.792 90.4567C201.792 90.4567 193.082 82.9827 186.413 95.9707C179.744 108.959 189.393 112.477 189.393 112.477C194.195 106.251 198.348 98.9437 201.792 90.4567Z" fill="#FAFAFA"/>
<path d="M213.611 75.4747C213.665 75.4917 213.428 76.4019 212.952 78.0356C212.469 79.6653 211.777 82.0326 210.843 84.9278C210.282 86.341 209.67 87.8839 209.013 89.5376C208.681 90.3659 208.338 91.2222 207.985 92.1044C207.807 92.5455 207.628 92.9926 207.446 93.4457C207.253 93.8938 207.019 94.328 206.803 94.7781C205.916 96.5695 204.985 98.4477 204.021 100.395C203.78 100.882 203.535 101.372 203.289 101.867C203.048 102.365 202.734 102.822 202.457 103.308C201.884 104.267 201.302 105.24 200.714 106.225C200.124 107.209 199.541 108.181 198.966 109.14C198.669 109.612 198.411 110.108 198.09 110.551C197.773 110.998 197.458 111.441 197.146 111.879C195.897 113.629 194.691 115.319 193.542 116.93C193.25 117.328 192.98 117.736 192.68 118.111C192.371 118.479 192.066 118.841 191.765 119.197C191.164 119.91 190.579 120.601 190.015 121.27C188.885 122.599 187.831 123.841 186.866 124.977C184.805 127.086 183.092 128.739 181.912 129.887C180.727 131.028 180.054 131.639 180.015 131.595C179.976 131.552 180.576 130.858 181.693 129.64C182.849 128.403 184.473 126.664 186.467 124.529C187.402 123.38 188.423 122.124 189.519 120.778C190.069 120.105 190.638 119.411 191.223 118.695C191.517 118.338 191.813 117.976 192.115 117.608C192.408 117.233 192.673 116.822 192.958 116.424C194.088 114.814 195.272 113.125 196.501 111.376C196.809 110.939 197.119 110.498 197.432 110.053C197.75 109.612 198.005 109.119 198.297 108.648C198.867 107.695 199.444 106.729 200.029 105.751C200.614 104.774 201.193 103.809 201.764 102.858C202.04 102.377 202.353 101.923 202.595 101.43C202.841 100.94 203.085 100.454 203.328 99.9716C204.3 98.0465 205.239 96.1882 206.133 94.4168C206.352 93.9717 206.59 93.5435 206.786 93.1014C206.972 92.6533 207.156 92.2122 207.338 91.7761C207.701 90.9058 208.054 90.0605 208.396 89.2431C209.082 87.6134 209.723 86.0925 210.309 84.7003C211.288 81.8719 212.084 79.5695 212.652 77.9288C213.218 76.334 213.558 75.4578 213.611 75.4747Z" fill="#E0E0E0"/>
<path d="M163.251 102.377C163.245 102.521 156.415 102.278 147.999 101.835C139.58 101.393 132.763 100.918 132.769 100.774C132.776 100.63 139.604 100.873 148.022 101.316C156.438 101.758 163.258 102.233 163.251 102.377Z" fill="#EBEBEB"/>
<path d="M169.893 80.9847C169.833 81.1124 161.917 76.9578 152.215 71.7063C142.509 66.4518 134.692 62.0906 134.752 61.9618C134.813 61.8341 142.727 65.9878 152.432 71.2412C162.135 76.4937 169.954 80.857 169.893 80.9847Z" fill="#EBEBEB"/>
<path d="M181.828 67.2053C181.699 67.2422 179.985 60.7962 178 52.8092C176.014 44.8192 174.51 38.3142 174.638 38.2773C174.768 38.2404 176.481 44.6854 178.467 52.6744C180.451 60.6624 181.957 67.1684 181.828 67.2053Z" fill="#EBEBEB"/>
<path d="M448.739 85.33C448.09 82.9538 446.629 80.8879 444.823 79.349C443.052 77.842 440.891 76.7961 438.633 76.6923C436.236 76.5815 433.811 77.5765 432.094 79.3759C431.073 80.4468 430.31 81.7921 429.87 83.2492C429.034 82.1843 427.987 81.312 426.809 80.7312C424.628 79.6564 422.033 79.5935 419.811 80.5635C417.718 81.4767 416.009 83.2422 414.813 85.3001C413.592 87.4008 412.864 89.8739 412.996 92.3459C413.161 95.4427 414.244 98.6643 416.132 101.011C418.127 103.489 420.989 105.257 423.831 106.445C428.61 108.441 434.874 110.887 434.874 110.887C434.874 110.887 439.067 106.123 442.944 102.519C445.25 100.375 447.392 97.6763 448.494 94.6234C449.54 91.7312 449.551 88.306 448.739 85.33Z" fill="#EBEBEB"/>
<path d="M407.054 58.9159C407.116 57.4509 406.668 55.9918 405.931 54.7573C405.209 53.5477 404.185 52.5157 402.939 51.9908C401.616 51.4339 400.08 51.4908 398.795 52.1445C398.032 52.5337 397.363 53.1295 396.856 53.8551C396.579 53.0866 396.148 52.381 395.592 51.8132C394.562 50.7603 393.12 50.1904 391.701 50.2742C390.365 50.3531 389.091 50.9898 388.053 51.896C386.994 52.8211 386.143 54.0567 385.775 55.4688C385.314 57.2373 385.342 59.2662 385.981 60.9698C386.655 62.7702 387.942 64.351 389.321 65.6025C391.641 67.7073 394.712 70.371 394.712 70.371C394.712 70.371 397.914 68.5676 400.731 67.349C402.407 66.6235 404.09 65.5546 405.254 64.0716C406.357 62.6674 406.977 60.7512 407.054 58.9159Z" fill="#EBEBEB"/>
<path d="M234.41 385.078C233.88 383.727 232.891 382.616 231.731 381.842C230.595 381.083 229.257 380.623 227.923 380.725C226.505 380.833 225.141 381.593 224.243 382.777C223.709 383.48 223.345 384.328 223.177 385.217C222.619 384.651 221.947 384.213 221.218 383.957C219.867 383.481 218.337 383.632 217.089 384.364C215.914 385.052 215.019 386.214 214.445 387.511C213.858 388.836 213.584 390.344 213.817 391.789C214.109 393.599 214.947 395.417 216.206 396.661C217.535 397.975 219.329 398.809 221.076 399.303C224.014 400.132 227.853 401.119 227.853 401.119C227.853 401.119 230.022 398.013 232.078 395.612C233.3 394.184 234.392 392.442 234.849 390.565C235.283 388.788 235.075 386.771 234.41 385.078Z" fill="#EBEBEB"/>
<path d="M600.056 193.344C599.95 193.351 600.155 191.428 599.503 188.098C599.202 186.432 598.542 184.453 597.474 182.343C596.396 180.24 594.818 178.027 592.633 176.116C590.456 174.223 587.685 172.575 584.448 171.826C581.233 171.099 577.577 171.059 574.05 172.336C572.277 172.916 570.554 173.834 568.959 175.015C568.137 175.573 567.41 176.284 566.651 176.965C565.96 177.727 565.235 178.468 564.632 179.34C562.082 182.703 560.555 187.098 560.35 191.685C560.222 196.277 561.428 200.788 563.727 204.354C564.266 205.274 564.934 206.074 565.568 206.89C566.276 207.633 566.949 208.402 567.729 209.027C569.233 210.338 570.886 211.396 572.611 212.123C576.036 213.69 579.685 213.954 582.943 213.497C586.224 213.018 589.105 211.607 591.413 209.9C593.728 208.177 595.462 206.102 596.688 204.096C597.905 202.081 598.705 200.163 599.125 198.527C600.017 195.261 599.951 193.329 600.056 193.344C600.066 193.344 600.067 193.462 600.058 193.693C600.044 193.961 600.026 194.299 600.004 194.717C599.986 195.169 599.942 195.726 599.816 196.373C599.71 197.024 599.604 197.781 599.355 198.599C598.965 200.266 598.186 202.227 596.976 204.297C595.756 206.356 594.012 208.496 591.663 210.282C589.321 212.05 586.38 213.522 583.017 214.038C579.678 214.532 575.93 214.281 572.399 212.686C570.62 211.945 568.916 210.863 567.363 209.518C566.559 208.876 565.862 208.088 565.132 207.323C564.476 206.485 563.787 205.661 563.23 204.717C560.854 201.048 559.604 196.392 559.737 191.66C559.947 186.932 561.53 182.396 564.163 178.938C564.786 178.043 565.534 177.279 566.247 176.498C567.03 175.798 567.782 175.069 568.629 174.497C570.275 173.286 572.052 172.35 573.878 171.76C577.513 170.463 581.268 170.525 584.561 171.296C587.877 172.089 590.703 173.801 592.909 175.76C595.123 177.736 596.707 180.013 597.775 182.169C598.833 184.333 599.467 186.354 599.737 188.048C599.926 188.885 599.978 189.648 600.035 190.306C600.115 190.962 600.118 191.52 600.103 191.972C600.096 192.391 600.089 192.729 600.083 192.998C600.075 193.227 600.066 193.345 600.056 193.344Z" fill="#E0E0E0"/>
<path d="M579.96 214.763C577.663 214.763 574.956 214.382 572.217 213.145C570.424 212.397 568.688 211.307 567.071 209.905C566.408 209.377 565.805 208.737 565.221 208.117L564.808 207.68L564.449 207.229C563.893 206.526 563.319 205.8 562.837 204.982C560.407 201.228 559.137 196.484 559.273 191.644C559.487 186.799 561.096 182.177 563.803 178.621C564.333 177.86 564.961 177.181 565.568 176.523L565.916 176.146L566.386 175.719C567.015 175.147 567.666 174.556 568.381 174.072C570.08 172.822 571.889 171.879 573.744 171.279C577.976 169.769 582.017 170.186 584.659 170.804C587.705 171.533 590.659 173.112 593.205 175.371C595.236 177.184 596.957 179.452 598.184 181.93C599.202 184.013 599.897 186.097 600.193 187.959C600.364 188.707 600.424 189.412 600.478 190.036L600.497 190.254C600.565 190.812 600.588 191.367 600.567 191.986L600.547 193.005C600.542 193.166 600.538 193.29 600.523 193.389C600.531 193.5 600.526 193.614 600.522 193.712L600.466 194.744C600.444 195.354 600.381 195.906 600.27 196.473L600.236 196.687C600.139 197.3 600.027 197.994 599.796 198.752C599.375 200.55 598.532 202.57 597.369 204.559C595.964 206.931 594.084 209.049 591.93 210.686C589.229 212.727 586.17 214.055 583.081 214.529C582.181 214.665 581.123 214.763 579.96 214.763ZM579.99 171.819C578.206 171.819 576.223 172.075 574.199 172.809C572.478 173.373 570.808 174.252 569.223 175.426C568.576 175.865 568.006 176.385 567.403 176.935L566.617 177.713C566.059 178.319 565.483 178.945 565.005 179.637C562.499 182.943 561.014 187.224 560.813 191.709C560.689 196.189 561.859 200.582 564.108 204.07C564.549 204.819 565.078 205.493 565.592 206.146L565.925 206.57L566.311 206.976C566.874 207.578 567.407 208.146 568.007 208.626C569.517 209.941 571.118 210.957 572.782 211.658C576.601 213.404 580.38 213.351 582.883 213.001C585.749 212.583 588.608 211.368 591.151 209.488C593.174 207.982 594.955 206.022 596.3 203.821C597.42 201.966 598.243 200.088 598.678 198.392C599.293 196.143 599.443 194.551 599.516 193.787C599.535 193.586 599.548 193.437 599.571 193.323C599.557 193.206 599.554 193.056 599.55 192.854C599.533 192.085 599.498 190.486 599.05 188.199C598.734 186.46 598.049 184.52 597.067 182.579C595.886 180.274 594.25 178.172 592.341 176.502C589.944 174.417 587.18 172.968 584.351 172.313C583.158 172.044 581.661 171.819 579.99 171.819Z" fill="#E0E0E0"/>
<path d="M593.185 208.734C593.31 208.61 597.507 213.266 602.56 219.13C607.615 224.996 611.61 229.85 611.485 229.974C611.361 230.098 607.164 225.443 602.109 219.577C597.058 213.713 593.061 208.857 593.185 208.734Z" fill="#E0E0E0"/>
<path d="M611.659 230.48L611.46 230.475C611.276 230.468 610.845 230.451 601.768 219.915C592.692 209.382 592.709 208.919 592.717 208.722L592.725 208.515L592.868 208.367C593.26 207.973 593.295 207.943 596.358 211.338C598.13 213.305 600.454 215.95 602.901 218.79C605.347 221.63 607.624 224.322 609.312 226.374C612.227 229.916 612.195 229.948 611.8 230.339L611.659 230.48Z" fill="#E0E0E0"/>
<path d="M139.477 165.528L135.605 167.195L122.433 158.183L119.336 149.882C119.336 149.882 113.202 152.062 117.962 162.63C122.723 173.198 120.929 170.758 120.929 170.758C120.929 170.758 108.238 176.28 107.624 177.92C107.177 179.113 111.889 192.821 114.5 200.232C115.814 203.962 119.214 206.495 122.746 205.99C123.248 205.919 123.736 205.794 124.188 205.599C127.358 204.235 142.523 194.497 142.523 194.497L149.213 191.619L139.477 165.528Z" fill="#EBEBEB"/>
<path d="M149.714 158.478L157.945 187.949L151.313 190.804L140.913 162.93L149.714 158.478Z" fill="#EBEBEB"/>
<path d="M533.246 381.059L528.682 381.868L516.432 368.724L514.931 358.94C514.931 358.94 507.804 359.723 510.601 372.388C513.399 385.052 511.999 381.95 511.999 381.95C511.999 381.95 497.029 384.664 495.998 386.282C495.248 387.458 497.293 403.51 498.466 412.204C499.058 416.581 502.172 420.197 506.109 420.559C506.669 420.612 507.225 420.601 507.757 420.507C511.493 419.846 530.082 413.204 530.082 413.204L537.967 411.808L533.246 381.059Z" fill="#F5F5F5"/>
<path d="M545.901 376.06L548.241 410.082L540.423 411.466L535.38 378.616L545.901 376.06Z" fill="#F5F5F5"/>
<path d="M290.596 412.752C294.971 412.34 298.988 409.01 300.51 403.984C302.5 397.399 299.453 390.434 293.703 388.426C287.956 386.42 281.681 390.13 279.69 396.716C278.157 401.79 279.632 407.062 283.012 410.146C266.195 407.229 261.344 426.204 261.344 426.204L299.226 439.427C299.226 439.427 305.731 420.796 290.596 412.752Z" fill="#EBEBEB"/>
<path d="M537.885 361.381H164.151C132.301 361.381 106.482 333.653 106.482 299.451V295.093C106.482 260.89 132.302 233.163 164.151 233.163H537.885C569.734 233.163 595.554 260.89 595.554 295.093V299.451C595.554 333.654 569.735 361.381 537.885 361.381Z" fill="#FF725E"/>
<g opacity="0.3">
<path d="M537.885 361.381H164.151C132.301 361.381 106.482 333.653 106.482 299.451V295.093C106.482 260.89 132.302 233.163 164.151 233.163H537.885C569.734 233.163 595.554 260.89 595.554 295.093V299.451C595.554 333.654 569.735 361.381 537.885 361.381Z" fill="black"/>
</g>
<path d="M535.856 350.878H166.181C133.211 350.878 106.482 322.175 106.482 286.768C106.482 251.362 133.21 222.66 166.181 222.66H535.856C568.826 222.66 595.554 251.362 595.554 286.768C595.554 322.175 568.826 350.878 535.856 350.878Z" fill="#FF725E"/>
<g opacity="0.3">
<path d="M462.446 222.66C462.446 222.66 459.758 222.728 458.399 222.713C453.731 222.66 445.37 222.66 445.37 222.66L439.386 234.572C440.772 237.711 442.577 241.22 445.746 241.911C447.314 242.253 448.933 241.811 450.454 241.28C454.188 239.979 457.783 238.109 460.838 235.46C462.675 233.867 464.368 231.886 464.947 229.427C465.526 226.969 464.584 223.738 462.446 222.66Z" fill="black"/>
</g>
<g opacity="0.3">
<path d="M249.816 235.472C248.412 231.77 246.175 225.123 243.243 222.66C243.243 222.66 224.5 223.006 224.406 222.647L233.111 256.139C235.945 258.526 237.312 261.814 238.218 264.927C239.123 268.04 239.859 271.387 241.967 273.734C244.075 276.082 248.147 276.76 249.958 274.144C251.986 271.214 249.774 267.161 249.71 263.511C249.646 259.871 251.793 256.651 252.667 253.133C254.129 247.252 251.954 241.11 249.816 235.472Z" fill="black"/>
</g>
<path d="M527.256 304.978L524.524 301.606C522.971 299.689 522.115 297.234 522.114 294.694L522.111 283.439C522.108 275.993 517.009 269.845 510.359 268.753L510.358 264.383C510.358 263.276 509.523 262.38 508.492 262.38C507.462 262.38 506.627 263.277 506.628 264.384L506.629 268.676C499.742 269.542 494.397 275.821 494.399 283.449L494.403 294.269C494.403 296.628 493.667 298.918 492.312 300.774L489.231 304.992L503.343 304.987C503.924 306.559 505.072 307.895 506.528 308.551C508.577 309.472 511.104 309.005 512.747 307.402C513.423 306.742 513.924 305.9 514.248 304.983L527.256 304.978Z" fill="white"/>
<path d="M390.823 119.168C392.118 115.624 393.433 111.975 393.455 108.151C393.476 104.328 391.9 100.239 388.78 98.6074C385.896 97.0994 382.432 97.9657 379.387 96.9148C375.632 95.6184 373.17 91.6743 371.408 87.7771C369.646 83.8799 368.201 79.6404 365.326 76.6644C361.513 72.7173 355.396 71.9149 350.786 74.5576C347.345 72.1075 342.907 70.871 339.529 70.872C334.519 70.873 328.834 71.4897 325.452 75.4568C322.826 78.5356 321.215 82.3929 317.948 84.6554C313.456 87.7681 307.549 85.4428 302.215 85.83C301.126 85.9088 299.866 86.2492 299.448 87.33C299.085 88.2651 299.528 89.315 299.962 90.2142C301.426 93.2521 302.889 96.29 304.353 99.328C302.146 100.518 299.423 100.536 297.202 99.3779C297.614 105.409 300.073 111.254 304.017 115.572C303.048 114.883 301.643 115.674 301.204 116.829C300.765 117.984 301.019 119.299 301.357 120.493C303.428 127.817 308.564 134.072 315.07 137.199C321.576 140.325 329.342 140.266 335.807 137.043L365.311 138.451C366.195 140.889 368.215 142.782 370.531 143.346C373.753 140.616 374.237 139.128 374.237 139.128C376.312 140.682 374.695 139.919 376.312 140.682C380.015 142.431 385.349 140.033 386.046 135.64C386.338 133.803 386.761 132.035 387.866 130.756C388.997 129.447 390.645 128.903 392.092 128.058C394.373 126.728 396.239 124.545 397.313 121.951C394.93 122.052 392.524 121.02 390.823 119.168Z" fill="#263238"/>
<path d="M318.062 107.159C318.17 91.2941 329.606 78.1793 344.34 77.0197L345.804 76.9039C361.658 76.6514 370.716 90.9707 370.512 107.998L372.868 186.408L336.674 189.178L335.305 163.703C335.305 163.703 319.956 162.364 318.655 146.083C318.028 138.22 317.963 121.916 318.062 107.159Z" fill="#924E2C"/>
<path d="M325.663 119.481C325.705 120.713 326.713 121.689 327.912 121.664C329.109 121.638 330.046 120.622 330.003 119.39C329.96 118.158 328.953 117.18 327.756 117.205C326.557 117.23 325.62 118.249 325.663 119.481Z" fill="#263238"/>
<path d="M322.646 113.396C322.935 113.678 324.488 112.244 326.821 112.067C329.148 111.855 330.947 113.009 331.179 112.682C331.294 112.536 330.983 112.011 330.199 111.487C329.425 110.965 328.136 110.499 326.684 110.619C325.232 110.742 324.049 111.413 323.388 112.055C322.71 112.702 322.504 113.27 322.646 113.396Z" fill="#263238"/>
<path d="M338.097 133.739C338.098 133.595 336.631 133.441 334.26 133.304C333.659 133.285 333.088 133.202 332.958 132.774C332.786 132.323 332.988 131.614 333.225 130.847C333.68 129.256 334.155 127.587 334.654 125.839C336.626 118.713 338.007 112.874 337.739 112.791C337.471 112.709 335.655 118.417 333.683 125.541C333.211 127.297 332.759 128.972 332.331 130.572C332.155 131.317 331.823 132.172 332.193 133.106C332.385 133.571 332.846 133.884 333.236 133.965C333.626 134.059 333.962 134.04 334.257 134.036C336.631 133.986 338.097 133.883 338.097 133.739Z" fill="#263238"/>
<path d="M321.928 107.368C322.464 107.903 324.397 107.179 326.762 106.992C329.121 106.731 331.155 107.079 331.581 106.453C331.765 106.15 331.417 105.601 330.51 105.121C329.616 104.642 328.147 104.301 326.523 104.454C324.9 104.609 323.52 105.22 322.731 105.858C321.93 106.501 321.691 107.105 321.928 107.368Z" fill="#263238"/>
<path d="M369.044 120.241C369.295 120.1 379.244 116.108 379.673 127.275C380.102 138.442 369.574 136.601 369.544 136.281C369.513 135.963 369.044 120.241 369.044 120.241Z" fill="#924E2C"/>
<path d="M371.644 131.981C371.689 131.943 371.831 132.108 372.143 132.246C372.447 132.38 372.965 132.458 373.498 132.216C374.58 131.734 375.433 129.821 375.406 127.806C375.394 126.789 375.158 125.83 374.792 125.043C374.443 124.241 373.929 123.692 373.372 123.61C372.816 123.499 372.438 123.871 372.323 124.191C372.196 124.51 372.271 124.729 372.216 124.751C372.188 124.78 371.985 124.574 372.051 124.109C372.086 123.886 372.198 123.617 372.433 123.392C372.675 123.162 373.037 123.035 373.424 123.063C374.228 123.087 374.98 123.847 375.383 124.71C375.829 125.575 376.116 126.652 376.131 127.795C376.15 130.048 375.159 132.201 373.674 132.734C372.95 132.972 372.331 132.762 372.006 132.512C371.674 132.249 371.61 132.002 371.644 131.981Z" fill="#723617"/>
<path d="M372.562 94.7322C372.562 94.7322 371.757 90.5446 368.522 85.7202C363.078 77.6045 350.663 73.8161 343.614 74.4877C336.567 75.1604 329.248 80.7741 322.677 83.5905C318.374 85.4348 315.111 89.6783 316.751 92.9597C314.185 94.0086 311.535 94.7192 308.78 94.837C308.78 94.837 308.527 99.0066 310.687 100.11L317.468 104.882C326.51 106.165 342.384 96.6074 345.447 93.5994C348.096 90.9977 351.868 87.9947 354.798 86.3969C351.922 94.5076 361.299 92.7142 361.049 95.8609C358.174 107.268 366.843 111.481 366.843 111.481L367.056 121.445C366.862 124.003 367.883 125.973 370.268 125.799H370.27C370.27 125.799 372.849 121.987 373.29 118.886C374.144 112.877 373.612 100.707 372.562 94.7322Z" fill="#263238"/>
<path d="M335.179 163.689C335.179 163.689 344.912 163.552 354.635 155.875C354.635 155.875 350.76 167.97 335.518 167.695L335.179 163.689Z" fill="#723617"/>
<path d="M347.526 117.985C347.569 119.217 348.576 120.193 349.776 120.168C350.973 120.142 351.91 119.126 351.866 117.894C351.822 116.662 350.816 115.684 349.619 115.709C348.42 115.734 347.482 116.753 347.526 117.985Z" fill="#263238"/>
<path d="M345.023 112.136C345.311 112.452 347.144 111.215 349.695 111.322C352.245 111.393 354.085 112.757 354.371 112.461C354.51 112.33 354.228 111.77 353.425 111.153C352.637 110.539 351.282 109.921 349.692 109.865C348.102 109.811 346.749 110.334 345.964 110.893C345.165 111.455 344.883 111.995 345.023 112.136Z" fill="#263238"/>
<path d="M344.789 104.282C345.015 104.967 347.351 104.662 350.092 105.039C352.84 105.357 355.046 106.237 355.414 105.627C355.579 105.335 355.198 104.69 354.307 104.022C353.425 103.355 352.016 102.716 350.37 102.506C348.724 102.299 347.215 102.567 346.213 102.996C345.203 103.425 344.693 103.957 344.789 104.282Z" fill="#263238"/>
<path d="M337.885 138.557C339.07 138.004 342.612 137.163 343.884 136.921L345.358 136.419C346.098 137.369 346.254 140.044 345.693 141.133C345.114 142.26 343.995 142.992 342.821 143.251C341.984 143.435 341.049 143.379 340.366 142.826C340.366 142.826 338.455 142.012 337.885 138.557Z" fill="#F5F5F5"/>
<path d="M341.927 143.26C341.904 143.159 342.943 143.291 344.13 142.317C344.706 141.839 345.259 141.075 345.539 140.083C345.822 139.099 345.863 137.907 345.523 136.774C345.505 136.714 345.486 136.653 345.469 136.598L345.749 136.763C343.519 137.297 341.503 137.75 340.04 138.052C338.577 138.355 337.67 138.507 337.656 138.439C337.641 138.37 338.524 138.092 339.967 137.698C341.41 137.304 343.415 136.793 345.644 136.256L345.857 136.205L345.924 136.421C345.942 136.481 345.964 136.548 345.984 136.615C346.358 137.867 346.297 139.163 345.964 140.232C345.634 141.312 344.987 142.137 344.334 142.614C343.677 143.101 343.036 143.279 342.602 143.316C342.163 143.354 341.925 143.289 341.927 143.26Z" fill="#263238"/>
<path d="M389.214 128.826C389.214 128.826 388.986 128.821 388.588 128.652C388.198 128.476 387.639 128.106 387.14 127.409C386.644 126.719 386.204 125.715 386.069 124.476C385.923 123.241 386.063 121.834 386.231 120.318C386.389 118.813 386.546 117.109 386.031 115.445C385.773 114.622 385.308 113.858 384.635 113.278C383.974 112.684 383.159 112.247 382.31 111.819C381.463 111.386 380.558 110.967 379.727 110.325C378.885 109.702 378.193 108.77 377.791 107.716C376.949 105.598 377.027 103.219 376.561 100.996C376.321 99.8828 375.953 98.803 375.335 97.9437C374.724 97.0695 373.83 96.5385 372.858 96.318C371.887 96.0775 370.873 96.0415 369.878 95.828C368.889 95.6333 367.892 95.1503 367.243 94.317C366.597 93.4876 366.275 92.4926 366.061 91.5535C365.841 90.6074 365.713 89.6843 365.531 88.814C365.358 87.9408 365.09 87.1444 364.753 86.4088C364.384 85.6943 363.983 85.0296 363.506 84.4777C361.617 82.2073 359.305 81.3759 357.775 81.1184C356.204 80.8949 355.322 81.1254 355.318 81.0576C355.318 81.0576 356.186 80.7532 357.799 80.9178C359.37 81.1194 361.767 81.9109 363.76 84.2312C364.262 84.7971 364.69 85.4807 365.083 86.2222C365.445 86.9817 365.737 87.829 365.922 88.7172C366.116 89.6034 366.254 90.5246 366.473 91.4398C366.688 92.3519 367.003 93.2721 367.581 94.0036C368.164 94.7352 369.024 95.1543 369.969 95.3409C370.913 95.5415 371.93 95.5715 372.964 95.822C373.997 96.0445 375.045 96.6593 375.715 97.6264C376.4 98.5755 376.783 99.7242 377.033 100.879C377.512 103.208 377.438 105.531 378.228 107.517C378.605 108.504 379.214 109.334 379.998 109.922C380.771 110.526 381.652 110.946 382.502 111.386C383.353 111.824 384.199 112.28 384.909 112.928C385.631 113.557 386.145 114.42 386.411 115.306C386.945 117.101 386.748 118.854 386.571 120.362C386.381 121.88 386.223 123.25 386.339 124.444C386.442 125.633 386.838 126.607 387.291 127.288C388.236 128.678 389.261 128.763 389.214 128.826Z" fill="#455A64"/>
<path d="M305.583 89.0984C305.594 89.0845 305.753 89.1952 306.049 89.4198C306.389 89.6723 306.819 89.9907 307.349 90.3819C308.489 91.1863 310.172 92.3519 312.469 93.2252C314.732 94.0954 317.76 94.5555 320.789 93.4038C322.287 92.836 323.712 91.81 324.768 90.336C325.845 88.8759 326.613 87.0925 327.491 85.308C328.351 83.5166 329.42 81.816 330.799 80.5596C332.158 79.2831 333.715 78.3999 335.261 77.7951C338.382 76.5945 341.448 76.6584 343.87 77.1155C346.314 77.5705 348.187 78.3739 349.443 78.9717C350.071 79.2771 350.547 79.5376 350.865 79.7242C351.182 79.9119 351.345 80.0186 351.337 80.0346C351.33 80.0506 351.152 79.9757 350.821 79.818C350.491 79.6624 350.004 79.4328 349.368 79.1574C348.099 78.6204 346.225 77.8789 343.814 77.4777C341.422 77.0745 338.433 77.0556 335.411 78.2452C333.916 78.845 332.413 79.7103 331.11 80.9428C329.787 82.1594 328.773 83.7741 327.917 85.5516C327.047 87.317 326.267 89.1314 325.138 90.6533C324.029 92.1942 322.504 93.2801 320.939 93.8559C317.77 95.0316 314.646 94.5026 312.353 93.5715C310.024 92.6354 308.355 91.4078 307.24 90.5485C306.684 90.1124 306.266 89.7531 305.989 89.5036C305.713 89.2511 305.573 89.1124 305.583 89.0984Z" fill="#455A64"/>
<path d="M301.658 103.925C301.714 103.856 302.43 104.526 303.72 105.377C305.005 106.231 306.911 107.201 309.16 107.753C311.412 108.295 313.522 108.3 315.025 108.123C316.53 107.952 317.444 107.678 317.468 107.766C317.477 107.801 317.257 107.897 316.848 108.042C316.441 108.196 315.831 108.354 315.069 108.489C313.547 108.764 311.37 108.819 309.054 108.261C306.739 107.694 304.797 106.638 303.533 105.686C302.9 105.212 302.413 104.789 302.107 104.462C301.795 104.14 301.636 103.951 301.658 103.925Z" fill="#455A64"/>
<path d="M310.393 113.253C310.451 113.111 312.033 113.807 314.089 114.169C316.142 114.549 317.849 114.449 317.86 114.603C317.882 114.733 316.138 115.074 314.008 114.681C311.877 114.305 310.332 113.368 310.393 113.253Z" fill="#455A64"/>
<path d="M335.816 173.199L305.979 182.025L273.795 207.002L282.378 222.771L434.15 223.051C434.15 223.051 428.616 201.27 426.799 194.581C424.059 184.495 420.339 181.641 416.943 177.953C415.915 176.837 412.953 174.866 411.525 174.531C405.528 173.127 377.745 166.424 372.336 166.587C372.336 166.587 366.102 180.428 353.038 180.292C339.975 180.156 335.816 173.199 335.816 173.199Z" fill="#455A64"/>
<path d="M397.326 198.783C397.42 198.809 397.699 197.467 398.581 195.497C399.446 193.522 401.014 190.982 403.184 188.59C405.354 186.195 407.6 184.333 409.212 182.976C410.834 181.627 411.836 180.783 411.789 180.714C411.747 180.651 410.668 181.374 408.982 182.642C407.305 183.916 404.999 185.744 402.79 188.181C400.579 190.617 399.019 193.265 398.228 195.327C397.824 196.355 397.58 197.22 397.454 197.827C397.325 198.431 397.293 198.775 397.326 198.783Z" fill="#263238"/>
<path d="M306.689 216.091C306.763 216.09 306.812 214.795 306.791 212.702C306.769 210.61 306.666 207.72 306.441 204.535C306.214 201.351 305.908 198.476 305.634 196.405C305.359 194.334 305.128 193.062 305.055 193.072C304.977 193.083 305.072 194.372 305.247 196.453C305.427 198.719 305.648 201.502 305.893 204.58C306.086 207.662 306.26 210.448 306.402 212.717C306.523 214.802 306.611 216.093 306.689 216.091Z" fill="#263238"/>
<g opacity="0.3">
<path d="M297.739 220.236C300.196 219.454 302.692 218.456 304.515 216.522C306.337 214.588 307.312 211.491 306.221 209.001C309.7 217.284 318.087 222.886 326.543 222.578L290.539 223.059C292.742 221.655 295.282 221.017 297.739 220.236Z" fill="black"/>
</g>
<path d="M467.532 222.977C467.532 222.977 463.883 217.651 462.086 216.641C460.289 215.631 457.816 215.662 456.727 216.709C455.639 217.756 455.639 217.756 455.639 217.756C455.639 217.756 449.975 215.024 447.25 217.125C447.25 217.125 441.861 214.389 439.284 217.521C439.284 217.521 435.13 214.623 433.371 217.154C431.613 219.685 431.797 223.962 432.646 226.165C433.495 228.367 435.09 235.873 436.328 236.005C436.328 236.005 439.639 236.384 440.081 234.461C440.523 232.538 440.711 231.612 440.711 231.612C440.711 231.612 441.977 238.414 443.502 238.75C445.027 239.085 447.935 238.906 448.034 235.922C448.034 235.922 449.448 238.177 450.83 237.52C452.212 236.863 453.919 235.777 453.767 233.931C453.614 232.087 453.594 230.241 453.594 230.241C453.594 230.241 454.351 232.93 455.601 232.345C456.851 231.762 458.109 231.887 458.812 229.606C459.514 227.324 461.256 222.977 461.256 222.977H467.532Z" fill="#924E2C"/>
<path d="M453.695 230.094C453.773 230.05 453.445 229.357 453.154 228.171C452.86 226.993 452.656 225.285 452.971 223.459C453.286 221.633 454.047 220.116 454.714 219.13C455.382 218.134 455.919 217.614 455.861 217.543C455.824 217.489 455.186 217.901 454.409 218.873C453.635 219.831 452.767 221.41 452.431 223.352C452.096 225.295 452.379 227.102 452.782 228.294C453.185 229.498 453.642 230.129 453.695 230.094Z" fill="#EB996E"/>
<path d="M446.899 217.164C446.837 217.145 446.486 218.147 446.173 219.842C445.858 221.534 445.633 223.929 445.795 226.568C445.963 229.207 446.485 231.548 447.007 233.179C447.529 234.813 448.002 235.757 448.06 235.729C448.235 235.668 446.643 231.726 446.342 226.528C445.994 221.335 447.079 217.199 446.899 217.164Z" fill="#EB996E"/>
<path d="M439.153 217.61C439.016 217.591 438.639 220.829 439.072 224.805C439.488 228.783 440.539 231.844 440.668 231.793C440.826 231.744 440.025 228.651 439.617 224.738C439.19 220.827 439.318 217.619 439.153 217.61Z" fill="#EB996E"/>
<path d="M416.863 219.138C417.094 218.505 417.68 218.089 418.288 217.898C419.705 217.455 421.264 218.063 422.397 219.08C423.53 220.097 424.629 221.698 425.399 223.051L417.37 222.996C417.447 221.678 416.413 220.366 416.863 219.138Z" fill="#723617"/>
<path d="M213.379 225.302C213.88 219.956 216.649 215.16 220.898 212.325C224.276 210.187 228.358 209.753 232.061 211.137L247.557 216.93C248.39 217.889 273.96 207.305 273.96 207.305L282.543 223.051L233.682 222.978C237.208 227.444 242.213 232.368 242.213 232.368L245.532 244.202L245.202 254.914C243.45 255.782 240.827 252.475 240.827 252.475L239.294 255.495L239.806 258.405C239.806 258.405 244.324 270.183 244.166 272.801C244.102 273.848 243.474 274.221 242.742 274.29C241.433 274.415 240.205 273.586 239.603 272.331L233.176 258.933C233.176 258.933 228.205 257.63 226.469 255.873C224.647 254.029 222.063 250.703 222.063 250.703L218.909 250.22C218.619 250.303 218.233 250.196 217.817 249.986C216.121 249.131 214.972 247.372 214.621 245.395L213.019 236.367C212.665 234.382 212.973 229.634 213.379 225.302Z" fill="#924E2C"/>
<path d="M227.925 248.625C227.797 248.664 228.46 251.267 229.946 254.168C231.42 257.077 233.105 259.079 233.203 258.985C233.324 258.883 231.847 256.758 230.399 253.901C228.939 251.053 228.07 248.571 227.925 248.625Z" fill="#EB996E"/>
<path d="M220.473 247.641C220.312 247.715 220.89 249.1 221.893 250.554C222.882 252.023 223.813 253.098 223.923 253.008C224.04 252.912 223.292 251.685 222.313 250.23C221.317 248.782 220.579 247.597 220.473 247.641Z" fill="#EB996E"/>
<path d="M240.802 261.093C240.874 261.063 240.487 259.831 239.927 257.821C239.362 255.813 238.628 253.025 237.907 249.919C237.546 248.366 237.222 246.88 236.941 245.529C236.657 244.184 236.504 242.959 236.608 241.944C236.802 239.865 237.868 238.974 237.789 238.931C237.772 238.907 237.494 239.073 237.138 239.545C236.786 240.013 236.395 240.818 236.245 241.895C236.086 242.972 236.211 244.268 236.474 245.635C236.731 247.002 237.041 248.495 237.405 250.055C238.128 253.174 238.921 255.959 239.578 257.945C240.231 259.932 240.74 261.119 240.802 261.093Z" fill="#EB996E"/>
<path d="M237.442 241.201C237.378 241.262 237.908 241.902 238.522 243.088C239.136 244.263 239.787 246.039 239.908 248.091C239.964 249.101 239.907 250.158 240.138 251.078C240.334 252.031 240.846 252.759 241.312 253.247C242.272 254.227 243.022 254.569 243.048 254.523C243.102 254.444 242.419 253.973 241.578 252.979C241.168 252.477 240.752 251.816 240.603 250.968C240.413 250.108 240.482 249.14 240.424 248.055C240.297 245.892 239.552 244.048 238.835 242.885C238.117 241.71 237.482 241.156 237.442 241.201Z" fill="#EB996E"/>
<path d="M233.802 223.125C233.896 222.997 232.08 221.379 230.254 218.974C228.405 216.601 227.254 214.35 227.087 214.497C227.049 214.481 227.261 215.102 227.728 216C228.192 216.904 228.917 218.11 229.855 219.327C231.723 221.788 233.727 223.246 233.802 223.125Z" fill="#EB996E"/>
<g opacity="0.3">
<path d="M394.553 222.977L395.159 207.945L385.328 222.96L394.553 222.977Z" fill="black"/>
</g>
<path d="M394.553 222.977C394.419 222.969 394.517 218.983 394.771 214.075C395.024 209.166 395.338 205.193 395.471 205.201C395.605 205.209 395.508 209.194 395.254 214.104C395 219.012 394.686 222.985 394.553 222.977Z" fill="#263238"/>
<path d="M391.546 170.469C391.546 170.469 391.72 170.777 391.796 171.441C391.867 172.097 391.76 173.141 391.118 174.223C390.506 175.299 389.345 176.417 387.713 176.91C386.098 177.452 384.166 177.452 382.094 177.418C381.057 177.41 379.972 177.422 378.863 177.596C377.761 177.77 376.623 178.12 375.637 178.832C374.645 179.537 373.861 180.602 373.326 181.846C372.781 183.086 372.436 184.471 372.138 185.906C371.834 187.343 371.563 188.836 371.138 190.335C370.705 191.825 370.061 193.328 369.074 194.59C367.148 197.134 364.158 198.919 360.904 199.148C357.644 199.362 354.487 197.996 352.222 195.813C351.07 194.734 350.193 193.372 349.483 192.034C348.757 190.716 347.986 189.431 346.815 188.748C345.668 188.035 344.314 187.918 343.047 188.043C341.768 188.155 340.536 188.467 339.335 188.725C338.135 188.984 336.958 189.231 335.798 189.243C334.634 189.298 333.53 189.03 332.528 188.686C330.515 187.954 328.957 186.659 327.845 185.328C326.722 183.992 326.039 182.597 325.653 181.409C325.428 180.826 325.354 180.263 325.242 179.796C325.19 179.314 325.122 178.909 325.116 178.578C325.118 178.274 325.12 178.026 325.121 177.826C325.124 177.657 325.131 177.57 325.139 177.571C325.241 177.553 324.998 179.005 325.83 181.339C326.235 182.493 326.929 183.845 328.044 185.13C329.149 186.412 330.683 187.651 332.636 188.336C333.608 188.657 334.672 188.905 335.788 188.841C336.904 188.819 338.06 188.569 339.253 188.302C340.448 188.037 341.687 187.712 343.01 187.587C344.315 187.451 345.775 187.557 347.036 188.332C348.327 189.081 349.151 190.466 349.88 191.778C350.599 193.119 351.425 194.388 352.538 195.431C354.718 197.525 357.76 198.834 360.873 198.627C363.98 198.41 366.858 196.699 368.706 194.266C370.631 191.826 371.08 188.653 371.703 185.798C372.01 184.356 372.366 182.937 372.942 181.646C373.506 180.353 374.351 179.215 375.414 178.471C376.474 177.718 377.674 177.366 378.81 177.197C379.953 177.029 381.056 177.029 382.099 177.049C384.176 177.107 386.066 177.129 387.636 176.63C389.221 176.179 390.339 175.137 390.96 174.112C391.604 173.085 391.738 172.089 391.699 171.448C391.656 170.802 391.515 170.479 391.546 170.469Z" fill="white"/>
<path d="M346.353 221.899C346.336 221.903 346.27 221.668 346.156 221.215C346.028 220.714 345.86 220.058 345.651 219.242C345.166 217.561 344.545 215.016 342.899 212.403C342.498 211.746 341.984 211.135 341.421 210.537C340.832 209.968 340.166 209.441 339.406 209.029C337.881 208.205 336.026 207.897 334.101 208.026C332.168 208.141 330.167 208.636 328.093 209.151C326.022 209.684 323.808 210.142 321.508 210.067C319.232 210.005 316.892 209.28 315.311 207.581C313.703 205.907 313.075 203.585 312.864 201.491C312.652 199.361 312.85 197.344 312.994 195.486C313.144 193.626 313.249 191.893 313.111 190.326C312.891 187.169 311.472 184.885 310.216 183.802C308.923 182.699 307.93 182.651 307.962 182.574C307.963 182.565 308.02 182.571 308.132 182.59C308.24 182.616 308.411 182.629 308.62 182.705C309.044 182.826 309.657 183.102 310.332 183.643C311.665 184.711 313.18 187.043 313.451 190.29C313.615 191.893 313.526 193.656 313.393 195.52C313.266 197.385 313.089 199.374 313.307 201.438C313.524 203.474 314.142 205.669 315.642 207.217C317.118 208.792 319.315 209.484 321.524 209.547C323.755 209.62 325.921 209.18 327.987 208.655C330.062 208.148 332.09 207.654 334.077 207.548C336.053 207.427 337.998 207.761 339.588 208.645C340.381 209.085 341.073 209.645 341.679 210.246C342.258 210.874 342.781 211.515 343.183 212.197C344.835 214.909 345.401 217.485 345.834 219.19C346.034 220.055 346.168 220.732 346.252 221.192C346.334 221.652 346.37 221.895 346.353 221.899Z" fill="white"/>
<path d="M395.693 209.147C395.646 209.252 394.248 208.167 391.632 207.484C390.332 207.148 388.729 206.954 386.97 207.116C385.214 207.283 383.309 207.839 381.532 208.905C379.752 209.964 378.287 211.388 377.195 212.874C376.113 214.368 375.377 215.92 374.973 217.278C374.572 218.643 374.579 219.83 374.766 220.598C374.941 221.374 375.217 221.737 375.173 221.765C375.159 221.775 375.09 221.69 374.968 221.514C374.858 221.332 374.701 221.052 374.585 220.653C374.33 219.864 374.269 218.607 374.644 217.175C375.022 215.748 375.743 214.144 376.842 212.581C377.948 211.032 379.453 209.547 381.296 208.451C383.135 207.346 385.119 206.784 386.932 206.639C388.749 206.499 390.394 206.738 391.714 207.129C393.039 207.517 394.048 208.031 394.71 208.435C395.046 208.631 395.29 208.813 395.454 208.937C395.621 209.059 395.703 209.132 395.693 209.147Z" fill="white"/>
<path d="M405.713 182.228C405.664 182.255 405.377 181.816 405.144 180.992C404.909 180.175 404.783 178.959 405.016 177.661C405.253 176.364 405.792 175.287 406.295 174.623C406.798 173.953 407.218 173.661 407.254 173.706C407.371 173.805 405.912 175.282 405.49 177.76C405.018 180.227 405.857 182.184 405.713 182.228Z" fill="white"/>
<path d="M428.457 202.008C428.473 202.013 428.439 202.163 428.36 202.444C428.292 202.73 428.145 203.133 427.931 203.644C427.497 204.657 426.669 206.055 425.266 207.396C423.859 208.703 421.836 209.95 419.351 210.301C416.842 210.702 414.158 209.839 411.46 209.118C410.101 208.767 408.76 208.476 407.459 208.464C406.161 208.439 404.906 208.668 403.772 209.078C401.498 209.91 399.707 211.341 398.485 212.78C397.256 214.228 396.56 215.657 396.178 216.671C395.784 217.686 395.679 218.295 395.624 218.28C395.607 218.276 395.628 218.124 395.683 217.836C395.736 217.549 395.817 217.123 396.001 216.599C396.336 215.546 397 214.054 398.23 212.534C399.453 211.024 401.276 209.513 403.628 208.624C404.802 208.186 406.108 207.936 407.465 207.955C408.824 207.961 410.2 208.259 411.574 208.613C414.301 209.345 416.905 210.186 419.295 209.826C421.678 209.516 423.649 208.35 425.043 207.117C426.432 205.849 427.285 204.52 427.762 203.553C428.246 202.582 428.406 201.988 428.457 202.008Z" fill="white"/>
<path d="M304.173 220.234C304.174 220.252 304.063 220.271 303.849 220.291C303.636 220.315 303.319 220.334 302.91 220.305C302.098 220.256 300.9 220.05 299.566 219.372C298.249 218.691 296.764 217.56 295.66 215.809C295.106 214.943 294.664 213.921 294.386 212.819C294.113 211.716 293.973 210.553 293.836 209.377C293.585 207.046 293.231 204.767 292.003 203.245C290.797 201.719 289.095 201.114 287.716 200.826C286.313 200.537 285.14 200.502 284.335 200.46C283.528 200.429 283.081 200.412 283.08 200.374C283.079 200.341 283.525 200.29 284.336 200.259C285.145 200.24 286.329 200.216 287.777 200.464C289.195 200.714 291.011 201.298 292.343 202.934C293.005 203.737 293.454 204.777 293.747 205.871C294.041 206.972 294.176 208.137 294.317 209.313C294.455 210.487 294.589 211.627 294.846 212.687C295.106 213.743 295.512 214.706 296.032 215.54C297.062 217.224 298.466 218.342 299.718 219.042C302.297 220.421 304.198 220.1 304.173 220.234Z" fill="white"/>
<path d="M342.693 390.002C344.979 394.467 345.395 398.932 345.395 398.932H350.384V398.926L371.322 398.531L371.17 398.932C371.17 398.932 374.582 381.69 375.205 376.555C375.72 372.32 378.155 362.202 375.183 357.738C374.112 356.129 372.147 355.43 370.39 356.021C369.382 356.359 368.364 357.136 367.99 358.845C367.99 358.845 367.737 352.862 363.741 352.771C359.745 352.68 359.605 356.034 359.605 356.034C359.605 356.034 358.507 349.205 354.061 349.265C354.061 349.265 351.324 349.4 350.384 352.588V350.491V339.671C350.384 337.039 348.504 334.74 346.054 334.644C343.516 334.546 341.421 336.706 341.389 339.41L341.03 369.466L334.232 360.105C332.46 357.679 328.22 358.886 327.684 360.97C327.684 360.97 326.458 363.712 328.989 367.757C330.881 370.78 342.693 390.002 342.693 390.002Z" fill="#EBEBEB"/>
<path d="M342.693 390.002C342.693 390.002 342.575 389.844 342.366 389.521C342.15 389.181 341.846 388.703 341.45 388.08C340.643 386.791 339.47 384.916 337.961 382.504C336.448 380.07 334.601 377.097 332.453 373.643C331.38 371.912 330.231 370.06 329.013 368.095C328.4 367.11 327.807 366.027 327.498 364.793C327.175 363.572 327.067 362.21 327.529 360.891L327.518 360.921C327.754 360.118 328.367 359.547 329.024 359.178C329.693 358.812 330.442 358.607 331.212 358.577C331.977 358.549 332.782 358.706 333.482 359.147C333.659 359.252 333.811 359.401 333.975 359.528C334.119 359.681 334.261 359.846 334.395 360.007C334.634 360.334 334.874 360.663 335.116 360.995C337.049 363.647 339.078 366.433 341.19 369.329L340.825 369.462C340.917 361.073 341.017 351.882 341.125 342.105C341.132 341.495 341.139 340.881 341.145 340.265C341.159 339.662 341.128 339.016 341.266 338.369C341.526 337.091 342.272 335.93 343.307 335.21C344.338 334.481 345.649 334.216 346.873 334.506C348.101 334.789 349.19 335.653 349.854 336.802C350.19 337.375 350.422 338.019 350.537 338.688C350.662 339.371 350.613 340.04 350.624 340.679C350.624 341.983 350.624 343.293 350.624 344.61C350.624 347.244 350.625 349.905 350.625 352.588L350.153 352.51C350.477 351.416 351.163 350.276 352.213 349.65C352.634 349.384 353.093 349.197 353.568 349.082C353.793 349.027 354.072 348.987 354.31 349.026C354.552 349.056 354.801 349.04 355.034 349.114C355.994 349.312 356.854 349.899 357.501 350.64C358.794 352.156 359.457 354.068 359.842 355.991L359.365 356.023C359.477 354.67 360.299 353.471 361.428 352.956C361.98 352.677 362.578 352.579 363.161 352.532C363.455 352.528 363.744 352.495 364.044 352.548L364.49 352.602L364.922 352.741C366.099 353.12 366.917 354.213 367.401 355.306C367.887 356.431 368.14 357.617 368.226 358.834L367.761 358.787C368.001 357.515 368.868 356.343 370.015 355.899C371.135 355.422 372.412 355.468 373.493 355.975C374.033 356.231 374.531 356.588 374.939 357.042C375.361 357.492 375.623 358.053 375.905 358.584C376.389 359.701 376.607 360.893 376.748 362.066C377.149 366.805 376.207 371.302 375.559 375.569C374.999 379.879 374.204 383.977 373.491 387.881C372.737 391.777 372.02 395.481 371.346 398.972L371.007 398.861C371.061 398.717 371.11 398.589 371.158 398.461L371.325 398.724C362.908 398.857 355.873 398.967 350.387 399.053L350.502 398.928V398.934V399.06L350.385 399.059C348.43 399.05 346.832 399.042 345.396 399.035H345.311L345.3 398.944C344.938 395.935 344.182 393.688 343.63 392.217C343.351 391.478 343.106 390.929 342.938 390.564C342.768 390.196 342.693 390.002 342.693 390.002C342.693 390.002 343.118 390.708 343.721 392.174C344.306 393.642 345.094 395.878 345.491 398.922L345.396 398.83C346.832 398.823 348.43 398.816 350.385 398.807L350.268 398.933V398.927V398.803L350.383 398.8C355.869 398.68 362.904 398.525 371.32 398.342L371.588 398.336L371.488 398.603C371.44 398.731 371.392 398.86 371.337 399.003L370.998 398.892C371.661 395.4 372.364 391.694 373.104 387.797C373.807 383.89 374.587 379.804 375.138 375.495C375.781 371.215 376.7 366.736 376.299 362.119C376.161 360.983 375.948 359.839 375.493 358.796C375.229 358.305 374.987 357.782 374.611 357.387C374.244 356.981 373.796 356.66 373.311 356.431C372.337 355.975 371.189 355.938 370.19 356.365C369.177 356.768 368.45 357.745 368.222 358.902L367.884 360.627L367.758 358.855C367.677 357.726 367.428 356.562 366.974 355.524C366.518 354.503 365.79 353.548 364.773 353.226C363.787 352.911 362.596 352.979 361.627 353.425C360.645 353.862 359.947 354.924 359.848 356.044L359.7 357.732L359.37 356.076C359.008 354.257 358.346 352.381 357.152 350.995C355.985 349.604 353.982 349.023 352.459 350.096C351.525 350.654 350.917 351.66 350.616 352.664L350.143 354.242V352.585C350.143 349.902 350.144 347.241 350.144 344.607C350.144 343.29 350.145 341.98 350.145 340.676C350.137 340.017 350.18 339.374 350.068 338.778C349.964 338.172 349.755 337.589 349.451 337.071C348.849 336.03 347.869 335.254 346.771 335C345.678 334.74 344.492 334.976 343.565 335.631C342.631 336.279 341.958 337.325 341.723 338.475C341.599 339.043 341.626 339.644 341.612 340.269C341.604 340.885 341.596 341.499 341.589 342.109C341.462 351.886 341.343 361.076 341.235 369.465L341.227 370.09L340.869 369.596C338.767 366.692 336.746 363.901 334.82 361.241C334.317 360.585 333.928 359.85 333.293 359.484C332.672 359.088 331.936 358.937 331.224 358.96C330.509 358.984 329.805 359.174 329.186 359.51C328.574 359.845 328.041 360.368 327.847 361.015L327.846 361.018L327.837 361.044C327.428 362.196 327.499 363.535 327.811 364.694C328.103 365.882 328.668 366.931 329.268 367.907C330.476 369.881 331.615 371.741 332.679 373.481C334.801 376.956 336.626 379.946 338.12 382.394C339.596 384.828 340.744 386.721 341.533 388.022C341.911 388.656 342.201 389.143 342.408 389.489C342.603 389.826 342.693 390.002 342.693 390.002Z" fill="#263238"/>
<path d="M371.599 406.615H345.382C343.39 406.615 341.775 404.881 341.775 402.742V402.469C341.775 400.33 343.391 398.596 345.382 398.596H371.599C373.591 398.596 375.206 400.331 375.206 402.469V402.742C375.206 404.881 373.591 406.615 371.599 406.615Z" fill="#EBEBEB"/>
<path d="M371.599 406.615C371.599 406.586 371.867 406.596 372.351 406.475C372.825 406.346 373.544 406.051 374.174 405.302C374.484 404.931 374.762 404.448 374.929 403.87C375.089 403.298 375.117 402.607 375.029 401.916C374.859 400.54 373.741 399.043 372.085 398.821C365.209 398.83 355.79 398.842 345.384 398.856C344.158 398.849 342.992 399.612 342.427 400.739C342.15 401.304 342 401.926 342.014 402.568C341.997 403.22 342.119 403.829 342.381 404.385C342.897 405.496 343.956 406.245 345.061 406.351C346.201 406.388 347.392 406.366 348.513 406.377C353.026 406.398 357.094 406.417 360.528 406.433C363.913 406.466 366.668 406.495 368.628 406.515C369.549 406.536 370.284 406.552 370.831 406.564C371.335 406.58 371.599 406.597 371.599 406.615C371.599 406.633 371.336 406.65 370.832 406.667C370.285 406.679 369.55 406.695 368.629 406.716C366.668 406.736 363.913 406.764 360.529 406.799C357.094 406.815 353.026 406.834 348.514 406.855C347.374 406.85 346.245 406.881 345.02 406.844C343.76 406.729 342.551 405.881 341.96 404.614C341.659 403.992 341.517 403.26 341.536 402.566C341.519 401.863 341.687 401.129 342.005 400.489C342.647 399.202 343.983 398.327 345.385 398.335C355.832 398.355 365.249 398.319 372.133 398.455C373.953 398.728 375.14 400.386 375.297 401.872C375.38 402.623 375.335 403.321 375.15 403.943C374.958 404.556 374.651 405.058 374.313 405.439C373.626 406.205 372.866 406.476 372.373 406.577C371.866 406.668 371.599 406.615 371.599 406.615Z" fill="#263238"/>
<path d="M350.16 363.614C350.026 363.614 349.918 361.01 349.918 357.798C349.918 354.584 350.026 351.981 350.16 351.981C350.294 351.981 350.401 354.584 350.401 357.798C350.401 361.01 350.293 363.614 350.16 363.614Z" fill="#263238"/>
<path d="M359.488 362.823C359.354 362.823 359.246 361.274 359.246 359.365C359.246 357.455 359.354 355.906 359.488 355.906C359.621 355.906 359.729 357.454 359.729 359.365C359.729 361.275 359.621 362.823 359.488 362.823Z" fill="#263238"/>
<path d="M367.993 365.733C367.859 365.733 367.751 364.184 367.751 362.275C367.751 360.365 367.86 358.816 367.993 358.816C368.126 358.816 368.234 360.364 368.234 362.275C368.235 364.184 368.127 365.733 367.993 365.733Z" fill="#263238"/>
<path d="M339.468 334.193C339.407 334.321 337.117 333.196 334.354 331.681C331.589 330.165 329.398 328.834 329.459 328.706C329.519 328.579 331.809 329.703 334.574 331.219C337.337 332.733 339.529 334.066 339.468 334.193Z" fill="#263238"/>
<path d="M344.005 331.45C343.873 331.472 343.267 328.064 342.651 323.839C342.035 319.612 341.642 316.169 341.774 316.147C341.906 316.125 342.512 319.533 343.128 323.759C343.745 327.984 344.137 331.428 344.005 331.45Z" fill="#263238"/>
<path d="M349.648 332.147C349.538 332.066 350.952 329.693 352.804 326.851C354.657 324.008 356.247 321.77 356.357 321.852C356.466 321.934 355.054 324.305 353.201 327.148C351.347 329.991 349.757 332.229 349.648 332.147Z" fill="#263238"/>
<path d="M160.23 313C159.286 313 158.814 312.481 158.814 311.442V273.946C158.814 272.908 159.286 272.389 160.23 272.389H162.836C163.78 272.389 164.252 272.908 164.252 273.946V311.442C164.252 312.481 163.78 313 162.836 313H160.23Z" fill="white"/>
<path d="M174.362 313C173.513 313 173.088 312.575 173.088 311.726V284.538C173.088 283.688 173.513 283.264 174.362 283.264H176.741C177.591 283.264 178.016 283.688 178.016 284.538V286.804H178.129C179.356 285.444 180.678 284.434 182.094 283.773C183.51 283.113 185.275 282.782 187.39 282.782C190.826 282.782 193.29 283.755 194.781 285.699C196.292 287.625 197.047 290.268 197.047 293.629V311.726C197.047 312.575 196.622 313 195.772 313H193.337C192.487 313 192.062 312.575 192.062 311.726V294.988C192.062 291.288 191.449 288.947 190.222 287.965C188.994 286.964 187.437 286.464 185.549 286.464C183.094 286.464 181.235 287.2 179.97 288.673C178.705 290.127 178.072 292.628 178.072 296.178V311.726C178.072 312.575 177.647 313 176.798 313H174.362Z" fill="white"/>
<path d="M203.872 310.225C203.287 309.677 203.164 309.167 203.504 308.695L204.778 306.911C205.194 306.345 205.807 306.373 206.619 306.996C207.733 307.846 208.97 308.525 210.329 309.035C211.707 309.545 213.274 309.8 215.03 309.8C216.069 309.8 216.994 309.677 217.806 309.432C218.618 309.167 219.326 308.686 219.93 307.987C220.553 307.289 220.864 306.354 220.864 305.184C220.864 304.504 220.713 303.862 220.411 303.258C220.128 302.654 219.675 302.172 219.052 301.813C218.448 301.436 217.853 301.143 217.268 300.936C216.305 300.577 215.342 300.284 214.379 300.058C213.435 299.812 212.189 299.444 210.641 298.953C209.602 298.632 208.62 298.179 207.695 297.594C206.77 296.99 205.958 296.178 205.26 295.158C204.58 294.139 204.24 292.732 204.24 290.938C204.24 289.107 204.797 287.531 205.911 286.209C207.025 284.887 208.422 283.991 210.103 283.519C211.783 283.028 213.416 282.782 215.002 282.782C217.343 282.782 219.222 283.056 220.638 283.604C222.073 284.132 223.309 284.765 224.348 285.501C224.952 285.935 225.037 286.436 224.603 287.002L223.328 288.701C222.932 289.249 222.318 289.23 221.487 288.645C220.789 288.154 219.798 287.691 218.514 287.257C217.23 286.823 216.106 286.605 215.144 286.605C213.954 286.605 212.935 286.738 212.085 287.002C211.235 287.266 210.546 287.719 210.018 288.361C209.489 289.003 209.225 289.758 209.225 290.627C209.225 291.288 209.328 291.882 209.536 292.411C209.744 292.921 210.131 293.393 210.697 293.827C211.264 294.261 212.057 294.611 213.076 294.875C214.662 295.29 216.106 295.668 217.409 296.008C218.731 296.348 219.92 296.763 220.978 297.254C222.356 297.896 223.413 298.604 224.149 299.378C224.905 300.152 225.424 300.992 225.707 301.898C225.99 302.786 226.132 303.777 226.132 304.872C226.132 306.892 225.528 308.601 224.319 309.998C223.13 311.395 221.799 312.33 220.326 312.802C218.854 313.255 217.079 313.481 215.002 313.481C212.189 313.481 209.772 313.085 207.752 312.292C205.751 311.48 204.457 310.791 203.872 310.225Z" fill="white"/>
<path d="M230.153 298.132C230.153 293.695 231.248 290.032 233.438 287.144C235.647 284.236 239.018 282.782 243.549 282.782C246.607 282.782 248.939 283.33 250.544 284.425C252.168 285.501 253.338 286.605 254.056 287.738C254.452 288.361 254.367 288.862 253.801 289.239L252.017 290.4C251.45 290.797 250.884 290.542 250.317 289.636C249.77 288.767 248.996 288.021 247.995 287.398C247.013 286.775 245.531 286.464 243.549 286.464C240.962 286.464 238.961 287.417 237.545 289.324C236.129 291.231 235.421 294.167 235.421 298.132C235.421 302.097 236.129 305.033 237.545 306.939C238.961 308.846 240.962 309.8 243.549 309.8C245.645 309.8 247.249 309.403 248.363 308.61C249.477 307.799 250.289 306.921 250.799 305.977C251.29 305.089 251.847 304.834 252.47 305.212L254.367 306.345C254.934 306.685 255.019 307.194 254.622 307.874C254.15 308.686 253.074 309.828 251.394 311.301C249.732 312.755 247.117 313.481 243.549 313.481C239.018 313.481 235.647 312.037 233.438 309.148C231.248 306.241 230.153 302.569 230.153 298.132Z" fill="white"/>
<path d="M262.099 313C261.249 313 260.824 312.575 260.824 311.726V284.538C260.824 283.688 261.249 283.264 262.099 283.264H264.478C265.327 283.264 265.752 283.688 265.752 284.538V287.937H265.865C266.771 286.237 267.838 284.953 269.065 284.085C270.293 283.216 271.822 282.782 273.653 282.782C274.862 282.782 275.711 282.886 276.202 283.094C276.636 283.264 276.797 283.547 276.684 283.943L276.032 286.266C275.938 286.605 275.692 286.738 275.296 286.662C274.635 286.53 274.012 286.464 273.427 286.464C271.218 286.464 269.396 287.465 267.961 289.466C266.526 291.448 265.809 294.158 265.809 297.594V311.726C265.809 312.575 265.384 313 264.534 313H262.099Z" fill="white"/>
<path d="M279.657 298.132C279.657 293.45 280.828 289.721 283.169 286.945C285.51 284.17 288.861 282.782 293.223 282.782C296.848 282.782 299.85 284.057 302.229 286.605C304.626 289.135 305.825 293.185 305.825 298.755C305.825 299.604 305.438 300.029 304.664 300.029H284.925C285.246 303.673 286.228 306.213 287.87 307.647C289.513 309.063 291.372 309.771 293.449 309.771C295.639 309.771 297.32 309.403 298.49 308.667C299.661 307.931 300.52 307.204 301.067 306.486C301.672 305.693 302.257 305.542 302.823 306.033L304.494 307.478C304.928 307.855 304.928 308.374 304.494 309.035C304.135 309.583 303.106 310.461 301.407 311.669C299.727 312.877 297.074 313.481 293.449 313.481C288.729 313.481 285.246 312.094 282.999 309.318C280.771 306.543 279.657 302.814 279.657 298.132ZM284.812 296.348H300.812C300.737 293.704 300.057 291.392 298.773 289.409C297.49 287.408 295.602 286.407 293.109 286.407C290.919 286.407 289.06 287.144 287.53 288.616C286.001 290.07 285.095 292.647 284.812 296.348Z" fill="white"/>
<path d="M310.102 284.651C309.781 283.726 310.035 283.264 310.866 283.264H313.953C314.557 283.264 314.982 283.632 315.228 284.368L321.231 303.06C321.722 304.589 322.053 305.646 322.223 306.231C322.411 306.798 322.581 307.506 322.732 308.355H322.846C322.997 307.506 323.157 306.798 323.327 306.231C323.516 305.646 323.856 304.589 324.347 303.06L330.351 284.368C330.596 283.632 331.021 283.264 331.625 283.264H334.712C335.543 283.264 335.798 283.726 335.477 284.651L326.188 311.272C325.791 312.424 325.281 313 324.658 313H320.92C320.297 313 319.787 312.424 319.391 311.272L310.102 284.651Z" fill="white"/>
<path d="M338.677 305.07C338.677 301.71 340.244 299.246 343.378 297.679C346.531 296.112 351.232 295.196 357.481 294.932V293.006C357.481 291.231 357.076 289.702 356.264 288.418C355.471 287.115 353.885 286.464 351.506 286.464C349.995 286.464 348.787 286.615 347.881 286.917C346.975 287.2 346.144 287.587 345.389 288.078C344.652 288.55 343.944 289.164 343.265 289.919C342.755 290.485 342.273 290.514 341.82 290.004L340.348 288.305C339.932 287.833 340.074 287.266 340.772 286.605C341.773 285.661 342.745 284.953 343.689 284.481C344.633 284.009 345.804 283.613 347.201 283.292C348.617 282.952 350.052 282.782 351.506 282.782C355.452 282.782 358.265 283.802 359.945 285.841C361.626 287.861 362.466 290.636 362.466 294.167V311.726C362.466 312.575 362.041 313 361.191 313H358.643C357.906 313 357.538 312.575 357.538 311.726V310.338H357.481C355.99 311.508 354.527 312.33 353.092 312.802C351.676 313.255 350.09 313.481 348.334 313.481C345.238 313.481 342.849 312.745 341.169 311.272C339.507 309.781 338.677 307.714 338.677 305.07ZM343.831 305.184C343.831 306.354 344.076 307.298 344.567 308.016C345.058 308.714 345.738 309.167 346.606 309.375C347.475 309.564 348.381 309.658 349.325 309.658C350.779 309.658 352.157 309.517 353.46 309.233C354.763 308.95 356.103 308.204 357.481 306.996V298.642C353.668 298.925 350.949 299.274 349.325 299.689C347.701 300.086 346.38 300.785 345.36 301.785C344.341 302.767 343.831 303.9 343.831 305.184Z" fill="white"/>
<path d="M369.376 299.321C368.526 299.321 368.102 298.991 368.102 298.33V296.348C368.102 295.687 368.526 295.356 369.376 295.356H382.913C383.763 295.356 384.188 295.687 384.188 296.348V298.33C384.188 298.991 383.763 299.321 382.913 299.321H369.376Z" fill="white"/>
<path d="M388.634 310.225C388.049 309.677 387.926 309.167 388.266 308.695L389.54 306.911C389.955 306.345 390.569 306.373 391.381 306.996C392.495 307.846 393.731 308.525 395.091 309.035C396.469 309.545 398.036 309.8 399.792 309.8C400.83 309.8 401.756 309.677 402.567 309.432C403.379 309.167 404.087 308.686 404.691 307.987C405.314 307.289 405.626 306.354 405.626 305.184C405.626 304.504 405.475 303.862 405.173 303.258C404.89 302.654 404.437 302.172 403.813 301.813C403.209 301.436 402.615 301.143 402.029 300.936C401.066 300.577 400.104 300.284 399.141 300.058C398.197 299.812 396.951 299.444 395.402 298.953C394.364 298.632 393.382 298.179 392.457 297.594C391.532 296.99 390.72 296.178 390.021 295.158C389.342 294.139 389.002 292.732 389.002 290.938C389.002 289.107 389.559 287.531 390.673 286.209C391.787 284.887 393.184 283.991 394.864 283.519C396.545 283.028 398.178 282.782 399.764 282.782C402.105 282.782 403.983 283.056 405.399 283.604C406.834 284.132 408.071 284.765 409.109 285.501C409.714 285.935 409.799 286.436 409.364 287.002L408.09 288.701C407.693 289.249 407.08 289.23 406.249 288.645C405.55 288.154 404.559 287.691 403.275 287.257C401.992 286.823 400.868 286.605 399.905 286.605C398.716 286.605 397.696 286.738 396.847 287.002C395.997 287.266 395.308 287.719 394.779 288.361C394.251 289.003 393.986 289.758 393.986 290.627C393.986 291.288 394.09 291.882 394.298 292.411C394.506 292.921 394.893 293.393 395.459 293.827C396.025 294.261 396.818 294.611 397.838 294.875C399.424 295.29 400.868 295.668 402.171 296.008C403.493 296.348 404.682 296.763 405.739 297.254C407.118 297.896 408.175 298.604 408.911 299.378C409.666 300.152 410.186 300.992 410.469 301.898C410.752 302.786 410.894 303.777 410.894 304.872C410.894 306.892 410.289 308.601 409.081 309.998C407.892 311.395 406.561 312.33 405.088 312.802C403.615 313.255 401.84 313.481 399.764 313.481C396.951 313.481 394.534 313.085 392.514 312.292C390.512 311.48 389.219 310.791 388.634 310.225Z" fill="white"/>
<path d="M414.915 298.132C414.915 293.45 416.086 289.721 418.427 286.945C420.768 284.17 424.119 282.782 428.48 282.782C432.105 282.782 435.107 284.057 437.486 286.605C439.884 289.135 441.083 293.185 441.083 298.755C441.083 299.604 440.696 300.029 439.922 300.029H420.183C420.504 303.673 421.485 306.213 423.128 307.647C424.771 309.063 426.63 309.771 428.707 309.771C430.897 309.771 432.577 309.403 433.748 308.667C434.919 307.931 435.778 307.204 436.325 306.486C436.929 305.693 437.515 305.542 438.081 306.033L439.752 307.478C440.186 307.855 440.186 308.374 439.752 309.035C439.393 309.583 438.364 310.461 436.665 311.669C434.985 312.877 432.332 313.481 428.707 313.481C423.987 313.481 420.504 312.094 418.257 309.318C416.029 306.543 414.915 302.814 414.915 298.132ZM420.069 296.348H436.07C435.995 293.704 435.315 291.392 434.031 289.409C432.747 287.408 430.859 286.407 428.367 286.407C426.177 286.407 424.317 287.144 422.788 288.616C421.259 290.07 420.353 292.647 420.069 296.348Z" fill="white"/>
<path d="M449.211 273.946C449.211 272.908 449.683 272.389 450.627 272.389H453.572C454.516 272.389 454.988 272.908 454.988 273.946L454.394 300.681C454.394 301.53 453.969 301.955 453.119 301.955H451.08C450.23 301.955 449.806 301.53 449.806 300.681L449.211 273.946ZM450.514 313C449.664 313 449.239 312.575 449.239 311.726V308.271C449.239 307.421 449.664 306.996 450.514 306.996H453.686C454.535 306.996 454.96 307.421 454.96 308.271V311.726C454.96 312.575 454.535 313 453.686 313H450.514Z" fill="white"/>
</svg>
