<svg width="2578" height="2578" viewBox="0 0 2578 2578" fill="none" xmlns="http://www.w3.org/2000/svg">
<path d="M1975.59 686.486C1958.32 653.013 1940.21 620.04 1919.61 588.625C1681.86 226.065 1045.12 28.6933 729.61 403.442C654.41 492.759 628.202 600.69 577.591 703.124C462.473 936.098 247.39 1075.38 112.53 1291.11C7.99177 1458.34 21.9284 1672.66 80.2428 1853.44C143.615 2049.89 255.139 2187.08 433.527 2291.37C633.512 2408.29 847.409 2375.83 1063.57 2335.14C1160.79 2316.84 1261.02 2298.18 1360.43 2305.16C1484.88 2313.9 1607.75 2349.13 1731.22 2366.25C1859.63 2384.05 1992.86 2388.26 2116.56 2349.46C2512.69 2225.2 2606.54 1642.9 2443.64 1309.33C2385.97 1191.26 2288.25 1100.17 2197.5 1007.75C2099.54 907.977 2039.5 810.338 1975.59 686.486Z" fill="#92E3A9"/>
<path opacity="0.7" d="M1975.59 686.486C1958.32 653.013 1940.21 620.04 1919.61 588.625C1681.86 226.065 1045.12 28.6933 729.61 403.442C654.41 492.759 628.202 600.69 577.591 703.124C462.473 936.098 247.39 1075.38 112.53 1291.11C7.99177 1458.34 21.9284 1672.66 80.2428 1853.44C143.615 2049.89 255.139 2187.08 433.527 2291.37C633.512 2408.29 847.409 2375.83 1063.57 2335.14C1160.79 2316.84 1261.02 2298.18 1360.43 2305.16C1484.88 2313.9 1607.75 2349.13 1731.22 2366.25C1859.63 2384.05 1992.86 2388.26 2116.56 2349.46C2512.69 2225.2 2606.54 1642.9 2443.64 1309.33C2385.97 1191.26 2288.25 1100.17 2197.5 1007.75C2099.54 907.977 2039.5 810.338 1975.59 686.486Z" fill="white"/>
<path d="M2313.48 2398.16H2409.93" stroke="#263238" stroke-miterlimit="10" stroke-linecap="round" stroke-linejoin="round"/>
<path d="M196.397 2398.16H2269.39" stroke="#263238" stroke-miterlimit="10" stroke-linecap="round" stroke-linejoin="round"/>
<path d="M1594.79 2255.25C1740.86 2255.25 1859.27 2136.83 1859.27 1990.76C1859.27 1844.69 1740.86 1726.27 1594.79 1726.27C1448.71 1726.27 1330.3 1844.69 1330.3 1990.76C1330.3 2136.83 1448.71 2255.25 1594.79 2255.25Z" stroke="#263238" stroke-miterlimit="10" stroke-linecap="round" stroke-linejoin="round"/>
<path d="M1832.5 2045.77C1862.85 1914.48 1781.02 1783.45 1649.73 1753.1C1518.44 1722.75 1387.4 1804.58 1357.06 1935.87C1326.71 2067.16 1408.54 2198.2 1539.83 2228.54C1671.12 2258.89 1802.16 2177.06 1832.5 2045.77Z" stroke="#263238" stroke-miterlimit="10" stroke-linecap="round" stroke-linejoin="round"/>
<path d="M1809.27 1956.05H1380.31V2030.43H1809.27V1956.05Z" stroke="#263238" stroke-miterlimit="10"/>
<path d="M446.149 1467.15C592.221 1467.15 710.636 1348.73 710.636 1202.66C710.636 1056.59 592.221 938.171 446.149 938.171C300.076 938.171 181.661 1056.59 181.661 1202.66C181.661 1348.73 300.076 1467.15 446.149 1467.15Z" stroke="#263238" stroke-miterlimit="10" stroke-linecap="round" stroke-linejoin="round"/>
<path d="M618.666 1375.18C713.95 1279.89 713.95 1125.41 618.666 1030.12C523.382 934.84 368.896 934.841 273.612 1030.12C178.328 1125.41 178.328 1279.89 273.612 1375.18C368.896 1470.46 523.382 1470.46 618.666 1375.18Z" stroke="#263238" stroke-miterlimit="10" stroke-linecap="round" stroke-linejoin="round"/>
<path d="M660.628 1167.94H231.669V1242.33H660.628V1167.94Z" stroke="#263238" stroke-miterlimit="10"/>
<path d="M2293.71 690.172C2357.42 690.172 2409.06 638.528 2409.06 574.822C2409.06 511.116 2357.42 459.472 2293.71 459.472C2230.01 459.472 2178.36 511.116 2178.36 574.822C2178.36 638.528 2230.01 690.172 2293.71 690.172Z" stroke="#263238" stroke-miterlimit="10" stroke-linecap="round" stroke-linejoin="round"/>
<path d="M2293.71 681.231C2352.48 681.231 2400.12 633.59 2400.12 574.822C2400.12 516.053 2352.48 468.412 2293.71 468.412C2234.95 468.412 2187.3 516.053 2187.3 574.822C2187.3 633.59 2234.95 681.231 2293.71 681.231Z" stroke="#263238" stroke-miterlimit="10" stroke-linecap="round" stroke-linejoin="round"/>
<path d="M2387.25 559.684H2200.17V592.125H2387.25V559.684Z" stroke="#263238" stroke-miterlimit="10"/>
<path d="M1605.27 294.972L1378.48 68.1841L1151.69 294.972L1378.48 521.759L1605.27 294.972Z" stroke="#263238" stroke-miterlimit="10"/>
<path d="M1589 294.971L1378.48 84.4507L1167.96 294.971L1378.48 505.49L1589 294.971Z" stroke="#263238" stroke-width="0.5" stroke-miterlimit="10"/>
<path d="M550.492 1884.93L323.705 1658.14L96.9174 1884.93L323.705 2111.71L550.492 1884.93Z" stroke="#263238" stroke-miterlimit="10"/>
<path d="M534.224 1884.93L323.704 1674.41L113.184 1884.93L323.704 2095.45L534.224 1884.93Z" stroke="#263238" stroke-width="0.5" stroke-miterlimit="10"/>
<path d="M2459.12 1622.07L2302.66 1465.61L2146.2 1622.07L2302.66 1778.53L2459.12 1622.07Z" stroke="#263238" stroke-miterlimit="10"/>
<path d="M2447.9 1622.07L2302.66 1476.83L2157.42 1622.07L2302.66 1767.31L2447.9 1622.07Z" stroke="#263238" stroke-width="0.5" stroke-miterlimit="10"/>
<path d="M1136.79 2367.82C1134.15 2363.86 1090.61 2326.92 1090.61 2326.92C1090.61 2326.92 1064.23 2279.43 1065.54 2275.47C1066.86 2271.51 1069.5 2257 1073.46 2242.48C1077.42 2227.97 1062.9 2214.78 1062.9 2214.78C1062.9 2214.78 1066.86 2055.52 1072.14 2027.81C1077.41 2000.11 1073.46 1951.29 1068.18 1932.82C1062.9 1914.35 1049.71 1849.7 1049.71 1849.7C1049.71 1849.7 1060.26 1828.6 1061.58 1815.4C1062.9 1802.21 1066.86 1596.94 1068.18 1587.7C1069.5 1578.47 1051.03 1562.63 1051.03 1562.63L1023.33 1285.59L832.034 1297.46L640.736 1285.59L613.033 1562.63C613.033 1562.63 594.564 1578.46 595.884 1587.7C597.204 1596.94 601.159 1802.21 602.479 1815.4C603.799 1828.6 614.353 1849.7 614.353 1849.7C614.353 1849.7 601.159 1914.35 595.884 1932.82C590.61 1951.29 586.65 2000.1 591.924 2027.81C597.199 2055.51 601.159 2214.78 601.159 2214.78C601.159 2214.78 586.645 2227.97 590.604 2242.48C594.564 2256.99 597.199 2271.51 598.519 2275.47C599.839 2279.43 573.45 2326.92 573.45 2326.92C573.45 2326.92 529.913 2363.86 527.273 2367.82C524.633 2371.78 531.233 2398.16 531.233 2398.16H681.628C681.628 2398.16 690.863 2383.64 689.543 2359.9C688.223 2336.15 684.268 2315.04 684.268 2315.04L686.908 2288.66C686.908 2288.66 704.057 2272.83 704.057 2264.91C704.057 2257 693.503 2221.38 694.823 2216.1C696.142 2210.83 747.594 1949.97 748.914 1934.14C750.234 1918.31 750.234 1877.41 751.554 1862.9C752.874 1848.39 756.829 1832.56 756.829 1832.56L820.155 1507.23H832.029H843.903L907.229 1832.56C907.229 1832.56 911.189 1848.39 912.504 1862.9C913.824 1877.42 913.824 1918.32 915.144 1934.14C916.464 1949.97 967.915 2210.83 969.235 2216.1C970.555 2221.38 960.001 2257 960.001 2264.91C960.001 2272.83 977.15 2288.66 977.15 2288.66L979.795 2315.04C979.795 2315.04 975.835 2336.15 974.52 2359.9C973.2 2383.65 982.435 2398.16 982.435 2398.16H1132.83C1132.83 2398.16 1139.42 2371.78 1136.79 2367.82Z" fill="#263238" stroke="#263238" stroke-miterlimit="10" stroke-linecap="round" stroke-linejoin="round"/>
<path d="M741.087 786.037C741.087 786.037 601.154 824.114 601.154 826.97C601.154 829.827 645.892 1308.64 645.892 1308.64H1020.95L1046.65 789.842C1046.65 789.842 1028.57 777.468 1023.81 775.565C1019.05 773.662 912.432 777.468 912.432 777.468L741.087 786.037Z" fill="#263238" stroke="#263238" stroke-miterlimit="10" stroke-linecap="round" stroke-linejoin="round"/>
<path d="M1025.21 1274.36H640.288V1322.96H1025.21V1274.36Z" fill="#696969" stroke="#263238" stroke-miterlimit="10" stroke-linecap="round" stroke-linejoin="round"/>
<path d="M829.616 901.222C851.508 908.838 921.955 778.422 921.955 778.422L922.372 777.128C916.216 777.334 912.437 777.468 912.437 777.468L741.093 786.037C741.093 786.037 807.724 893.607 829.616 901.222Z" fill="#92E3A9" stroke="#263238" stroke-miterlimit="10" stroke-linecap="round" stroke-linejoin="round"/>
<path d="M754.416 696.555L746.8 772.709L831.524 859.335L908.627 767.95L890.539 696.555H754.416Z" fill="white" stroke="#263238" stroke-miterlimit="10" stroke-linecap="round" stroke-linejoin="round"/>
<path d="M732.25 601.494C732.25 601.494 721.221 593.616 716.493 608.583C711.765 623.551 716.493 636.158 720.433 642.458C724.372 648.759 734.612 663.732 734.612 663.732L732.25 601.494Z" fill="white" stroke="#263238" stroke-miterlimit="10" stroke-linecap="round" stroke-linejoin="round"/>
<path d="M909.508 601.494C909.508 601.494 920.537 593.616 925.265 608.583C929.993 623.551 925.265 636.158 921.326 642.458C917.387 648.759 907.147 663.732 907.147 663.732L909.508 601.494Z" fill="white" stroke="#263238" stroke-miterlimit="10" stroke-linecap="round" stroke-linejoin="round"/>
<path d="M732.25 585.737C732.25 585.737 733.828 673.188 738.551 687.367C743.279 701.546 791.338 744.093 802.366 749.605C813.395 755.122 839.392 754.333 850.426 749.605C861.459 744.877 897.696 707.852 905.574 685.006C913.452 662.159 905.574 582.587 905.574 582.587C905.574 582.587 889.028 542.406 852.792 524.288C816.551 506.17 780.309 522.71 762.98 536.894C745.64 551.073 732.25 585.737 732.25 585.737Z" fill="white" stroke="#263238" stroke-miterlimit="10" stroke-linecap="round" stroke-linejoin="round"/>
<path d="M750.368 597.555C740.912 599.132 737.762 603.86 739.339 607.011C740.917 610.161 739.339 624.345 746.429 631.435C753.518 638.524 759.824 642.463 776.365 642.463C792.905 642.463 800 640.102 803.15 636.947C806.3 633.796 818.118 609.372 818.118 609.372L821.268 599.921H810.24C810.24 599.921 759.824 595.977 750.368 597.555Z" fill="#263238" stroke="#263238" stroke-miterlimit="10" stroke-linecap="round" stroke-linejoin="round"/>
<path d="M892.179 597.555C882.728 595.977 832.302 599.921 832.302 599.921H821.273L824.424 609.372C824.424 609.372 836.241 633.796 839.392 636.947C842.542 640.097 849.631 642.463 866.177 642.463C882.723 642.463 889.023 638.524 896.113 631.435C903.202 624.345 901.63 610.161 903.202 607.011C904.785 603.86 901.63 599.132 892.179 597.555Z" fill="#263238" stroke="#263238" stroke-miterlimit="10" stroke-linecap="round" stroke-linejoin="round"/>
<path d="M803.939 662.159C803.939 662.159 812.606 674.766 824.424 675.554C836.241 676.343 841.758 661.375 841.758 661.375" stroke="#263238" stroke-miterlimit="10" stroke-linecap="round" stroke-linejoin="round"/>
<path d="M752.735 590.465C752.735 590.465 770.853 584.165 798.427 592.827" stroke="#263238" stroke-miterlimit="10" stroke-linecap="round" stroke-linejoin="round"/>
<path d="M837.03 592.826C837.03 592.826 863.816 581.798 883.512 588.887" stroke="#263238" stroke-miterlimit="10" stroke-linecap="round" stroke-linejoin="round"/>
<path d="M908.977 639.421C882.991 651.486 873.267 701.546 873.267 701.546C873.267 701.546 838.603 678.7 824.424 675.549C810.245 672.399 775.581 703.913 775.581 703.913C775.581 703.913 771.642 696.823 759.035 673.977C750.327 658.194 739.747 646.176 734.029 640.252C735.024 661.01 736.488 681.175 738.551 687.372C743.279 701.551 791.338 744.099 802.366 749.61C813.395 755.127 839.397 754.338 850.425 749.61C861.454 744.882 897.696 707.857 905.574 685.006C908.704 675.921 909.343 657.87 908.977 639.421Z" fill="#263238" stroke="#263238" stroke-miterlimit="10" stroke-linecap="round" stroke-linejoin="round"/>
<path d="M809.456 696.823H836.242" stroke="white" stroke-miterlimit="10" stroke-linecap="round" stroke-linejoin="round"/>
<path d="M729.884 593.615C729.884 593.615 754.308 588.887 774.792 573.919C795.277 558.952 801.578 541.617 819.701 541.617C837.819 541.617 856.731 559.735 866.971 571.553C877.211 583.37 900.846 592.038 904.785 592.038C908.725 592.038 908.725 592.038 908.725 592.038C908.725 592.038 900.057 517.982 894.546 503.014C889.029 488.046 848.064 464.411 813.4 464.411C778.737 464.411 743.284 491.197 737.767 499.864C732.25 508.531 729.884 593.615 729.884 593.615Z" fill="#92E3A9" stroke="#263238" stroke-miterlimit="10" stroke-linecap="round" stroke-linejoin="round"/>
<path d="M819.696 541.617C837.814 541.617 856.726 559.735 866.966 571.553C877.206 583.37 900.841 592.038 904.78 592.038C908.719 592.038 908.719 592.038 908.719 592.038C889.812 503.014 812.606 514.043 812.606 514.043C740.129 529.8 729.884 593.615 729.884 593.615C729.884 593.615 754.308 588.887 774.792 573.919C795.277 558.952 801.578 541.617 819.696 541.617Z" fill="#92E3A9" stroke="#263238" stroke-miterlimit="10" stroke-linecap="round" stroke-linejoin="round"/>
<path d="M747.754 755.575L811.529 813.642L787.734 868.853L729.667 787.939L747.754 755.575Z" fill="#92E3A9" stroke="#263238" stroke-miterlimit="10" stroke-linecap="round" stroke-linejoin="round"/>
<path d="M906.724 755.575L842.944 813.642L866.744 868.853L924.811 787.939L906.724 755.575Z" fill="#92E3A9" stroke="#263238" stroke-miterlimit="10" stroke-linecap="round" stroke-linejoin="round"/>
<path d="M652.832 1270.67L664.644 1304.27C664.644 1304.27 651.198 1311.74 639.251 1315.48C627.3 1319.21 615.152 1325.66 615.152 1325.66C615.152 1325.66 606.387 1289.33 603.402 1272.15C600.416 1254.98 621.468 1248.48 627.372 1247.25C633.275 1246.01 652.832 1270.67 652.832 1270.67Z" fill="#263238" stroke="#263238" stroke-miterlimit="10" stroke-linecap="round" stroke-linejoin="round"/>
<path d="M456.28 1029.31C456.28 1029.31 413.506 1069.02 416.564 1081.25C419.616 1093.47 540.808 1253.36 540.808 1253.36C540.808 1253.36 548.954 1285.95 554.048 1294.1C559.143 1302.25 577.472 1309.38 577.472 1309.38C577.472 1309.38 591.728 1325.67 595.802 1327.71C599.875 1329.74 614.131 1328.73 615.152 1325.67C616.168 1322.62 613.116 1309.38 609.042 1296.14C604.969 1282.9 605.985 1269.66 608.021 1265.58C610.058 1261.51 624.314 1246.23 627.372 1247.25C630.424 1248.27 641.628 1261.51 644.686 1268.64C647.738 1275.77 650.796 1276.79 652.832 1270.68C654.869 1264.57 645.701 1228.92 643.665 1223.83C641.628 1218.73 593.765 1203.46 582.561 1198.37C571.357 1193.27 558.122 1184.11 558.122 1184.11L541.829 1113.84L456.28 1029.31Z" fill="white" stroke="#263238" stroke-miterlimit="10" stroke-linecap="round" stroke-linejoin="round"/>
<path d="M663.031 808.884C663.031 808.884 703.263 884.976 664.072 975.015C634.951 1041.92 568.795 1118.26 568.795 1118.26C568.795 1118.26 523.102 1120.16 493.594 1092.56C464.086 1064.95 444.097 1033.54 444.097 1033.54C444.097 1033.54 587.836 838.392 601.164 826.966C614.482 815.545 663.031 808.884 663.031 808.884Z" fill="#92E3A9" stroke="#263238" stroke-miterlimit="10" stroke-linecap="round" stroke-linejoin="round"/>
<path d="M606.846 913.551L622.34 1048.34L589.805 938.341" stroke="#263238" stroke-miterlimit="10" stroke-linecap="round" stroke-linejoin="round"/>
<path d="M1046.66 789.842C1046.66 789.842 1028.57 777.467 1023.81 775.565C1021.65 774.699 998.454 775.013 973.793 775.616C968.534 787.846 961.326 813.297 961.934 860.288C962.837 929.822 969.777 1017.31 1033.06 1064.32L1046.66 789.842Z" fill="#92E3A9" stroke="#263238" stroke-miterlimit="10" stroke-linecap="round" stroke-linejoin="round"/>
<path d="M1095.21 977.377C1095.21 977.377 1127.36 944.992 1137.99 907.807C1148.61 870.622 1056.97 887.884 1056.97 887.884C1056.97 887.884 1069.69 940.697 1095.21 977.377Z" fill="#263238" stroke="#263238" stroke-miterlimit="10" stroke-linecap="round" stroke-linejoin="round"/>
<path d="M975.263 861.237C967.647 927.873 1021.91 957.381 1021.91 957.381L1095.21 977.371C1095.21 977.371 1060.94 926.92 1061.89 875.514C1062.84 824.109 1082.83 792.699 1082.83 792.699L1046.66 789.842L1021.91 786.037C1021.91 786.037 1016.2 790.796 1010.49 805.073" fill="#92E3A9"/>
<path d="M975.263 861.237C967.647 927.873 1021.91 957.381 1021.91 957.381L1095.21 977.371C1095.21 977.371 1060.94 926.92 1061.89 875.514C1062.84 824.109 1082.83 792.699 1082.83 792.699L1046.66 789.842L1021.91 786.037C1021.91 786.037 1016.2 790.796 1010.49 805.073" stroke="#263238" stroke-miterlimit="10" stroke-linecap="round" stroke-linejoin="round"/>
<path d="M1077.12 784.135C1077.12 784.135 1059.03 769.858 1045.7 760.335C1032.38 750.817 1028.57 742.247 1019.05 722.258C1009.53 702.268 1008.58 695.606 994.299 685.134C980.022 674.663 986.683 672.76 990.494 670.857C994.299 668.955 1012.39 668.955 1020.96 673.714C1029.52 678.473 1040.95 695.606 1040.95 695.606L1054.27 698.463L1084.25 585.835C1085.03 582.875 1088.12 581.153 1091.05 582.03C1093.48 582.757 1095.08 585.072 1094.91 587.604L1089.49 666.093L1097.11 667.996L1129.44 579.096C1130.49 576.188 1133.77 574.75 1136.62 575.941L1138.81 576.853C1141.15 577.828 1142.5 580.282 1142.07 582.772L1126.62 673.704L1166.1 600.122C1167.45 597.601 1170.52 596.565 1173.12 597.745L1174.62 598.426C1177.11 599.555 1178.37 602.35 1177.57 604.959L1153.26 684.17L1186.29 651.992C1188.51 649.821 1192.11 649.965 1194.16 652.306L1194.54 652.734C1196.05 654.461 1196.31 656.947 1195.19 658.952L1164.69 713.678C1164.69 713.678 1154.22 753.658 1153.27 760.324C1152.31 766.986 1149.46 774.601 1149.46 774.601C1149.46 774.601 1175.16 831.714 1173.26 860.273C1171.36 888.833 1157.07 922.151 1151.37 925.002C1145.65 927.858 1125.66 931.663 1103.77 927.858C1081.88 924.048 1066.65 916.438 1066.65 916.438C1066.65 916.438 1048.56 844.089 1082.83 792.689L1077.12 784.135Z" fill="white" stroke="#263238" stroke-miterlimit="10" stroke-linecap="round" stroke-linejoin="round"/>
<path d="M1089.49 775.566C1089.49 775.566 1113.29 780.325 1121.86 781.279C1130.43 782.233 1149.46 774.617 1149.46 774.617" stroke="#263238" stroke-miterlimit="10" stroke-linecap="round" stroke-linejoin="round"/>
<path d="M1060.93 704.17C1060.93 704.17 1073.31 708.929 1077.12 712.74C1080.92 716.55 1089.49 733.683 1092.35 741.299" stroke="#263238" stroke-miterlimit="10" stroke-linecap="round" stroke-linejoin="round"/>
<path d="M1078.07 662.288L1158.03 690.842" stroke="#263238" stroke-miterlimit="10" stroke-linecap="round" stroke-linejoin="round"/>
<path d="M669.125 1293.81L583.231 1331.9L601.164 1468.46C602.082 1475.45 606.732 1481.39 613.301 1483.95C623.984 1488.11 635.921 1482.12 638.963 1471.07L684.815 1304.27L669.125 1293.81Z" fill="#696969" stroke="#263238" stroke-miterlimit="10" stroke-linecap="round" stroke-linejoin="round"/>
<path d="M686.857 1300.36L680.144 1409.47L707.362 1417.24C707.362 1417.24 756.937 1307.41 756.937 1301.58C756.937 1298.5 747.192 1288.65 737.984 1280.04C728.605 1271.26 714.725 1269.32 703.299 1275.2C693.761 1280.1 687.511 1289.66 686.857 1300.36Z" fill="#696969" stroke="#263238" stroke-miterlimit="10" stroke-linecap="round" stroke-linejoin="round"/>
<path d="M894.473 1387.11C884.007 1387.11 875.52 1378.63 875.52 1368.16V1285.53C875.52 1275.07 884.007 1266.58 894.473 1266.58C904.94 1266.58 913.427 1275.07 913.427 1285.53V1368.16C913.427 1378.63 904.94 1387.11 894.473 1387.11Z" fill="#696969" stroke="#263238" stroke-miterlimit="10" stroke-linecap="round" stroke-linejoin="round"/>
<path d="M932.385 1387.11C921.919 1387.11 913.432 1378.63 913.432 1368.16V1285.53C913.432 1275.07 921.919 1266.58 932.385 1266.58C942.852 1266.58 951.339 1275.07 951.339 1285.53V1368.16C951.339 1378.63 942.852 1387.11 932.385 1387.11Z" fill="#696969" stroke="#263238" stroke-miterlimit="10" stroke-linecap="round" stroke-linejoin="round"/>
<path d="M970.292 1387.11C959.826 1387.11 951.339 1378.63 951.339 1368.16V1285.53C951.339 1275.07 959.826 1266.58 970.292 1266.58C980.759 1266.58 989.246 1275.07 989.246 1285.53V1368.16C989.246 1378.63 980.759 1387.11 970.292 1387.11Z" fill="#696969" stroke="#263238" stroke-miterlimit="10" stroke-linecap="round" stroke-linejoin="round"/>
<path d="M1043.78 1420.16H1017.33C1010.41 1420.16 1004.8 1414.55 1004.8 1407.62V1280.09C1004.8 1273.16 1010.41 1267.55 1017.33 1267.55H1043.78C1050.71 1267.55 1056.31 1273.16 1056.31 1280.09V1407.62C1056.31 1414.55 1050.71 1420.16 1043.78 1420.16Z" fill="#263238" stroke="#263238" stroke-miterlimit="10" stroke-linecap="round" stroke-linejoin="round"/>
<path d="M1071.12 1169.11C1067.22 1167.38 1062.65 1169.14 1060.91 1173.04C1058.11 1179.35 1055.06 1188.21 1051.84 1199.39C1051.21 1201.6 1051.63 1203.85 1052.77 1205.65C1045.05 1233.82 1038.78 1266.23 1038.72 1266.58C1038.18 1269.37 1040.01 1272.08 1042.81 1272.61C1043.14 1272.68 1043.46 1272.71 1043.79 1272.71C1046.21 1272.71 1048.37 1270.99 1048.84 1268.53C1048.91 1268.18 1055.11 1236.11 1062.72 1208.34C1064.57 1207.41 1066.09 1205.82 1066.71 1203.66C1069.73 1193.17 1072.54 1184.97 1075.05 1179.32C1076.78 1175.42 1075.03 1170.85 1071.12 1169.11Z" fill="#263238" stroke="#263238" stroke-miterlimit="10" stroke-linecap="round" stroke-linejoin="round"/>
<path d="M865.017 1272.4H781.902V1322.53H865.017V1272.4Z" fill="white" stroke="#263238" stroke-miterlimit="10"/>
<path d="M851.106 1280.79H795.808V1314.14H851.106V1280.79Z" fill="#696969" stroke="#263238" stroke-miterlimit="10" stroke-linecap="round" stroke-linejoin="round"/>
<path d="M1784.48 1660.31C2087.09 1660.31 2332.4 1415 2332.4 1112.39C2332.4 809.774 2087.09 564.458 1784.48 564.458C1481.86 564.458 1236.55 809.774 1236.55 1112.39C1236.55 1415 1481.86 1660.31 1784.48 1660.31Z" fill="#263238" stroke="#263238" stroke-miterlimit="10" stroke-linecap="round" stroke-linejoin="round"/>
<path d="M1784.48 1617.85C2063.64 1617.85 2289.94 1391.55 2289.94 1112.39C2289.94 833.223 2063.64 606.917 1784.48 606.917C1505.31 606.917 1279.01 833.223 1279.01 1112.39C1279.01 1391.55 1505.31 1617.85 1784.48 1617.85Z" stroke="#92E3A9" stroke-miterlimit="10" stroke-linecap="round" stroke-linejoin="round"/>
<path d="M2228.8 1040.47H1340.15V1194.57H2228.8V1040.47Z" fill="#92E3A9"/>
<path d="M742.64 992V963.2H745.92V992H742.64ZM762.155 992V966.44H749.355V963.2H778.155V966.44H765.395V992H762.155ZM781.226 992V968C781.226 967.12 781.44 966.32 781.866 965.6C782.293 964.853 782.866 964.267 783.586 963.84C784.333 963.413 785.146 963.2 786.026 963.2H805.226C806.106 963.2 806.906 963.413 807.626 963.84C808.373 964.267 808.96 964.853 809.386 965.6C809.813 966.32 810.026 967.12 810.026 968V992H806.786V981.48H784.466V992H781.226ZM784.466 978.24H806.786V968C806.786 967.573 806.626 967.213 806.306 966.92C806.013 966.6 805.653 966.44 805.226 966.44H786.026C785.6 966.44 785.226 966.6 784.906 966.92C784.613 967.213 784.466 967.573 784.466 968V978.24ZM838.184 992V990.56L843.304 987.08V988.76H847.064V992H838.184ZM819.304 992C818.424 992 817.61 991.787 816.864 991.36C816.144 990.933 815.57 990.36 815.144 989.64C814.717 988.893 814.504 988.08 814.504 987.2V968C814.504 967.12 814.717 966.32 815.144 965.6C815.57 964.853 816.144 964.267 816.864 963.84C817.61 963.413 818.424 963.2 819.304 963.2H838.504C839.384 963.2 840.184 963.413 840.904 963.84C841.65 964.267 842.237 964.853 842.664 965.6C843.09 966.32 843.304 967.12 843.304 968V987.2C843.304 988.08 843.09 988.893 842.664 989.64C842.237 990.36 841.65 990.933 840.904 991.36C840.184 991.787 839.384 992 838.504 992H819.304ZM819.304 988.76H838.504C838.93 988.76 839.29 988.613 839.584 988.32C839.904 988 840.064 987.627 840.064 987.2V968C840.064 967.573 839.904 967.213 839.584 966.92C839.29 966.6 838.93 966.44 838.504 966.44H819.304C818.877 966.44 818.504 966.6 818.184 966.92C817.89 967.213 817.744 967.573 817.744 968V987.2C817.744 987.627 817.89 988 818.184 988.32C818.504 988.613 818.877 988.76 819.304 988.76ZM854.655 992C853.775 992 852.962 991.787 852.215 991.36C851.495 990.933 850.922 990.36 850.495 989.64C850.069 988.893 849.855 988.08 849.855 987.2V963.2H853.095V987.2C853.095 987.627 853.242 988 853.535 988.32C853.855 988.613 854.229 988.76 854.655 988.76H873.855C874.282 988.76 874.642 988.613 874.935 988.32C875.255 988 875.415 987.627 875.415 987.2V963.2H878.655V987.2C878.655 988.08 878.442 988.893 878.015 989.64C877.589 990.36 877.002 990.933 876.255 991.36C875.535 991.787 874.735 992 873.855 992H854.655ZM883.14 992V968C883.14 967.12 883.354 966.32 883.78 965.6C884.207 964.853 884.78 964.267 885.5 963.84C886.247 963.413 887.06 963.2 887.94 963.2H907.14C908.02 963.2 908.82 963.413 909.54 963.84C910.287 964.267 910.874 964.853 911.3 965.6C911.727 966.32 911.94 967.12 911.94 968V992H908.7V981.48H886.38V992H883.14ZM886.38 978.24H908.7V968C908.7 967.573 908.54 967.213 908.22 966.92C907.927 966.6 907.567 966.44 907.14 966.44H887.94C887.514 966.44 887.14 966.6 886.82 966.92C886.527 967.213 886.38 967.573 886.38 968V978.24ZM742.32 1042V1018C742.32 1017.12 742.533 1016.32 742.96 1015.6C743.387 1014.85 743.96 1014.27 744.68 1013.84C745.427 1013.41 746.24 1013.2 747.12 1013.2H766.32C767.2 1013.2 768 1013.41 768.72 1013.84C769.467 1014.27 770.053 1014.85 770.48 1015.6C770.907 1016.32 771.12 1017.12 771.12 1018V1042H767.88V1031.48H745.56V1042H742.32ZM745.56 1028.24H767.88V1018C767.88 1017.57 767.72 1017.21 767.4 1016.92C767.107 1016.6 766.747 1016.44 766.32 1016.44H747.12C746.693 1016.44 746.32 1016.6 746 1016.92C745.707 1017.21 745.56 1017.57 745.56 1018V1028.24ZM775.718 1042V1013.16H778.958V1038.76H804.518V1042H775.718ZM806.929 1042V1013.2H833.209V1016.44H810.169V1025.96H828.689V1029.24H810.169V1038.76H833.209V1042H806.929ZM861.794 1042L852.394 1030.8H856.634L866.074 1041.96V1042H861.794ZM837.474 1042V1013.24H861.474C862.354 1013.24 863.154 1013.47 863.874 1013.92C864.621 1014.35 865.208 1014.92 865.634 1015.64C866.061 1016.36 866.274 1017.16 866.274 1018.04V1026.48C866.274 1027.36 866.061 1028.16 865.634 1028.88C865.208 1029.6 864.621 1030.19 863.874 1030.64C863.154 1031.07 862.354 1031.28 861.474 1031.28H840.714V1042H837.474ZM842.274 1028H861.474C861.901 1028 862.261 1027.85 862.554 1027.56C862.874 1027.27 863.034 1026.91 863.034 1026.48V1018.04C863.034 1017.61 862.874 1017.25 862.554 1016.96C862.261 1016.64 861.901 1016.48 861.474 1016.48H842.274C841.848 1016.48 841.474 1016.64 841.154 1016.96C840.861 1017.25 840.714 1017.61 840.714 1018.04V1026.48C840.714 1026.91 840.861 1027.27 841.154 1027.56C841.474 1027.85 841.848 1028 842.274 1028ZM881.842 1042V1016.44H869.042V1013.2H897.842V1016.44H885.082V1042H881.842ZM900.914 1042V1018C900.914 1017.12 901.127 1016.32 901.554 1015.6C901.98 1014.85 902.554 1014.27 903.274 1013.84C904.02 1013.41 904.834 1013.2 905.714 1013.2H924.914C925.794 1013.2 926.594 1013.41 927.314 1013.84C928.06 1014.27 928.647 1014.85 929.074 1015.6C929.5 1016.32 929.714 1017.12 929.714 1018V1042H926.474V1031.48H904.154V1042H900.914ZM904.154 1028.24H926.474V1018C926.474 1017.57 926.314 1017.21 925.994 1016.92C925.7 1016.6 925.34 1016.44 924.914 1016.44H905.714C905.287 1016.44 904.914 1016.6 904.594 1016.92C904.3 1017.21 904.154 1017.57 904.154 1018V1028.24Z" fill="white"/>
<path d="M1559.6 964V824H1586.4L1669 924.8H1656V824H1688V964H1661.4L1578.6 863.2H1591.6V964H1559.6ZM1702.72 964L1765.12 824H1797.12L1859.72 964H1825.72L1774.52 840.4H1787.32L1735.92 964H1702.72ZM1733.92 934L1742.52 909.4H1814.52L1823.32 934H1733.92ZM1796.12 813.2C1792.66 813.2 1789.59 812.6 1786.92 811.4C1784.26 810.067 1781.86 808.6 1779.72 807C1777.59 805.267 1775.59 803.8 1773.72 802.6C1771.86 801.267 1769.99 800.6 1768.12 800.6C1765.46 800.6 1763.26 801.6 1761.52 803.6C1759.79 805.467 1758.79 808.2 1758.52 811.8H1742.72C1742.99 802.867 1745.19 795.8 1749.32 790.6C1753.46 785.267 1759.06 782.6 1766.12 782.6C1769.59 782.6 1772.66 783.267 1775.32 784.6C1777.99 785.8 1780.39 787.267 1782.52 789C1784.79 790.733 1786.86 792.267 1788.72 793.6C1790.59 794.8 1792.39 795.4 1794.12 795.4C1796.92 795.4 1799.19 794.467 1800.92 792.6C1802.66 790.6 1803.59 787.933 1803.72 784.6H1819.52C1819.39 793.133 1817.19 800.067 1812.92 805.4C1808.79 810.6 1803.19 813.2 1796.12 813.2ZM1940.3 966.4C1929.23 966.4 1918.96 964.6 1909.5 961C1900.16 957.4 1892.03 952.333 1885.1 945.8C1878.3 939.267 1872.96 931.6 1869.1 922.8C1865.36 914 1863.5 904.4 1863.5 894C1863.5 883.6 1865.36 874 1869.1 865.2C1872.96 856.4 1878.36 848.733 1885.3 842.2C1892.23 835.667 1900.36 830.6 1909.7 827C1919.03 823.4 1929.16 821.6 1940.1 821.6C1951.16 821.6 1961.3 823.4 1970.5 827C1979.83 830.6 1987.9 835.667 1994.7 842.2C2001.63 848.733 2007.03 856.4 2010.9 865.2C2014.76 873.867 2016.7 883.467 2016.7 894C2016.7 904.4 2014.76 914.067 2010.9 923C2007.03 931.8 2001.63 939.467 1994.7 946C1987.9 952.4 1979.83 957.4 1970.5 961C1961.3 964.6 1951.23 966.4 1940.3 966.4ZM1940.1 938.8C1946.36 938.8 1952.1 937.733 1957.3 935.6C1962.63 933.467 1967.3 930.4 1971.3 926.4C1975.3 922.4 1978.36 917.667 1980.5 912.2C1982.76 906.733 1983.9 900.667 1983.9 894C1983.9 887.333 1982.76 881.267 1980.5 875.8C1978.36 870.333 1975.3 865.6 1971.3 861.6C1967.43 857.6 1962.83 854.533 1957.5 852.4C1952.16 850.267 1946.36 849.2 1940.1 849.2C1933.83 849.2 1928.03 850.267 1922.7 852.4C1917.5 854.533 1912.9 857.6 1908.9 861.6C1904.9 865.6 1901.76 870.333 1899.5 875.8C1897.36 881.267 1896.3 887.333 1896.3 894C1896.3 900.533 1897.36 906.6 1899.5 912.2C1901.76 917.667 1904.83 922.4 1908.7 926.4C1912.7 930.4 1917.36 933.467 1922.7 935.6C1928.03 937.733 1933.83 938.8 1940.1 938.8Z" fill="#92E3A9"/>
<path d="M1491.4 1317.4H1558.8V1342.6H1491.4V1317.4ZM1493.8 1375H1570V1401H1461.6V1261H1567.4V1287H1493.8V1375ZM1595.78 1401V1261H1622.58L1705.18 1361.8H1692.18V1261H1724.18V1401H1697.58L1614.78 1300.2H1627.78V1401H1595.78ZM1786.3 1401V1287.4H1741.5V1261H1863.5V1287.4H1818.7V1401H1786.3ZM1880.94 1401V1261H1941.54C1954.07 1261 1964.87 1263.07 1973.94 1267.2C1983 1271.2 1990 1277 1994.94 1284.6C1999.87 1292.2 2002.34 1301.27 2002.34 1311.8C2002.34 1322.2 1999.87 1331.2 1994.94 1338.8C1990 1346.27 1983 1352 1973.94 1356C1964.87 1360 1954.07 1362 1941.54 1362H1898.94L1913.34 1347.8V1401H1880.94ZM1969.94 1401L1934.94 1350.2H1969.54L2004.94 1401H1969.94ZM1913.34 1351.4L1898.94 1336.2H1939.74C1949.74 1336.2 1957.2 1334.07 1962.14 1329.8C1967.07 1325.4 1969.54 1319.4 1969.54 1311.8C1969.54 1304.07 1967.07 1298.07 1962.14 1293.8C1957.2 1289.53 1949.74 1287.4 1939.74 1287.4H1898.94L1913.34 1272V1351.4ZM2057.81 1317.4H2125.21V1342.6H2057.81V1317.4ZM2060.21 1375H2136.41V1401H2028.01V1261H2133.81V1287H2060.21V1375Z" fill="#92E3A9"/>
<path d="M2243.85 1610V1596H2246.53L2254.79 1606.08H2253.49V1596H2256.69V1610H2254.03L2245.75 1599.92H2247.05V1610H2243.85ZM2262.98 1601.64H2269.72V1604.16H2262.98V1601.64ZM2263.22 1607.4H2270.84V1610H2260V1596H2270.58V1598.6H2263.22V1607.4ZM2280.12 1610.24C2279.04 1610.24 2278.03 1610.07 2277.1 1609.72C2276.18 1609.36 2275.38 1608.85 2274.7 1608.2C2274.02 1607.55 2273.49 1606.78 2273.1 1605.9C2272.73 1605.02 2272.54 1604.05 2272.54 1603C2272.54 1601.95 2272.73 1600.98 2273.1 1600.1C2273.49 1599.22 2274.02 1598.45 2274.7 1597.8C2275.39 1597.15 2276.2 1596.65 2277.12 1596.3C2278.04 1595.94 2279.05 1595.76 2280.14 1595.76C2281.35 1595.76 2282.45 1595.97 2283.42 1596.4C2284.41 1596.81 2285.23 1597.43 2285.9 1598.24L2283.82 1600.16C2283.34 1599.61 2282.81 1599.21 2282.22 1598.94C2281.63 1598.66 2280.99 1598.52 2280.3 1598.52C2279.65 1598.52 2279.05 1598.63 2278.5 1598.84C2277.95 1599.05 2277.48 1599.36 2277.08 1599.76C2276.68 1600.16 2276.37 1600.63 2276.14 1601.18C2275.93 1601.73 2275.82 1602.33 2275.82 1603C2275.82 1603.67 2275.93 1604.27 2276.14 1604.82C2276.37 1605.37 2276.68 1605.84 2277.08 1606.24C2277.48 1606.64 2277.95 1606.95 2278.5 1607.16C2279.05 1607.37 2279.65 1607.48 2280.3 1607.48C2280.99 1607.48 2281.63 1607.35 2282.22 1607.08C2282.81 1606.8 2283.34 1606.38 2283.82 1605.82L2285.9 1607.74C2285.23 1608.55 2284.41 1609.17 2283.42 1609.6C2282.45 1610.03 2281.35 1610.24 2280.12 1610.24ZM2291.07 1601.64H2297.81V1604.16H2291.07V1601.64ZM2291.31 1607.4H2298.93V1610H2288.09V1596H2298.67V1598.6H2291.31V1607.4ZM2306.11 1610.24C2304.99 1610.24 2303.91 1610.09 2302.89 1609.8C2301.86 1609.49 2301.03 1609.1 2300.41 1608.62L2301.51 1606.18C2302.11 1606.61 2302.81 1606.96 2303.63 1607.24C2304.45 1607.51 2305.29 1607.64 2306.13 1607.64C2306.77 1607.64 2307.28 1607.58 2307.67 1607.46C2308.07 1607.33 2308.36 1607.15 2308.55 1606.92C2308.73 1606.69 2308.83 1606.43 2308.83 1606.14C2308.83 1605.77 2308.68 1605.47 2308.39 1605.26C2308.09 1605.03 2307.71 1604.85 2307.23 1604.72C2306.75 1604.57 2306.21 1604.44 2305.63 1604.32C2305.05 1604.19 2304.47 1604.03 2303.89 1603.84C2303.31 1603.65 2302.79 1603.41 2302.31 1603.12C2301.83 1602.83 2301.43 1602.44 2301.13 1601.96C2300.83 1601.48 2300.69 1600.87 2300.69 1600.12C2300.69 1599.32 2300.9 1598.59 2301.33 1597.94C2301.77 1597.27 2302.42 1596.75 2303.29 1596.36C2304.17 1595.96 2305.27 1595.76 2306.59 1595.76C2307.47 1595.76 2308.33 1595.87 2309.19 1596.08C2310.04 1596.28 2310.79 1596.59 2311.45 1597L2310.45 1599.46C2309.79 1599.09 2309.14 1598.81 2308.49 1598.64C2307.83 1598.45 2307.19 1598.36 2306.57 1598.36C2305.94 1598.36 2305.43 1598.43 2305.03 1598.58C2304.63 1598.73 2304.34 1598.92 2304.17 1599.16C2303.99 1599.39 2303.91 1599.65 2303.91 1599.96C2303.91 1600.32 2304.05 1600.61 2304.35 1600.84C2304.64 1601.05 2305.03 1601.23 2305.51 1601.36C2305.99 1601.49 2306.51 1601.63 2307.09 1601.76C2307.67 1601.89 2308.25 1602.05 2308.83 1602.22C2309.41 1602.39 2309.95 1602.63 2310.43 1602.92C2310.91 1603.21 2311.29 1603.6 2311.59 1604.08C2311.89 1604.56 2312.05 1605.17 2312.05 1605.9C2312.05 1606.69 2311.83 1607.41 2311.39 1608.06C2310.95 1608.71 2310.29 1609.24 2309.41 1609.64C2308.54 1610.04 2307.44 1610.24 2306.11 1610.24ZM2318.86 1610.24C2317.74 1610.24 2316.67 1610.09 2315.64 1609.8C2314.61 1609.49 2313.79 1609.1 2313.16 1608.62L2314.26 1606.18C2314.86 1606.61 2315.57 1606.96 2316.38 1607.24C2317.21 1607.51 2318.04 1607.64 2318.88 1607.64C2319.52 1607.64 2320.03 1607.58 2320.42 1607.46C2320.82 1607.33 2321.11 1607.15 2321.3 1606.92C2321.49 1606.69 2321.58 1606.43 2321.58 1606.14C2321.58 1605.77 2321.43 1605.47 2321.14 1605.26C2320.85 1605.03 2320.46 1604.85 2319.98 1604.72C2319.5 1604.57 2318.97 1604.44 2318.38 1604.32C2317.81 1604.19 2317.23 1604.03 2316.64 1603.84C2316.07 1603.65 2315.54 1603.41 2315.06 1603.12C2314.58 1602.83 2314.19 1602.44 2313.88 1601.96C2313.59 1601.48 2313.44 1600.87 2313.44 1600.12C2313.44 1599.32 2313.65 1598.59 2314.08 1597.94C2314.52 1597.27 2315.17 1596.75 2316.04 1596.36C2316.92 1595.96 2318.02 1595.76 2319.34 1595.76C2320.22 1595.76 2321.09 1595.87 2321.94 1596.08C2322.79 1596.28 2323.55 1596.59 2324.2 1597L2323.2 1599.46C2322.55 1599.09 2321.89 1598.81 2321.24 1598.64C2320.59 1598.45 2319.95 1598.36 2319.32 1598.36C2318.69 1598.36 2318.18 1598.43 2317.78 1598.58C2317.38 1598.73 2317.09 1598.92 2316.92 1599.16C2316.75 1599.39 2316.66 1599.65 2316.66 1599.96C2316.66 1600.32 2316.81 1600.61 2317.1 1600.84C2317.39 1601.05 2317.78 1601.23 2318.26 1601.36C2318.74 1601.49 2319.27 1601.63 2319.84 1601.76C2320.43 1601.89 2321.01 1602.05 2321.58 1602.22C2322.17 1602.39 2322.7 1602.63 2323.18 1602.92C2323.66 1603.21 2324.05 1603.6 2324.34 1604.08C2324.65 1604.56 2324.8 1605.17 2324.8 1605.9C2324.8 1606.69 2324.58 1607.41 2324.14 1608.06C2323.7 1608.71 2323.04 1609.24 2322.16 1609.64C2321.29 1610.04 2320.19 1610.24 2318.86 1610.24ZM2325.17 1610L2331.41 1596H2334.61L2340.87 1610H2337.47L2332.35 1597.64H2333.63L2328.49 1610H2325.17ZM2328.29 1607L2329.15 1604.54H2336.35L2337.23 1607H2328.29ZM2342.33 1610V1596H2348.39C2349.64 1596 2350.72 1596.21 2351.63 1596.62C2352.53 1597.02 2353.23 1597.6 2353.73 1598.36C2354.22 1599.12 2354.47 1600.03 2354.47 1601.08C2354.47 1602.12 2354.22 1603.02 2353.73 1603.78C2353.23 1604.53 2352.53 1605.1 2351.63 1605.5C2350.72 1605.9 2349.64 1606.1 2348.39 1606.1H2344.13L2345.57 1604.68V1610H2342.33ZM2351.23 1610L2347.73 1604.92H2351.19L2354.73 1610H2351.23ZM2345.57 1605.04L2344.13 1603.52H2348.21C2349.21 1603.52 2349.95 1603.31 2350.45 1602.88C2350.94 1602.44 2351.19 1601.84 2351.19 1601.08C2351.19 1600.31 2350.94 1599.71 2350.45 1599.28C2349.95 1598.85 2349.21 1598.64 2348.21 1598.64H2344.13L2345.57 1597.1V1605.04ZM2357.03 1610V1596H2360.27V1610H2357.03ZM2370.4 1610.24C2369.29 1610.24 2368.26 1610.06 2367.32 1609.7C2366.38 1609.34 2365.57 1608.83 2364.88 1608.18C2364.2 1607.53 2363.66 1606.76 2363.28 1605.88C2362.9 1605 2362.72 1604.04 2362.72 1603C2362.72 1601.96 2362.9 1601 2363.28 1600.12C2363.66 1599.24 2364.2 1598.47 2364.9 1597.82C2365.59 1597.17 2366.4 1596.66 2367.34 1596.3C2368.27 1595.94 2369.28 1595.76 2370.38 1595.76C2371.48 1595.76 2372.5 1595.94 2373.42 1596.3C2374.35 1596.66 2375.16 1597.17 2375.84 1597.82C2376.53 1598.47 2377.07 1599.24 2377.46 1600.12C2377.84 1600.99 2378.04 1601.95 2378.04 1603C2378.04 1604.04 2377.84 1605.01 2377.46 1605.9C2377.07 1606.78 2376.53 1607.55 2375.84 1608.2C2375.16 1608.84 2374.35 1609.34 2373.42 1609.7C2372.5 1610.06 2371.49 1610.24 2370.4 1610.24ZM2370.38 1607.48C2371 1607.48 2371.58 1607.37 2372.1 1607.16C2372.63 1606.95 2373.1 1606.64 2373.5 1606.24C2373.9 1605.84 2374.2 1605.37 2374.42 1604.82C2374.64 1604.27 2374.76 1603.67 2374.76 1603C2374.76 1602.33 2374.64 1601.73 2374.42 1601.18C2374.2 1600.63 2373.9 1600.16 2373.5 1599.76C2373.11 1599.36 2372.65 1599.05 2372.12 1598.84C2371.58 1598.63 2371 1598.52 2370.38 1598.52C2369.75 1598.52 2369.17 1598.63 2368.64 1598.84C2368.12 1599.05 2367.66 1599.36 2367.26 1599.76C2366.86 1600.16 2366.54 1600.63 2366.32 1601.18C2366.1 1601.73 2366 1602.33 2366 1603C2366 1603.65 2366.1 1604.26 2366.32 1604.82C2366.54 1605.37 2366.85 1605.84 2367.24 1606.24C2367.64 1606.64 2368.1 1606.95 2368.64 1607.16C2369.17 1607.37 2369.75 1607.48 2370.38 1607.48ZM2298.12 1634.24C2296.13 1634.24 2294.58 1633.69 2293.46 1632.58C2292.34 1631.47 2291.78 1629.89 2291.78 1627.84V1620H2295.02V1627.72C2295.02 1629.05 2295.29 1630.01 2295.84 1630.6C2296.38 1631.19 2297.15 1631.48 2298.14 1631.48C2299.12 1631.48 2299.89 1631.19 2300.44 1630.6C2300.98 1630.01 2301.26 1629.05 2301.26 1627.72V1620H2304.46V1627.84C2304.46 1629.89 2303.9 1631.47 2302.78 1632.58C2301.66 1633.69 2300.1 1634.24 2298.12 1634.24ZM2307.66 1634V1620H2310.34L2316.3 1629.88H2314.88L2320.74 1620H2323.4L2323.44 1634H2320.4L2320.38 1624.66H2320.94L2316.26 1632.52H2314.8L2310.02 1624.66H2310.7V1634H2307.66ZM2278.35 1658V1646.64H2273.87V1644H2286.07V1646.64H2281.59V1658H2278.35ZM2294.42 1658.24C2293.31 1658.24 2292.29 1658.06 2291.34 1657.7C2290.41 1657.34 2289.59 1656.83 2288.9 1656.18C2288.22 1655.53 2287.69 1654.76 2287.3 1653.88C2286.93 1653 2286.74 1652.04 2286.74 1651C2286.74 1649.96 2286.93 1649 2287.3 1648.12C2287.69 1647.24 2288.23 1646.47 2288.92 1645.82C2289.61 1645.17 2290.43 1644.66 2291.36 1644.3C2292.29 1643.94 2293.31 1643.76 2294.4 1643.76C2295.51 1643.76 2296.52 1643.94 2297.44 1644.3C2298.37 1644.66 2299.18 1645.17 2299.86 1645.82C2300.55 1646.47 2301.09 1647.24 2301.48 1648.12C2301.87 1648.99 2302.06 1649.95 2302.06 1651C2302.06 1652.04 2301.87 1653.01 2301.48 1653.9C2301.09 1654.78 2300.55 1655.55 2299.86 1656.2C2299.18 1656.84 2298.37 1657.34 2297.44 1657.7C2296.52 1658.06 2295.51 1658.24 2294.42 1658.24ZM2294.4 1655.48C2295.03 1655.48 2295.6 1655.37 2296.12 1655.16C2296.65 1654.95 2297.12 1654.64 2297.52 1654.24C2297.92 1653.84 2298.23 1653.37 2298.44 1652.82C2298.67 1652.27 2298.78 1651.67 2298.78 1651C2298.78 1650.33 2298.67 1649.73 2298.44 1649.18C2298.23 1648.63 2297.92 1648.16 2297.52 1647.76C2297.13 1647.36 2296.67 1647.05 2296.14 1646.84C2295.61 1646.63 2295.03 1646.52 2294.4 1646.52C2293.77 1646.52 2293.19 1646.63 2292.66 1646.84C2292.14 1647.05 2291.68 1647.36 2291.28 1647.76C2290.88 1648.16 2290.57 1648.63 2290.34 1649.18C2290.13 1649.73 2290.02 1650.33 2290.02 1651C2290.02 1651.65 2290.13 1652.26 2290.34 1652.82C2290.57 1653.37 2290.87 1653.84 2291.26 1654.24C2291.66 1654.64 2292.13 1654.95 2292.66 1655.16C2293.19 1655.37 2293.77 1655.48 2294.4 1655.48ZM2307.39 1654.8L2307.21 1651.06L2313.91 1644H2317.51L2311.47 1650.5L2309.67 1652.42L2307.39 1654.8ZM2304.49 1658V1644H2307.71V1658H2304.49ZM2314.07 1658L2309.09 1651.9L2311.21 1649.6L2317.85 1658H2314.07ZM2322.28 1649.64H2329.02V1652.16H2322.28V1649.64ZM2322.52 1655.4H2330.14V1658H2319.3V1644H2329.88V1646.6H2322.52V1655.4ZM2332.72 1658V1644H2335.4L2343.66 1654.08H2342.36V1644H2345.56V1658H2342.9L2334.62 1647.92H2335.92V1658H2332.72Z" fill="black"/>
<path d="M1270.86 267V244.6H1275.15L1288.36 260.728H1286.28V244.6H1291.4V267H1287.15L1273.9 250.872H1275.98V267H1270.86ZM1301.47 253.624H1312.25V257.656H1301.47V253.624ZM1301.85 262.84H1314.05V267H1296.7V244.6H1313.63V248.76H1301.85V262.84ZM1328.89 267.384C1327.16 267.384 1325.55 267.107 1324.06 266.552C1322.59 265.976 1321.31 265.165 1320.22 264.12C1319.13 263.075 1318.28 261.848 1317.66 260.44C1317.06 259.032 1316.76 257.485 1316.76 255.8C1316.76 254.115 1317.06 252.568 1317.66 251.16C1318.28 249.752 1319.13 248.525 1320.22 247.48C1321.33 246.435 1322.62 245.635 1324.09 245.08C1325.56 244.504 1327.17 244.216 1328.92 244.216C1330.86 244.216 1332.61 244.557 1334.17 245.24C1335.75 245.901 1337.07 246.883 1338.14 248.184L1334.81 251.256C1334.04 250.381 1333.19 249.731 1332.25 249.304C1331.31 248.856 1330.29 248.632 1329.18 248.632C1328.13 248.632 1327.17 248.803 1326.3 249.144C1325.42 249.485 1324.67 249.976 1324.03 250.616C1323.39 251.256 1322.89 252.013 1322.52 252.888C1322.18 253.763 1322.01 254.733 1322.01 255.8C1322.01 256.867 1322.18 257.837 1322.52 258.712C1322.89 259.587 1323.39 260.344 1324.03 260.984C1324.67 261.624 1325.42 262.115 1326.3 262.456C1327.17 262.797 1328.13 262.968 1329.18 262.968C1330.29 262.968 1331.31 262.755 1332.25 262.328C1333.19 261.88 1334.04 261.208 1334.81 260.312L1338.14 263.384C1337.07 264.685 1335.75 265.677 1334.17 266.36C1332.61 267.043 1330.85 267.384 1328.89 267.384ZM1346.41 253.624H1357.19V257.656H1346.41V253.624ZM1346.79 262.84H1358.98V267H1341.64V244.6H1358.57V248.76H1346.79V262.84ZM1370.47 267.384C1368.68 267.384 1366.96 267.149 1365.32 266.68C1363.67 266.189 1362.35 265.56 1361.35 264.792L1363.11 260.888C1364.07 261.571 1365.2 262.136 1366.5 262.584C1367.82 263.011 1369.16 263.224 1370.5 263.224C1371.53 263.224 1372.35 263.128 1372.97 262.936C1373.61 262.723 1374.07 262.435 1374.37 262.072C1374.67 261.709 1374.82 261.293 1374.82 260.824C1374.82 260.227 1374.59 259.757 1374.12 259.416C1373.65 259.053 1373.03 258.765 1372.26 258.552C1371.49 258.317 1370.64 258.104 1369.7 257.912C1368.78 257.699 1367.86 257.443 1366.92 257.144C1366 256.845 1365.16 256.461 1364.39 255.992C1363.62 255.523 1362.99 254.904 1362.5 254.136C1362.03 253.368 1361.8 252.387 1361.8 251.192C1361.8 249.912 1362.14 248.749 1362.82 247.704C1363.53 246.637 1364.57 245.795 1365.96 245.176C1367.37 244.536 1369.13 244.216 1371.24 244.216C1372.65 244.216 1374.03 244.387 1375.4 244.728C1376.76 245.048 1377.97 245.539 1379.01 246.2L1377.41 250.136C1376.37 249.539 1375.32 249.101 1374.28 248.824C1373.23 248.525 1372.21 248.376 1371.21 248.376C1370.2 248.376 1369.38 248.493 1368.74 248.728C1368.1 248.963 1367.64 249.272 1367.37 249.656C1367.09 250.019 1366.95 250.445 1366.95 250.936C1366.95 251.512 1367.18 251.981 1367.65 252.344C1368.12 252.685 1368.74 252.963 1369.51 253.176C1370.28 253.389 1371.12 253.603 1372.04 253.816C1372.98 254.029 1373.9 254.275 1374.82 254.552C1375.76 254.829 1376.61 255.203 1377.38 255.672C1378.15 256.141 1378.77 256.76 1379.24 257.528C1379.73 258.296 1379.97 259.267 1379.97 260.44C1379.97 261.699 1379.62 262.851 1378.92 263.896C1378.21 264.941 1377.16 265.784 1375.75 266.424C1374.36 267.064 1372.6 267.384 1370.47 267.384ZM1390.88 267.384C1389.08 267.384 1387.37 267.149 1385.72 266.68C1384.08 266.189 1382.76 265.56 1381.76 264.792L1383.52 260.888C1384.48 261.571 1385.61 262.136 1386.91 262.584C1388.23 263.011 1389.56 263.224 1390.91 263.224C1391.93 263.224 1392.75 263.128 1393.37 262.936C1394.01 262.723 1394.48 262.435 1394.78 262.072C1395.08 261.709 1395.23 261.293 1395.23 260.824C1395.23 260.227 1394.99 259.757 1394.52 259.416C1394.05 259.053 1393.44 258.765 1392.67 258.552C1391.9 258.317 1391.05 258.104 1390.11 257.912C1389.19 257.699 1388.26 257.443 1387.32 257.144C1386.41 256.845 1385.56 256.461 1384.8 255.992C1384.03 255.523 1383.4 254.904 1382.91 254.136C1382.44 253.368 1382.2 252.387 1382.2 251.192C1382.2 249.912 1382.54 248.749 1383.23 247.704C1383.93 246.637 1384.98 245.795 1386.36 245.176C1387.77 244.536 1389.53 244.216 1391.64 244.216C1393.05 244.216 1394.44 244.387 1395.8 244.728C1397.17 245.048 1398.37 245.539 1399.42 246.2L1397.82 250.136C1396.77 249.539 1395.73 249.101 1394.68 248.824C1393.64 248.525 1392.61 248.376 1391.61 248.376C1390.61 248.376 1389.79 248.493 1389.15 248.728C1388.51 248.963 1388.05 249.272 1387.77 249.656C1387.49 250.019 1387.36 250.445 1387.36 250.936C1387.36 251.512 1387.59 251.981 1388.06 252.344C1388.53 252.685 1389.15 252.963 1389.92 253.176C1390.68 253.389 1391.53 253.603 1392.44 253.816C1393.38 254.029 1394.31 254.275 1395.23 254.552C1396.17 254.829 1397.02 255.203 1397.79 255.672C1398.56 256.141 1399.17 256.76 1399.64 257.528C1400.13 258.296 1400.38 259.267 1400.38 260.44C1400.38 261.699 1400.03 262.851 1399.32 263.896C1398.62 264.941 1397.56 265.784 1396.16 266.424C1394.77 267.064 1393.01 267.384 1390.88 267.384ZM1400.98 267L1410.96 244.6H1416.08L1426.1 267H1420.66L1412.47 247.224H1414.51L1406.29 267H1400.98ZM1405.97 262.2L1407.35 258.264H1418.87L1420.27 262.2H1405.97ZM1428.42 267V244.6H1438.12C1440.12 244.6 1441.85 244.931 1443.3 245.592C1444.75 246.232 1445.87 247.16 1446.66 248.376C1447.45 249.592 1447.85 251.043 1447.85 252.728C1447.85 254.392 1447.45 255.832 1446.66 257.048C1445.87 258.243 1444.75 259.16 1443.3 259.8C1441.85 260.44 1440.12 260.76 1438.12 260.76H1431.3L1433.61 258.488V267H1428.42ZM1442.66 267L1437.06 258.872H1442.6L1448.26 267H1442.66ZM1433.61 259.064L1431.3 256.632H1437.83C1439.43 256.632 1440.62 256.291 1441.41 255.608C1442.2 254.904 1442.6 253.944 1442.6 252.728C1442.6 251.491 1442.2 250.531 1441.41 249.848C1440.62 249.165 1439.43 248.824 1437.83 248.824H1431.3L1433.61 246.36V259.064ZM1451.95 267V244.6H1457.14V267H1451.95ZM1473.33 267.384C1471.56 267.384 1469.92 267.096 1468.4 266.52C1466.91 265.944 1465.61 265.133 1464.5 264.088C1463.41 263.043 1462.56 261.816 1461.94 260.408C1461.34 259 1461.04 257.464 1461.04 255.8C1461.04 254.136 1461.34 252.6 1461.94 251.192C1462.56 249.784 1463.42 248.557 1464.53 247.512C1465.64 246.467 1466.94 245.656 1468.44 245.08C1469.93 244.504 1471.55 244.216 1473.3 244.216C1475.07 244.216 1476.69 244.504 1478.16 245.08C1479.66 245.656 1480.95 246.467 1482.04 247.512C1483.15 248.557 1484.01 249.784 1484.63 251.192C1485.25 252.579 1485.56 254.115 1485.56 255.8C1485.56 257.464 1485.25 259.011 1484.63 260.44C1484.01 261.848 1483.15 263.075 1482.04 264.12C1480.95 265.144 1479.66 265.944 1478.16 266.52C1476.69 267.096 1475.08 267.384 1473.33 267.384ZM1473.3 262.968C1474.3 262.968 1475.22 262.797 1476.05 262.456C1476.91 262.115 1477.65 261.624 1478.29 260.984C1478.93 260.344 1479.42 259.587 1479.76 258.712C1480.13 257.837 1480.31 256.867 1480.31 255.8C1480.31 254.733 1480.13 253.763 1479.76 252.888C1479.42 252.013 1478.93 251.256 1478.29 250.616C1477.67 249.976 1476.94 249.485 1476.08 249.144C1475.23 248.803 1474.3 248.632 1473.3 248.632C1472.3 248.632 1471.37 248.803 1470.52 249.144C1469.68 249.485 1468.95 249.976 1468.31 250.616C1467.67 251.256 1467.17 252.013 1466.8 252.888C1466.46 253.763 1466.29 254.733 1466.29 255.8C1466.29 256.845 1466.46 257.816 1466.8 258.712C1467.17 259.587 1467.66 260.344 1468.28 260.984C1468.92 261.624 1469.66 262.115 1470.52 262.456C1471.37 262.797 1472.3 262.968 1473.3 262.968ZM1357.69 306.384C1354.51 306.384 1352.02 305.499 1350.23 303.728C1348.44 301.957 1347.54 299.429 1347.54 296.144V283.6H1352.73V295.952C1352.73 298.085 1353.16 299.621 1354.04 300.56C1354.91 301.499 1356.14 301.968 1357.72 301.968C1359.3 301.968 1360.52 301.499 1361.4 300.56C1362.27 299.621 1362.71 298.085 1362.71 295.952V283.6H1367.83V296.144C1367.83 299.429 1366.93 301.957 1365.14 303.728C1363.35 305.499 1360.86 306.384 1357.69 306.384ZM1372.95 306V283.6H1377.24L1386.78 299.408H1384.5L1393.88 283.6H1398.14L1398.2 306H1393.34L1393.3 291.056H1394.2L1386.71 303.632H1384.38L1376.73 291.056H1377.82V306H1372.95ZM1326.06 345V326.824H1318.89V322.6H1338.41V326.824H1331.25V345H1326.06ZM1351.77 345.384C1350 345.384 1348.36 345.096 1346.84 344.52C1345.35 343.944 1344.05 343.133 1342.94 342.088C1341.85 341.043 1341 339.816 1340.38 338.408C1339.78 337 1339.48 335.464 1339.48 333.8C1339.48 332.136 1339.78 330.6 1340.38 329.192C1341 327.784 1341.86 326.557 1342.97 325.512C1344.08 324.467 1345.38 323.656 1346.87 323.08C1348.37 322.504 1349.99 322.216 1351.74 322.216C1353.51 322.216 1355.13 322.504 1356.6 323.08C1358.1 323.656 1359.39 324.467 1360.47 325.512C1361.58 326.557 1362.45 327.784 1363.07 329.192C1363.69 330.579 1363.99 332.115 1363.99 333.8C1363.99 335.464 1363.69 337.011 1363.07 338.44C1362.45 339.848 1361.58 341.075 1360.47 342.12C1359.39 343.144 1358.1 343.944 1356.6 344.52C1355.13 345.096 1353.52 345.384 1351.77 345.384ZM1351.74 340.968C1352.74 340.968 1353.66 340.797 1354.49 340.456C1355.34 340.115 1356.09 339.624 1356.73 338.984C1357.37 338.344 1357.86 337.587 1358.2 336.712C1358.57 335.837 1358.75 334.867 1358.75 333.8C1358.75 332.733 1358.57 331.763 1358.2 330.888C1357.86 330.013 1357.37 329.256 1356.73 328.616C1356.11 327.976 1355.38 327.485 1354.52 327.144C1353.67 326.803 1352.74 326.632 1351.74 326.632C1350.74 326.632 1349.81 326.803 1348.95 327.144C1348.12 327.485 1347.39 327.976 1346.75 328.616C1346.11 329.256 1345.61 330.013 1345.24 330.888C1344.9 331.763 1344.73 332.733 1344.73 333.8C1344.73 334.845 1344.9 335.816 1345.24 336.712C1345.61 337.587 1346.1 338.344 1346.71 338.984C1347.35 339.624 1348.1 340.115 1348.95 340.456C1349.81 340.797 1350.74 340.968 1351.74 340.968ZM1372.53 339.88L1372.24 333.896L1382.96 322.6H1388.72L1379.06 333L1376.18 336.072L1372.53 339.88ZM1367.89 345V322.6H1373.04V345H1367.89ZM1383.22 345L1375.25 335.24L1378.64 331.56L1389.27 345H1383.22ZM1396.35 331.624H1407.13V335.656H1396.35V331.624ZM1396.73 340.84H1408.92V345H1391.58V322.6H1408.51V326.76H1396.73V340.84ZM1413.05 345V322.6H1417.33L1430.55 338.728H1428.47V322.6H1433.59V345H1429.33L1416.09 328.872H1418.17V345H1413.05Z" fill="black"/>
</svg>
