<svg width="470" height="411" viewBox="0 0 470 411" fill="none" xmlns="http://www.w3.org/2000/svg">
<path d="M435.056 98.19L345.458 118.034C341.797 118.845 338.171 116.534 337.36 112.873L318.691 28.579C317.88 24.918 320.191 21.292 323.852 20.482L413.45 0.638011C417.111 -0.172989 420.737 2.13801 421.548 5.79901L440.217 90.093C441.028 93.753 438.717 97.379 435.056 98.19Z" fill="#EBEBEB"/>
<path d="M399.935 70.199C399.938 70.214 399.704 70.282 399.253 70.398C398.761 70.519 398.102 70.681 397.272 70.885C395.5 71.3 393.004 71.885 389.919 72.607C383.634 74.035 374.96 76.007 365.199 78.225L364.997 78.271L364.924 78.076C364.448 76.809 363.943 75.466 363.432 74.107C359.102 62.475 355.237 52.094 352.712 45.31L352.887 45.405C350.093 46.001 347.863 46.476 346.283 46.813C345.545 46.961 344.961 47.079 344.522 47.167C344.121 47.243 343.911 47.275 343.908 47.261C343.905 47.247 344.108 47.187 344.503 47.085C344.938 46.977 345.517 46.834 346.247 46.654C347.819 46.285 350.039 45.763 352.82 45.11L352.948 45.08L352.995 45.205C355.559 51.975 359.483 62.334 363.879 73.94C364.389 75.3 364.893 76.643 365.368 77.91L365.093 77.761C374.868 75.602 383.553 73.684 389.847 72.294C392.945 71.631 395.452 71.095 397.232 70.714C398.07 70.544 398.735 70.41 399.232 70.309C399.691 70.222 399.932 70.184 399.935 70.199Z" fill="#FAFAFA"/>
<path d="M362.526 71.012C362.524 71.005 362.582 70.986 362.696 70.953C362.833 70.917 363 70.873 363.205 70.819C363.688 70.701 364.348 70.541 365.187 70.336C366.955 69.924 369.472 69.336 372.618 68.602C379.003 67.15 387.934 65.118 398.272 62.767L398.093 63.001C397.886 58.509 397.661 53.652 397.429 48.625C397.312 46.039 397.197 43.498 397.088 41.076L397.376 41.296C385.356 43.957 374.746 46.305 367.1 47.998C363.315 48.815 360.266 49.473 358.126 49.935C357.098 50.147 356.289 50.315 355.703 50.436C355.447 50.484 355.24 50.523 355.073 50.555C354.931 50.579 354.857 50.588 354.856 50.581C354.854 50.574 354.925 50.55 355.064 50.512C355.228 50.469 355.432 50.416 355.684 50.351C356.265 50.211 357.068 50.017 358.089 49.77C360.222 49.275 363.26 48.569 367.032 47.693C374.668 45.962 385.266 43.558 397.273 40.836L397.548 40.774L397.561 41.057C397.672 43.479 397.789 46.02 397.907 48.606C398.132 53.633 398.35 58.49 398.552 62.982L398.561 63.175L398.373 63.216C388.02 65.5 379.077 67.474 372.682 68.885C369.524 69.564 366.997 70.107 365.222 70.488C364.376 70.661 363.711 70.797 363.224 70.897C363.016 70.936 362.846 70.967 362.706 70.993C362.588 71.012 362.527 71.019 362.526 71.012Z" fill="#FAFAFA"/>
<path d="M375.96 85.487C375.917 85.498 375.846 85.187 375.578 84.704C375.313 84.23 374.79 83.572 373.896 83.184C373.027 82.787 371.748 82.751 370.683 83.451C369.619 84.113 368.902 85.564 369.236 86.994C369.544 88.429 370.812 89.436 372.056 89.581C373.318 89.76 374.459 89.181 375.076 88.451C375.719 87.718 375.911 86.9 375.948 86.358C375.985 85.806 375.917 85.495 375.96 85.487C375.98 85.48 376.114 85.78 376.135 86.363C376.154 86.934 376.007 87.832 375.336 88.669C374.694 89.5 373.435 90.195 372.001 90.018C370.588 89.882 369.121 88.742 368.77 87.098C368.387 85.461 369.227 83.805 370.447 83.079C371.669 82.308 373.103 82.399 374.039 82.876C375.003 83.346 375.519 84.095 375.746 84.62C375.974 85.157 375.981 85.484 375.96 85.487Z" fill="#FAFAFA"/>
<path d="M398.349 80.471C398.306 80.482 398.235 80.171 397.967 79.688C397.702 79.214 397.179 78.556 396.285 78.167C395.416 77.77 394.137 77.734 393.072 78.434C392.008 79.097 391.291 80.547 391.625 81.977C391.933 83.413 393.2 84.419 394.445 84.564C395.707 84.743 396.848 84.164 397.465 83.435C398.108 82.702 398.3 81.884 398.337 81.342C398.374 80.79 398.305 80.479 398.349 80.471C398.369 80.464 398.503 80.763 398.524 81.347C398.543 81.918 398.396 82.816 397.725 83.653C397.083 84.484 395.824 85.179 394.39 85.002C392.977 84.866 391.51 83.726 391.159 82.082C390.776 80.445 391.616 78.789 392.836 78.063C394.058 77.292 395.492 77.383 396.428 77.86C397.392 78.33 397.908 79.079 398.135 79.604C398.363 80.14 398.37 80.468 398.349 80.471Z" fill="#FAFAFA"/>
<path d="M404.559 35.751C405.787 41.233 402.339 46.674 396.856 47.902C391.373 49.13 385.933 45.682 384.705 40.199C383.477 34.717 386.925 29.276 392.408 28.048C397.891 26.819 403.331 30.268 404.559 35.751Z" fill="#FAFAFA"/>
<path d="M399.192 33.061C399.249 33.095 398.89 33.814 398.264 34.95C397.638 36.086 396.745 37.638 395.733 39.338C395.354 39.967 394.989 40.574 394.644 41.145L394.53 41.335L394.339 41.229C391.771 39.809 389.948 38.723 390 38.628C390.051 38.533 391.96 39.46 394.556 40.826L394.251 40.91C394.589 40.335 394.949 39.725 395.321 39.092C396.333 37.393 397.272 35.868 397.972 34.776C398.673 33.686 399.135 33.027 399.192 33.061Z" fill="#E0E0E0"/>
<path d="M57.285 150.377C55.44 143.843 46.949 144.477 46.949 144.477L47.182 149.021C52.091 148.174 55.142 153.927 55.142 153.927L57.285 150.377Z" fill="#E0E0E0"/>
<path d="M181.975 74.944C191.825 77.928 197.954 66.568 197.954 66.568L191.961 63.153C189.031 70.112 179.193 69.307 179.193 69.307L181.975 74.944Z" fill="#A000C8"/>
<path d="M263.741 135.926C261.835 130.494 254.683 131.479 254.683 131.479L255.12 135.312C259.229 134.337 262.115 139.044 262.115 139.044L263.741 135.926Z" fill="#E0E0E0"/>
<path d="M150.762 8.683C148.856 3.251 141.704 4.236 141.704 4.236L142.141 8.069C146.25 7.094 149.135 11.801 149.135 11.801L150.762 8.683Z" fill="#E0E0E0"/>
<path d="M65.421 78.192C63.515 72.76 56.363 73.744 56.363 73.744L56.8 77.577C60.909 76.601 63.794 81.309 63.794 81.309L65.421 78.192Z" fill="#EBEBEB"/>
<path d="M47.49 27.409C41.809 28.341 41.535 35.556 41.535 35.556L45.386 35.792C45.14 31.576 50.277 29.553 50.277 29.553L47.49 27.409Z" fill="#EBEBEB"/>
<path d="M6.59199 196.394C16.442 199.378 22.57 188.017 22.57 188.017L16.577 184.602C13.647 191.561 3.80899 190.756 3.80899 190.756L6.59199 196.394Z" fill="#EBEBEB"/>
<path d="M287.2 75.572C287.866 71.011 282.426 69.052 282.426 69.052L281.312 71.934C284.59 72.769 284.888 77.18 284.888 77.18L287.2 75.572Z" fill="#E0E0E0"/>
<path d="M254.453 25.475C250.612 28.024 252.786 33.382 252.786 33.382L255.675 32.287C254.108 29.29 257.193 26.123 257.193 26.123L254.453 25.475Z" fill="#EBEBEB"/>
<path d="M421.084 127.565L407.786 166.731L447.112 174.546L449.376 133.187L421.084 127.565Z" fill="#F5F5F5"/>
<path d="M445.022 138.39C445.068 138.409 444.948 138.828 444.58 139.513C444.211 140.194 443.593 141.152 442.6 142.145C441.613 143.131 440.217 144.147 438.432 144.743C436.656 145.352 434.529 145.467 432.428 145.047C430.324 144.651 428.379 143.8 426.942 142.58C425.485 141.376 424.619 139.855 424.127 138.551C423.634 137.233 423.49 136.099 423.451 135.325C423.416 134.547 423.492 134.118 423.542 134.122C423.668 134.107 423.574 135.866 424.612 138.356C425.143 139.576 425.999 140.966 427.378 142.056C428.737 143.162 430.558 143.94 432.564 144.32C434.568 144.719 436.552 144.628 438.224 144.094C439.903 143.572 441.249 142.663 442.24 141.766C444.223 139.932 444.917 138.325 445.022 138.39Z" fill="white"/>
<path d="M459.073 410.166C459.073 410.31 356.505 410.426 230.011 410.426C103.473 410.426 0.927002 410.309 0.927002 410.166C0.927002 410.023 103.473 409.906 230.011 409.906C356.505 409.906 459.073 410.022 459.073 410.166Z" fill="#263238"/>
<path d="M261.611 101.836H17.757V292.732H261.611V101.836Z" fill="#FAFAFA"/>
<path d="M261.611 292.732C261.609 290.939 261.525 216.998 261.395 101.836L261.61 102.051C192.12 102.064 108.167 102.079 17.777 102.096H17.756L18.016 101.836C18.006 170.674 17.997 235.77 17.989 292.732L17.755 292.498C162.52 292.637 259.56 292.73 261.611 292.732C259.561 292.734 162.52 292.827 17.757 292.966H17.523V292.732C17.515 235.77 17.506 170.674 17.496 101.836V101.575H17.757H17.778C108.168 101.592 192.121 101.607 261.611 101.62H261.827V101.836C261.697 216.998 261.613 290.941 261.611 292.732Z" fill="#263238"/>
<path d="M175.931 266.746H103.437C95.13 266.746 88.396 260.012 88.396 251.705C88.396 243.398 95.13 236.664 103.437 236.664H175.931C184.238 236.664 190.972 243.398 190.972 251.705C190.972 260.012 184.238 266.746 175.931 266.746Z" fill="#0C9609"/>
<path d="M141.704 174.985C131.016 174.985 122.322 166.29 122.322 155.603C122.322 144.915 131.017 136.221 141.704 136.221C152.391 136.221 161.086 144.916 161.086 155.603C161.086 166.29 152.391 174.985 141.704 174.985ZM141.704 138.221C132.119 138.221 124.322 146.019 124.322 155.603C124.322 165.188 132.12 172.985 141.704 172.985C151.288 172.985 159.086 165.188 159.086 155.603C159.086 146.019 151.288 138.221 141.704 138.221Z" fill="#0C9609"/>
<path d="M140.298 161.576C140.062 161.576 139.827 161.493 139.637 161.327C137.942 159.835 135.042 157.249 134.67 156.691C134.364 156.231 134.488 155.61 134.947 155.304C135.401 155 136.011 155.119 136.323 155.565C136.593 155.904 138.43 157.586 140.273 159.22L150.087 149.905C150.486 149.525 151.12 149.54 151.501 149.942C151.881 150.342 151.865 150.976 151.464 151.356L140.985 161.302C140.794 161.484 140.546 161.576 140.298 161.576Z" fill="#0C9609"/>
<path d="M261.611 120.485C261.611 120.629 207.155 120.745 139.996 120.745C72.813 120.745 18.369 120.628 18.369 120.485C18.369 120.342 72.813 120.225 139.996 120.225C207.155 120.224 261.611 120.341 261.611 120.485Z" fill="#263238"/>
<path d="M26.387 112.313C27.1685 112.313 27.802 111.68 27.802 110.898C27.802 110.117 27.1685 109.483 26.387 109.483C25.6055 109.483 24.972 110.117 24.972 110.898C24.972 111.68 25.6055 112.313 26.387 112.313Z" fill="#263238"/>
<path d="M31.667 112.313C32.4485 112.313 33.082 111.68 33.082 110.898C33.082 110.117 32.4485 109.483 31.667 109.483C30.8855 109.483 30.252 110.117 30.252 110.898C30.252 111.68 30.8855 112.313 31.667 112.313Z" fill="#263238"/>
<path d="M38.282 110.898C38.282 111.68 37.648 112.313 36.867 112.313C36.085 112.313 35.452 111.679 35.452 110.898C35.452 110.116 36.086 109.483 36.867 109.483C37.649 109.482 38.282 110.116 38.282 110.898Z" fill="#263238"/>
<path d="M421.917 230.085C421.917 230.085 434.053 222.701 436.788 224.871C440.736 228.003 442.051 233.289 442.051 233.289C442.051 233.289 448.461 208.84 454.578 209.767C458.087 210.299 456.366 213.033 454.793 216.465C453.333 219.652 450.842 231.348 450.842 231.348C450.842 231.348 462.441 217.588 465.849 217.836C468.486 218.028 468.865 220.348 465.073 224.067C461.281 227.787 454.979 239.505 454.979 239.505C454.979 239.505 463.104 231.931 466.461 231.889C469.138 231.856 470.867 233.715 467.403 236.723C463.938 239.731 458.696 241.988 455.899 247.429C452.452 254.136 445.102 270.853 445.102 270.853L419.377 261.746C419.377 261.746 415.19 244.681 415.023 240.535C415.023 240.535 415.375 231.774 415.326 230.213C415.276 228.653 419.414 228.253 420.67 231.248C421.925 234.243 421.356 237.385 421.865 239.377C422.374 241.369 423.281 243.215 424.737 244.106C426.193 244.997 429.899 245.058 430.846 243.957C431.793 242.856 432.941 239.651 433.19 237.679C433.44 235.707 433.118 232.594 433.118 232.594C433.118 232.594 422.438 236.933 421.917 230.085Z" fill="#FFBE9D"/>
<path d="M132.875 309.71L114.999 303.014C114.999 303.014 96.8 292.359 93.43 296.143C93.43 296.143 89.831 294.428 88.231 298.267C87.304 300.491 90.362 303.721 90.362 303.721C90.362 303.721 89.41 304.686 90.917 307.952C92.424 311.218 109.699 321.519 109.699 321.519C109.699 321.519 132.159 333.766 141.24 339.625L156.91 318.313L154.731 317.499C154.731 317.499 153.437 306.878 149.09 304.046C144.359 300.964 138.652 292.626 137.396 289.36C136.14 286.094 130.11 287.601 131.115 294.385C132.12 301.169 137.396 302.927 136.894 307.45C136.393 311.971 132.875 309.71 132.875 309.71Z" fill="#FFBE9D"/>
<path d="M105.472 312.189C105.402 312.314 101.919 310.496 97.695 308.129C93.469 305.761 90.102 303.74 90.172 303.614C90.242 303.489 93.724 305.306 97.95 307.675C102.174 310.042 105.543 312.063 105.472 312.189Z" fill="#EB996E"/>
<path d="M114.196 307.163C114.166 307.227 112.944 306.733 110.988 305.886C109.034 305.036 106.352 303.815 103.452 302.333C100.553 300.849 97.998 299.367 96.211 298.196C95.321 297.606 94.608 297.117 94.137 296.748C93.662 296.386 93.409 296.172 93.43 296.143C93.477 296.077 94.578 296.799 96.405 297.884C98.232 298.969 100.801 300.391 103.689 301.87C106.578 303.346 109.228 304.617 111.142 305.552C113.057 306.483 114.227 307.097 114.196 307.163Z" fill="#EB996E"/>
<path d="M117.957 317.01C117.937 317.042 117.374 316.734 116.373 316.15C115.301 315.51 113.88 314.662 112.161 313.635L112.113 313.607L112.087 313.55C111.298 311.844 110.317 309.837 109.052 307.74C108.412 306.709 107.71 305.595 106.778 304.735C105.849 303.872 104.369 303.722 103.256 304.471C103.017 304.606 102.729 304.891 102.695 304.984C102.722 305.027 102.719 305.035 102.736 305.103L102.808 305.325C102.853 305.472 102.91 305.622 102.964 305.771C103.181 306.367 103.416 306.955 103.647 307.532C104.119 308.683 104.576 309.798 105.015 310.871C105.904 312.991 106.72 314.936 107.433 316.637L107.4 316.585C108.869 318.306 110.084 319.73 110.994 320.797C111.375 321.261 111.691 321.647 111.954 321.967C112.169 322.239 112.275 322.389 112.26 322.402C112.245 322.415 112.11 322.291 111.867 322.044C111.583 321.743 111.24 321.38 110.827 320.944C109.883 319.906 108.624 318.521 107.102 316.847L107.083 316.826L107.069 316.795C106.325 315.127 105.476 313.19 104.566 311.06C104.118 309.989 103.653 308.874 103.172 307.723C102.938 307.143 102.7 306.556 102.477 305.948C102.421 305.796 102.363 305.645 102.313 305.484L102.235 305.245C102.207 305.158 102.188 305.004 102.183 304.888C102.276 304.572 102.419 304.508 102.547 304.357C102.683 304.236 102.825 304.128 102.974 304.033C103.616 303.625 104.376 303.414 105.129 303.479C105.886 303.528 106.574 303.89 107.108 304.347C108.141 305.314 108.814 306.431 109.463 307.491C110.725 309.632 111.675 311.658 112.432 313.399L112.358 313.314C114.041 314.399 115.432 315.296 116.481 315.973C117.451 316.61 117.977 316.978 117.957 317.01Z" fill="#EB996E"/>
<path d="M135.879 317.182C135.855 317.254 135.02 317.02 133.682 316.644C132.346 316.28 130.486 315.762 128.398 315.711C126.313 315.664 124.459 316.249 123.303 316.959C122.13 317.66 121.612 318.375 121.54 318.313C121.496 318.294 121.919 317.474 123.104 316.649C124.269 315.819 126.221 315.139 128.408 315.19C130.59 315.245 132.475 315.838 133.792 316.293C135.113 316.763 135.901 317.118 135.879 317.182Z" fill="#EB996E"/>
<path d="M134.535 312.461C134.654 312.55 134.209 313.324 133.778 314.317C133.339 315.307 133.071 316.158 132.924 316.131C132.787 316.11 132.834 315.163 133.301 314.108C133.762 313.05 134.427 312.374 134.535 312.461Z" fill="#EB996E"/>
<path d="M237.564 227.479C238.798 219.054 248.608 206.974 257.289 206.961C252.313 199.748 252.237 189.599 257.103 182.315C260.453 177.302 265.855 173.616 268.146 168.059C270.738 161.772 268.749 154.669 268.996 147.892C269.358 137.972 274.519 128.913 279.545 120.296C284.147 112.406 289.761 103.757 298.819 101.819C304.55 100.593 310.493 102.402 315.874 104.693C341.62 115.658 361.642 138.769 368.512 165.452C370.157 171.84 371.259 178.75 375.71 183.686C380.424 188.914 388.681 191.75 390.095 198.589C391.109 203.493 387.962 208.423 388.434 213.405C388.83 217.579 396.647 229.745 398.449 233.546C401.554 240.094 400.431 247.169 397.27 253.692C394.109 260.215 386.063 266.567 378.923 268.344L299.12 241.752C291.612 246.026 284.133 262.56 275.514 263.576C266.895 264.592 256.378 268.344 248.086 259.269C239.394 249.757 236.33 235.904 237.564 227.479Z" fill="#263238"/>
<path d="M369.887 148.105C368.994 154.783 370.824 165.824 374.474 171.529C376.924 175.358 381.012 177.85 385.045 180.04C389.078 182.231 393.302 184.332 396.359 187.715C399.417 191.098 401.056 196.171 399.012 200.223C406.201 202.903 409.426 212.061 406.788 219.144C404.15 226.227 396.918 230.991 389.364 232.407L356.449 222.506L349.221 180.504L368.22 148.104" fill="#263238"/>
<path d="M373.927 190.926C373.934 190.911 374.154 191.008 374.571 191.206C374.977 191.422 375.623 191.666 376.369 192.14C377.895 193.021 380.003 194.55 382.138 196.95C383.225 198.131 384.232 199.59 385.212 201.219C386.115 202.888 387.028 204.732 387.608 206.818C388.889 210.929 389.17 215.925 387.697 220.836L387.577 220.535C389.472 221.591 391.301 222.968 392.932 224.604C397.134 228.772 399.535 234.19 400.11 239.259C400.67 244.367 399.454 248.995 397.754 252.43C396.043 255.896 393.919 258.253 392.349 259.703C391.547 260.418 390.902 260.946 390.433 261.262C389.973 261.59 389.727 261.754 389.717 261.74C389.707 261.725 389.932 261.532 390.369 261.179C390.815 260.838 391.436 260.287 392.209 259.556C393.724 258.073 395.778 255.707 397.422 252.271C399.056 248.865 400.207 244.31 399.633 239.316C399.044 234.357 396.68 229.056 392.563 224.974C390.965 223.372 389.177 222.022 387.326 220.986L387.145 220.885L387.206 220.684C388.652 215.893 388.405 211 387.173 206.949C386.618 204.895 385.734 203.073 384.862 201.42C383.913 199.806 382.938 198.355 381.882 197.175C379.81 194.778 377.758 193.223 376.274 192.3C375.549 191.806 374.921 191.537 374.53 191.294C374.127 191.066 373.92 190.94 373.927 190.926Z" fill="#455A64"/>
<path d="M276.559 234.422C276.559 234.422 261.852 238.894 256.697 246.393C253.05 251.698 215.71 332.562 215.71 332.562L159.027 315.519L138.761 342.286L201.828 377.243C213.521 383.724 227.742 383.662 239.377 377.078C245.829 373.427 251.087 367.988 254.518 361.416L270.554 330.692L276.559 234.422Z" fill="#0C9609"/>
<path d="M261.509 410.548L270.36 372.399L263.654 344.699C259.34 330.435 255.637 307.201 260.33 288.488L276.006 234.676L293.242 226.75L332.683 219.966C334.2 220.472 373.926 231.691 373.926 231.691C379.426 232.968 381.633 233.845 381.633 233.845L386.188 263.303L372.492 311.856L366.527 360.233L379.63 410.548H261.509Z" fill="#0C9609"/>
<path d="M284.303 230.861L295.741 225.742L347.291 226.46L359.483 233.537C359.483 233.537 316.896 280.541 306.207 282.096C279.323 286.005 284.303 230.861 284.303 230.861Z" fill="#FFBE9D"/>
<path d="M380.514 233.438C380.514 233.438 388.236 235.175 394.855 249.296C401.474 263.416 412.174 302.714 412.174 302.714L416.749 261.068L454.02 265.168L446.806 364.7C446.806 364.7 433.617 383.827 411.554 382.062C389.491 380.297 361.482 310.558 361.482 310.558L380.514 233.438Z" fill="#0C9609"/>
<path d="M406.357 353.568C406.348 353.567 406.346 353.486 406.349 353.327C406.357 353.137 406.367 352.905 406.378 352.622C406.418 351.959 406.472 351.056 406.541 349.914C406.683 347.562 406.963 344.163 407.353 339.968C408.13 331.577 409.552 320.02 411.293 307.287C413.034 294.549 414.514 283.009 415.383 274.633C415.819 270.445 416.155 267.054 416.359 264.708C416.469 263.57 416.556 262.669 416.62 262.008C416.653 261.726 416.679 261.496 416.701 261.307C416.722 261.149 416.737 261.069 416.746 261.069C416.755 261.07 416.758 261.152 416.754 261.311C416.746 261.501 416.736 261.732 416.725 262.016C416.685 262.678 416.631 263.582 416.562 264.724C416.42 267.076 416.14 270.474 415.75 274.669C414.974 283.06 413.551 294.618 411.809 307.356C410.068 320.089 408.589 331.628 407.719 340.004C407.283 344.192 406.947 347.583 406.743 349.929C406.633 351.068 406.546 351.969 406.482 352.629C406.45 352.911 406.423 353.142 406.401 353.33C406.382 353.488 406.366 353.568 406.357 353.568Z" fill="#263238"/>
<path d="M216.354 354.04C216.321 354.054 216.176 353.789 215.941 353.295C215.701 352.804 215.402 352.071 215.075 351.149C214.419 349.308 213.735 346.672 213.443 343.693C213.158 340.713 213.323 337.993 213.614 336.061C213.758 335.094 213.911 334.317 214.052 333.789C214.187 333.26 214.279 332.971 214.314 332.979C214.398 332.997 214.172 334.179 213.98 336.105C213.785 338.029 213.681 340.707 213.962 343.642C214.25 346.576 214.866 349.184 215.426 351.035C215.983 352.889 216.432 354.007 216.354 354.04Z" fill="#263238"/>
<path d="M222.622 354.964C222.593 354.985 222.361 354.72 221.965 354.221C221.563 353.725 221.028 352.972 220.41 352.014C219.17 350.1 217.678 347.295 216.527 344C215.383 340.7 214.812 337.574 214.596 335.304C214.486 334.169 214.438 333.246 214.445 332.608C214.445 331.97 214.463 331.618 214.499 331.617C214.587 331.614 214.651 333.019 214.962 335.259C215.27 337.498 215.89 340.569 217.02 343.827C218.157 347.081 219.576 349.874 220.725 351.82C221.871 353.77 222.693 354.911 222.622 354.964Z" fill="#263238"/>
<path d="M266.746 266.038C266.763 266.043 266.698 266.321 266.558 266.845C266.4 267.413 266.188 268.174 265.922 269.13C265.347 271.162 264.538 274.015 263.545 277.521C261.608 284.612 258.912 294.46 257.621 305.611C256.976 311.179 256.846 316.541 257.402 321.363C257.915 326.189 258.979 330.452 260.028 333.971C261.082 337.493 262.08 340.301 262.763 342.243C263.092 343.179 263.354 343.924 263.55 344.48C263.726 344.993 263.81 345.266 263.793 345.272C263.776 345.278 263.659 345.018 263.452 344.517C263.233 343.969 262.941 343.235 262.573 342.313C261.831 340.391 260.779 337.599 259.675 334.078C258.578 330.561 257.468 326.279 256.925 321.416C256.338 316.558 256.456 311.145 257.104 305.552C258.401 294.348 261.162 284.491 263.191 277.421C264.224 273.884 265.107 271.037 265.728 269.073C266.033 268.129 266.276 267.377 266.458 266.816C266.63 266.3 266.728 266.033 266.746 266.038Z" fill="#263238"/>
<path d="M370.968 331.617C370.96 331.621 370.914 331.538 370.833 331.373C370.742 331.179 370.627 330.936 370.484 330.634C370.171 329.944 369.737 328.986 369.186 327.77C368.635 326.521 367.93 325.005 367.179 323.216C366.457 321.408 365.637 319.358 364.733 317.095C363.853 314.817 363.007 312.277 362.036 309.572C361.611 308.199 361.172 306.78 360.719 305.318C360.495 304.586 360.267 303.843 360.036 303.091C359.821 302.334 359.634 301.558 359.427 300.776C357.751 294.54 356.322 287.533 355.902 280.067C355.446 272.613 356.155 265.41 358.057 259.202C359.839 252.952 362.972 247.824 366.312 244.242C369.649 240.621 373.126 238.532 375.616 237.418C376.872 236.872 377.872 236.504 378.569 236.324C378.892 236.234 379.151 236.161 379.357 236.103C379.535 236.056 379.628 236.037 379.63 236.045C379.632 236.054 379.545 236.091 379.372 236.154C379.17 236.224 378.916 236.313 378.601 236.423C377.916 236.635 376.934 237.032 375.701 237.601C373.256 238.762 369.848 240.877 366.583 244.489C363.313 248.068 360.257 253.14 358.516 259.337C356.657 265.496 355.969 272.628 356.421 280.036C356.838 287.452 358.245 294.431 359.89 300.652C360.091 301.432 360.29 302.201 360.486 302.961C360.712 303.712 360.936 304.454 361.156 305.185C361.599 306.645 362.028 308.064 362.444 309.435C363.394 312.139 364.219 314.68 365.075 316.963C365.951 319.233 366.746 321.29 367.446 323.103C368.171 324.9 368.848 326.426 369.37 327.686C369.883 328.918 370.287 329.888 370.578 330.588C370.702 330.899 370.801 331.149 370.88 331.348C370.947 331.523 370.976 331.613 370.968 331.617Z" fill="#263238"/>
<g opacity="0.3">
<path d="M356.763 286.535C351.891 309.584 351.825 333.295 360.214 355.309C360.701 356.586 362.626 361.126 363.991 361.193C365.722 361.278 366.543 359.124 366.843 357.417C367.459 353.909 367.835 348.135 368.451 344.627C369.222 340.234 370.267 330.064 370.267 330.064C370.267 330.064 366.237 320.841 364.465 315.895C361.178 306.718 358.399 297.959 356.863 287.262" fill="black"/>
</g>
<path d="M352.784 375.829C352.799 375.839 352.665 376.046 352.396 376.431C352.092 376.855 351.695 377.409 351.199 378.1C350.932 378.465 350.64 378.866 350.323 379.3C349.988 379.727 349.588 380.161 349.177 380.644C348.334 381.591 347.439 382.732 346.261 383.815C345.689 384.375 345.091 384.96 344.469 385.57C343.84 386.174 343.118 386.727 342.406 387.34C341.004 388.597 339.342 389.729 337.628 390.965C334.105 393.297 330.014 395.545 325.476 397.348C320.913 399.093 316.379 400.206 312.206 400.873C310.107 401.122 308.117 401.414 306.235 401.437C305.296 401.467 304.39 401.549 303.518 401.529C302.648 401.501 301.811 401.475 301.011 401.45C299.411 401.449 297.98 401.215 296.719 401.088C296.09 401.011 295.501 400.961 294.966 400.874C294.438 400.769 293.952 400.672 293.509 400.583C292.677 400.41 292.009 400.27 291.499 400.164C291.041 400.063 290.803 400.001 290.807 399.984C290.811 399.966 291.057 399.994 291.521 400.062C292.035 400.144 292.707 400.251 293.544 400.384C293.988 400.458 294.474 400.54 295.002 400.629C295.537 400.701 296.125 400.736 296.752 400.799C298.01 400.898 299.435 401.105 301.025 401.082C301.82 401.096 302.651 401.112 303.516 401.128C304.382 401.137 305.281 401.045 306.213 401.006C308.081 400.965 310.054 400.659 312.135 400.399C316.271 399.711 320.763 398.593 325.288 396.863C329.789 395.075 333.852 392.859 337.362 390.567C339.07 389.351 340.729 388.241 342.132 387.007C342.844 386.405 343.568 385.864 344.2 385.272C344.826 384.675 345.428 384.102 346.003 383.553C347.19 382.494 348.099 381.377 348.958 380.453C349.377 379.982 349.786 379.559 350.132 379.143C350.461 378.72 350.764 378.331 351.04 377.976C351.567 377.311 351.989 376.777 352.312 376.37C352.607 376.006 352.77 375.819 352.784 375.829Z" fill="#263238"/>
<path d="M344.65 360.576C344.685 360.583 344.636 360.97 344.517 361.668C344.407 362.368 344.173 363.367 343.819 364.584C343.118 367.017 341.785 370.298 339.68 373.558C337.564 376.813 335.114 379.37 333.18 381.005C332.214 381.825 331.397 382.447 330.804 382.833C330.216 383.227 329.882 383.43 329.861 383.401C329.806 383.324 331.084 382.424 332.935 380.729C334.788 379.04 337.156 376.483 339.243 373.275C341.318 370.061 342.684 366.854 343.468 364.473C344.258 362.092 344.558 360.558 344.65 360.576Z" fill="#263238"/>
<path d="M326.497 95.445C340.451 95.54 354.1 103.418 361.162 115.454C368.224 127.489 368.445 143.247 361.722 155.475C359.43 159.644 356.134 163.591 351.604 165.044C353.146 141.129 343.614 116.725 326.271 100.187" fill="#0C9609"/>
<path d="M342.828 99.057C340.756 94.749 342.974 89.359 346.668 86.325C350.363 83.291 355.176 82.066 359.826 80.955C364.476 79.845 369.293 78.692 373.07 75.761C372.526 83.251 370.664 90.958 365.816 96.694C360.968 102.429 352.57 105.625 345.648 102.711" fill="#0C9609"/>
<path d="M347.631 103.991C344.449 105.33 340.655 104.493 337.807 102.542C334.959 100.591 332.922 97.668 331.25 94.647C329.197 90.936 327.584 86.927 327.037 82.722C326.49 78.517 327.065 74.091 329.146 70.396C334.621 76.228 340.649 81.128 343.779 88.489C345.617 92.813 345.394 99.746 343.423 104.011" fill="#0C9609"/>
<path d="M363.135 128.241C363.171 128.236 363.266 128.73 363.407 129.632C363.483 130.082 363.562 130.635 363.613 131.281C363.669 131.927 363.759 132.661 363.775 133.478C363.866 135.109 363.837 137.058 363.674 139.213C363.482 141.365 363.139 143.723 362.571 146.153C361.983 148.58 361.228 150.84 360.429 152.848C359.604 154.846 358.751 156.599 357.936 158.015C357.554 158.737 357.143 159.352 356.802 159.904C356.466 160.458 356.146 160.916 355.876 161.284C355.343 162.025 355.036 162.423 355.006 162.403C354.977 162.382 355.228 161.944 355.706 161.173C355.95 160.79 356.242 160.319 356.553 159.753C356.868 159.191 357.254 158.567 357.612 157.839C358.38 156.412 359.19 154.659 359.983 152.671C360.749 150.673 361.482 148.434 362.064 146.033C362.625 143.628 362.979 141.299 363.195 139.171C363.382 137.04 363.449 135.11 363.406 133.49C363.414 132.679 363.35 131.948 363.322 131.304C363.299 130.659 363.25 130.107 363.205 129.655C363.127 128.75 363.1 128.246 363.135 128.241Z" fill="#263238"/>
<path d="M360.013 101.422C360.035 101.449 359.645 101.76 358.905 102.304C358.109 102.741 356.916 103.382 355.294 103.702C352.076 104.435 347.43 104.282 342.524 102.974L342.378 102.935L342.345 102.786C342.278 102.487 342.207 102.165 342.135 101.842C341.609 99.247 341.485 96.688 341.805 94.403C342.095 92.114 342.888 90.123 343.905 88.698C344.887 87.232 346.088 86.415 346.872 85.865C347.727 85.402 348.203 85.166 348.219 85.198C348.235 85.23 347.791 85.528 346.985 86.034C346.249 86.627 345.118 87.463 344.21 88.905C343.266 90.307 342.537 92.236 342.28 94.466C341.995 96.689 342.129 99.193 342.645 101.738C342.715 102.055 342.785 102.37 342.851 102.663L342.672 102.475C347.483 103.765 352.069 103.977 355.221 103.35C356.817 103.083 357.995 102.509 358.807 102.134C359.559 101.652 359.99 101.395 360.013 101.422Z" fill="#263238"/>
<path d="M364.109 88.463C364.124 88.558 362.646 88.765 360.354 89.444C359.206 89.776 357.869 90.267 356.425 90.899C354.991 91.554 353.455 92.364 351.928 93.354C350.41 94.359 349.054 95.445 347.881 96.498C346.725 97.57 345.741 98.6 344.978 99.52C343.441 101.351 342.661 102.623 342.58 102.571C342.549 102.552 342.723 102.223 343.065 101.64C343.398 101.052 343.951 100.242 344.692 99.287C345.427 98.326 346.397 97.254 347.554 96.145C348.728 95.055 350.098 93.939 351.642 92.917C353.195 91.91 354.764 91.099 356.232 90.458C357.71 89.84 359.08 89.378 360.255 89.087C361.427 88.789 362.39 88.605 363.062 88.534C363.733 88.455 364.104 88.427 364.109 88.463Z" fill="#263238"/>
<path d="M347.417 103.872C347.434 103.876 347.421 103.979 347.378 104.173C347.345 104.37 347.253 104.648 347.111 104.999C346.821 105.695 346.208 106.649 345.133 107.5C344.062 108.322 342.483 109.044 340.638 108.951C338.791 108.888 336.878 107.771 335.689 106.036C334.5 104.301 334.148 102.113 334.757 100.367C335.336 98.612 336.58 97.4 337.733 96.699C338.914 96.004 340.026 95.776 340.779 95.758C341.158 95.752 341.45 95.766 341.646 95.807C341.842 95.837 341.942 95.862 341.94 95.879C341.935 95.933 341.523 95.876 340.795 95.96C340.071 96.039 339.025 96.313 337.928 97.012C336.856 97.716 335.721 98.889 335.214 100.513C334.68 102.12 335.014 104.124 336.119 105.742C337.229 107.355 338.977 108.39 340.668 108.472C342.365 108.585 343.869 107.95 344.913 107.205C345.96 106.435 346.594 105.558 346.929 104.911C347.269 104.262 347.364 103.857 347.417 103.872Z" fill="#263238"/>
<path d="M335.293 104.122C335.245 104.172 334.946 103.578 335.42 102.798C335.642 102.431 336.063 102.054 336.607 101.871C337.147 101.675 337.773 101.64 338.393 101.684C340.889 101.861 342.704 102.834 342.636 102.949C342.581 103.094 340.74 102.369 338.358 102.204C337.179 102.084 336.156 102.395 335.722 103.009C335.258 103.59 335.375 104.115 335.293 104.122Z" fill="#263238"/>
<path d="M329.147 70.396C329.245 70.441 328.042 71.857 327.621 74.673C327.391 76.066 327.36 77.754 327.384 79.636C327.407 81.513 327.491 83.581 327.917 85.69C328.866 89.89 330.583 93.504 332.188 95.814C333 96.978 333.716 97.881 334.223 98.491C334.731 99.102 335.046 99.407 335.022 99.436C334.962 99.511 333.6 98.334 331.889 96.029C330.171 93.715 328.38 90.095 327.407 85.794C326.971 83.629 326.902 81.528 326.905 79.638C326.907 77.751 326.976 76.028 327.259 74.609C327.524 73.186 327.993 72.091 328.402 71.397C328.812 70.701 329.127 70.38 329.147 70.396Z" fill="#263238"/>
<path d="M334.329 82.259C334.382 82.22 334.946 82.851 335.735 83.968C336.524 85.083 337.52 86.7 338.392 88.602C339.265 90.505 339.833 92.319 340.149 93.649C340.464 94.981 340.555 95.823 340.492 95.836C340.33 95.874 339.65 92.565 337.919 88.819C336.204 85.069 334.188 82.358 334.329 82.259Z" fill="#263238"/>
<path d="M332.637 88.49C332.742 88.401 334.425 90.105 336.632 92.083C338.831 94.07 340.592 95.722 340.49 95.837C340.401 95.938 338.492 94.467 336.281 92.468C334.061 90.477 332.521 88.586 332.637 88.49Z" fill="#263238"/>
<path d="M358.808 111.951C358.813 111.957 358.763 112.005 358.664 112.092C358.523 112.212 358.378 112.335 358.224 112.467C357.843 112.794 357.261 113.231 356.517 113.735C355.033 114.746 352.833 115.946 350.222 116.808C347.608 117.662 345.124 118 343.33 118.066C342.433 118.101 341.704 118.094 341.204 118.057C341.002 118.043 340.812 118.029 340.628 118.016C340.496 118.004 340.428 117.995 340.428 117.988C340.428 117.981 340.498 117.976 340.63 117.974C340.814 117.975 341.004 117.975 341.207 117.976C341.707 117.988 342.432 117.973 343.323 117.919C345.105 117.816 347.564 117.457 350.158 116.61C352.748 115.755 354.941 114.586 356.437 113.612C357.187 113.127 357.779 112.71 358.175 112.403C358.338 112.283 358.491 112.169 358.639 112.06C358.745 111.984 358.803 111.946 358.808 111.951Z" fill="#FAFAFA"/>
<path d="M364.699 124.053C364.703 124.059 364.653 124.107 364.553 124.193C364.411 124.311 364.264 124.433 364.108 124.563C363.723 124.886 363.138 125.32 362.393 125.825C360.907 126.836 358.72 128.057 356.133 128.993C353.543 129.923 351.08 130.378 349.29 130.548C348.395 130.635 347.667 130.674 347.165 130.671C346.962 130.67 346.771 130.67 346.586 130.669C346.454 130.666 346.384 130.661 346.384 130.654C346.384 130.647 346.453 130.638 346.585 130.627C346.769 130.615 346.959 130.603 347.161 130.589C347.661 130.567 348.385 130.506 349.273 130.401C351.05 130.194 353.489 129.719 356.061 128.796C358.629 127.866 360.811 126.675 362.311 125.701C363.062 125.215 363.658 124.8 364.057 124.498C364.221 124.379 364.375 124.267 364.525 124.159C364.635 124.085 364.694 124.048 364.699 124.053Z" fill="#FAFAFA"/>
<path d="M363.063 141.706C363.071 141.718 362.92 141.828 362.639 142.018C362.36 142.211 361.941 142.465 361.409 142.756C360.347 143.339 358.803 144.02 357.01 144.491C355.215 144.958 353.535 145.121 352.324 145.132C351.718 145.139 351.228 145.123 350.89 145.091C350.552 145.063 350.367 145.041 350.368 145.026C350.369 145.012 350.556 145.007 350.894 145.01C351.231 145.017 351.719 145.011 352.32 144.985C353.522 144.936 355.181 144.752 356.958 144.289C358.733 143.822 360.27 143.171 361.342 142.625C361.879 142.353 362.307 142.12 362.598 141.949C362.889 141.781 363.055 141.693 363.063 141.706Z" fill="#FAFAFA"/>
<path d="M366.456 139.005C366.467 139.062 365.862 139.226 365.105 139.371C364.348 139.517 363.726 139.589 363.715 139.533C363.704 139.477 364.309 139.313 365.066 139.167C365.823 139.021 366.445 138.949 366.456 139.005Z" fill="#FAFAFA"/>
<path d="M356.533 159.76C356.541 159.813 355.518 159.97 354.252 159.875C352.985 159.785 351.996 159.48 352.011 159.429C352.025 159.369 353.021 159.579 354.267 159.667C355.511 159.762 356.527 159.699 356.533 159.76Z" fill="#FAFAFA"/>
<path d="M337.555 107.468C337.583 107.518 336.986 107.901 336.222 108.322C335.458 108.744 334.816 109.045 334.788 108.994C334.76 108.943 335.357 108.561 336.121 108.139C336.885 107.718 337.527 107.417 337.555 107.468Z" fill="#FAFAFA"/>
<path d="M332.589 96.971C332.615 97.035 331.149 97.474 329.642 98.556C328.124 99.624 327.227 100.863 327.175 100.818C327.155 100.804 327.352 100.477 327.749 100.006C328.144 99.535 328.754 98.933 329.522 98.386C330.29 97.841 331.06 97.463 331.634 97.245C332.208 97.026 332.582 96.947 332.589 96.971Z" fill="#FAFAFA"/>
<path d="M341.597 108.597C341.529 108.587 341.875 107.235 341.65 105.566C341.444 103.894 340.765 102.675 340.828 102.648C340.849 102.636 341.046 102.922 341.274 103.434C341.503 103.944 341.745 104.689 341.856 105.539C341.965 106.39 341.92 107.171 341.829 107.723C341.738 108.276 341.621 108.603 341.597 108.597Z" fill="#FAFAFA"/>
<path d="M372.538 75.982C372.538 75.982 372.187 76.434 371.442 77.149C370.7 77.865 369.541 78.82 367.983 79.811C366.424 80.801 364.463 81.804 362.232 82.784C360.004 83.771 357.51 84.746 354.982 85.959C352.46 87.176 350.152 88.565 348.35 90.189C346.546 91.808 345.25 93.611 344.455 95.259C343.663 96.914 343.352 98.388 343.267 99.408C343.178 100.431 343.251 101.001 343.217 101.002C343.217 101.002 343.198 100.861 343.183 100.59C343.156 100.319 343.161 99.918 343.186 99.402C343.247 98.373 343.538 96.877 344.322 95.196C345.108 93.522 346.405 91.69 348.221 90.046C350.035 88.396 352.358 86.993 354.891 85.771C357.429 84.553 359.927 83.584 362.154 82.608C364.384 81.639 366.343 80.655 367.904 79.686C369.464 78.717 370.63 77.785 371.386 77.09C371.763 76.741 372.051 76.465 372.238 76.268C372.43 76.076 372.538 75.982 372.538 75.982Z" fill="#FAFAFA"/>
<path d="M369.834 87.851C369.84 87.855 369.794 87.933 369.701 88.078C369.573 88.271 369.436 88.477 369.285 88.706C368.926 89.252 368.364 90.016 367.632 90.928C366.173 92.755 363.939 95.123 361.116 97.32C358.286 99.511 355.438 101.088 353.306 102.048C352.241 102.531 351.362 102.886 350.743 103.099C350.484 103.189 350.25 103.271 350.032 103.346C349.869 103.4 349.782 103.426 349.78 103.419C349.778 103.412 349.86 103.374 350.018 103.307C350.232 103.22 350.461 103.127 350.714 103.023C351.322 102.788 352.19 102.413 353.243 101.915C355.352 100.924 358.172 99.335 360.987 97.156C363.795 94.97 366.033 92.632 367.517 90.835C368.261 89.938 368.839 89.19 369.218 88.659C369.381 88.439 369.528 88.24 369.666 88.055C369.77 87.917 369.828 87.847 369.834 87.851Z" fill="#FAFAFA"/>
<path d="M328.093 73.799C328.093 73.799 329.326 74.269 331.124 75.404C332.92 76.531 335.23 78.403 337.254 80.947C339.269 83.499 340.564 86.177 341.25 88.183C341.944 90.192 342.12 91.5 342.12 91.5C342.113 91.501 342.087 91.423 342.044 91.273C341.989 91.068 341.931 90.851 341.867 90.615C341.728 90.041 341.474 89.222 341.111 88.232C340.393 86.25 339.088 83.608 337.09 81.076C335.083 78.553 332.808 76.679 331.043 75.527C330.162 74.948 329.423 74.514 328.896 74.247C328.68 74.131 328.483 74.025 328.296 73.924C328.16 73.848 328.09 73.805 328.093 73.799Z" fill="#FAFAFA"/>
<path d="M277.942 111.403C278.333 116.703 274.833 121.438 271.306 125.414C267.779 129.39 263.855 133.534 263.093 138.794C261.742 148.116 270.868 156.77 268.986 165.999C267.977 170.945 263.927 174.918 263.206 179.915C262.508 184.747 265.098 189.477 268.308 193.156C271.518 196.835 275.236 196.297 278.075 200.269C281.066 204.453 285.881 208.747 290.393 211.217C300.621 216.818 312.896 208.714 317.83 207.26" fill="#263238"/>
<path d="M355.289 133.125C360.004 131.073 360.374 114.177 348.545 112.226C343.8 111.443 339.848 109.128 335.859 106.443C332.327 104.066 331.28 98.032 328.289 95.001C320.954 87.565 309.502 84.483 299.426 87.232C289.35 89.981 281.049 98.452 278.507 108.582C276.789 115.428 277.962 123.521 283.358 128.071C289.621 133.351 298.906 132.178 306.931 130.536C314.956 128.894 324.039 127.273 330.739 131.986C334.78 134.828 337.096 139.451 339.566 143.729C342.036 148.008 345.136 152.376 349.807 153.984C349.807 153.984 353.363 162.342 350.46 168.16C347.557 173.978 353.874 164.056 353.874 164.056C353.874 164.056 365.391 143.577 355.289 133.125Z" fill="#263238"/>
<path d="M295.374 251.706C295.308 240.675 295.378 209.701 295.374 209.758C295.374 209.758 277.852 206.809 274.271 183.932C272.49 172.555 273.103 153.909 274.097 138.668C274.992 124.95 284.119 108.137 297.787 109.613L340.45 120.497C344.602 120.945 347.72 124.496 347.629 128.672L345.032 234.625L295.374 251.706Z" fill="#FFBE9D"/>
<path d="M281.359 151.736C281.301 153.285 282.564 154.611 284.181 154.701C285.794 154.791 287.152 153.612 287.21 152.063C287.268 150.515 286.005 149.186 284.392 149.096C282.775 149.006 281.418 150.188 281.359 151.736Z" fill="#263238"/>
<path d="M278.121 148.376C278.484 148.759 280.71 147.12 283.866 147.135C287.019 147.105 289.331 148.734 289.675 148.348C289.843 148.178 289.474 147.486 288.467 146.749C287.476 146.016 285.784 145.301 283.818 145.305C281.852 145.311 280.197 146.032 279.245 146.77C278.273 147.514 277.943 148.205 278.121 148.376Z" fill="#263238"/>
<path d="M309.143 153.406C309.507 153.789 311.735 152.15 314.889 152.165C318.041 152.135 320.355 153.764 320.698 153.378C320.866 153.207 320.501 152.517 319.49 151.78C318.499 151.046 316.808 150.331 314.842 150.335C312.876 150.342 311.221 151.062 310.268 151.8C309.298 152.543 308.966 153.234 309.143 153.406Z" fill="#263238"/>
<path d="M297.637 172.415C297.652 172.235 295.691 171.892 292.513 171.478C291.707 171.393 290.945 171.231 290.81 170.681C290.622 170.098 290.961 169.23 291.353 168.293C292.115 166.344 292.913 164.302 293.75 162.162C297.079 153.432 299.491 146.253 299.138 146.122C298.785 145.991 295.8 152.961 292.472 161.691C291.671 163.844 290.904 165.896 290.175 167.86C289.868 168.775 289.341 169.813 289.75 171.022C289.966 171.625 290.556 172.063 291.073 172.203C291.589 172.362 292.043 172.372 292.441 172.396C295.64 172.575 297.625 172.594 297.637 172.415Z" fill="#263238"/>
<path d="M295.374 209.757C295.374 209.757 310.757 210.783 326.02 201.655C325.762 201.71 317.586 217.553 295.671 215.158L295.374 209.757Z" fill="#EB996E"/>
<path d="M298.548 181.525C298.172 179.583 300.456 178.953 302.136 177.909C303.816 176.865 304.782 175.477 306.356 176.675C307.255 177.359 307.897 178.342 308.301 179.397C308.573 180.108 308.744 180.881 308.616 181.631C308.461 182.543 307.881 183.33 307.21 183.966C306.261 184.866 305.074 185.543 303.784 185.759C302.494 185.974 301.101 185.696 300.074 184.887C299.047 184.077 298.441 182.715 298.66 181.426" fill="#EB996E"/>
<path d="M306.921 174.618C306.408 174.587 306.394 178.013 303.456 180.438C300.524 182.871 296.873 182.478 296.845 182.957C296.796 183.172 297.657 183.624 299.198 183.669C300.71 183.724 302.919 183.244 304.716 181.76C306.508 180.273 307.282 178.285 307.402 176.88C307.535 175.448 307.155 174.599 306.921 174.618Z" fill="#263238"/>
<path d="M308.674 146.355C308.983 147.213 312.136 146.814 315.837 147.268C319.548 147.648 322.532 148.739 323.025 147.97C323.245 147.602 322.726 146.794 321.521 145.961C320.326 145.129 318.418 144.336 316.196 144.084C313.973 143.836 311.938 144.184 310.587 144.73C309.227 145.274 308.542 145.947 308.674 146.355Z" fill="#263238"/>
<path d="M278.561 137.46C279.115 138.178 281.29 137.439 283.905 137.409C286.518 137.288 288.732 137.901 289.244 137.153C289.468 136.789 289.121 136.071 288.155 135.39C287.203 134.712 285.61 134.156 283.813 134.206C282.017 134.259 280.459 134.906 279.548 135.638C278.622 136.372 278.317 137.109 278.561 137.46Z" fill="#263238"/>
<path d="M350.13 197.004C343.841 198.272 343.28 195.071 338.581 190.703C333.882 186.335 331.455 179.644 332.261 173.279C332.972 167.662 336 161.948 334.053 156.631C331.478 149.602 321.626 147.44 319.011 140.426C317.491 136.35 318.855 131.581 317.133 127.586C315.513 123.829 311.561 121.666 307.714 120.275C303.867 118.884 299.742 117.924 296.512 115.413C293.282 112.902 291.268 108.164 293.351 104.644C310.412 106.688 327.227 110.774 343.324 116.786C347.056 118.18 350.977 119.855 353.184 123.172C355.519 126.682 355.407 131.218 355.211 135.429C354.253 155.964 353.294 176.498 352.336 197.033" fill="#263238"/>
<path d="M364.703 189.329C364.717 189.339 364.801 189.243 364.953 189.045C365.094 188.84 365.349 188.559 365.584 188.13C366.101 187.301 366.721 185.966 367.091 184.131C367.457 182.306 367.491 179.94 366.724 177.378C366.009 174.821 364.228 172.075 361.402 170.22C358.688 168.307 355.156 166.974 352.911 163.93C351.791 162.444 351.317 160.514 351.669 158.56C351.975 156.598 352.872 154.674 353.659 152.626C355.408 148.528 355.424 143.409 353.364 138.972C352.326 136.766 350.786 134.709 348.723 133.207C346.675 131.658 344.174 130.86 341.708 130.299C339.231 129.734 336.761 129.406 334.467 128.714C332.18 128.03 329.993 127.005 328.403 125.397C326.773 123.809 326.082 121.611 325.773 119.397C325.461 117.185 325.295 114.89 324.696 112.748C323.578 108.459 321.398 104.659 318.524 101.929C315.651 99.182 312.131 97.605 308.808 97.109C305.473 96.589 302.33 97.207 299.967 98.447C297.578 99.663 295.92 101.349 294.853 102.874C293.79 104.419 293.294 105.808 293.064 106.755C292.827 107.705 292.842 108.226 292.842 108.226C292.99 108.288 293.021 106.08 295.171 103.103C296.254 101.657 297.899 100.07 300.218 98.95C302.509 97.808 305.508 97.271 308.697 97.81C311.871 98.328 315.228 99.88 317.945 102.529C320.671 105.167 322.743 108.833 323.799 112.981C324.365 115.053 324.51 117.237 324.823 119.54C325.12 121.804 325.881 124.314 327.7 126.089C329.463 127.877 331.8 128.955 334.178 129.673C336.581 130.399 339.059 130.725 341.484 131.28C343.896 131.828 346.247 132.59 348.129 134.014C350.041 135.4 351.486 137.316 352.469 139.389C354.415 143.582 354.441 148.362 352.79 152.299C352.035 154.313 351.116 156.289 350.793 158.429C350.411 160.557 350.985 162.821 352.234 164.423C354.729 167.704 358.366 168.981 360.999 170.81C363.737 172.561 365.434 175.095 366.185 177.55C366.973 179.995 367.002 182.284 366.703 184.067C366.079 187.682 364.552 189.265 364.703 189.329Z" fill="#455A64"/>
<path d="M334.947 166.604C329.769 178.522 328.809 192.223 332.275 204.746C333.311 208.487 334.74 212.366 333.856 216.146C332.899 220.238 329.478 223.198 326.981 226.579C322.684 232.399 321.009 240.081 322.495 247.161C323.98 254.241 328.601 260.603 334.874 264.205C335.535 260.444 339.034 257.88 342.484 256.245C345.935 254.61 349.748 253.397 352.379 250.631C355.011 247.864 355.755 242.792 352.696 240.507C361.5 238.207 366.489 227.75 364.636 218.841C362.783 209.932 355.538 202.894 347.297 199.035" fill="#263238"/>
<path d="M344.335 255.409C342.76 256.272 341.233 257.044 341.039 258.829C340.811 260.923 342.819 264.6 343.541 266.579C344.952 270.451 343.889 275.106 340.936 277.981C337.983 280.856 333.301 281.794 329.468 280.28C332.285 280.496 334.676 277.747 334.926 274.933C335.177 272.119 333.812 269.402 332.132 267.13C330.453 264.857 328.419 262.838 326.995 260.397C324.096 255.429 319.791 241.913 323.105 234.342" fill="#263238"/>
<path d="M352.338 240.855C352.328 240.84 352.514 240.683 352.879 240.399C353.246 240.118 353.777 239.692 354.448 239.128C355.781 237.996 357.673 236.283 359.589 233.812C361.493 231.354 363.442 228.093 364.46 224.095C365.46 220.13 365.533 215.396 363.815 210.963C362.96 208.754 361.684 206.797 360.197 205.119C358.726 203.426 357.122 201.951 355.618 200.518C354.112 199.086 352.691 197.694 351.514 196.247C350.333 194.798 349.441 193.287 348.824 191.823C347.544 188.898 347.493 186.186 347.942 184.473C348.17 183.613 348.456 182.98 348.69 182.579C348.929 182.179 349.061 181.975 349.077 181.985C349.145 182.017 348.535 182.821 348.14 184.519C347.763 186.206 347.868 188.832 349.162 191.676C349.787 193.098 350.679 194.568 351.848 195.973C353.018 197.383 354.436 198.751 355.948 200.17C357.458 201.592 359.08 203.068 360.583 204.785C362.1 206.484 363.424 208.505 364.302 210.776C366.067 215.334 365.972 220.176 364.927 224.216C363.861 228.293 361.844 231.582 359.88 234.042C357.903 236.514 355.957 238.198 354.578 239.288C353.884 239.83 353.33 240.232 352.942 240.487C352.556 240.741 352.349 240.869 352.338 240.855Z" fill="#455A64"/>
<path d="M64.943 360.289C67.471 363.456 71.911 362.075 73.874 359.922C75.837 357.768 76.536 354.781 77.165 351.936C78.601 345.434 80.032 338.618 78.256 332.2C77.725 330.281 76.876 328.388 75.419 327.032C73.962 325.675 71.807 324.95 69.918 325.578C67.683 326.322 66.41 328.637 65.522 330.819C62.912 337.234 61.757 344.236 62.169 351.149C62.36 354.378 62.954 357.739 64.943 360.289Z" fill="#2FF44E"/>
<g opacity="0.2">
<path d="M64.943 360.289C67.471 363.456 71.911 362.075 73.874 359.922C75.837 357.768 76.536 354.781 77.165 351.936C78.601 345.434 80.032 338.618 78.256 332.2C77.725 330.281 76.876 328.388 75.419 327.032C73.962 325.675 71.807 324.95 69.918 325.578C67.683 326.322 66.41 328.637 65.522 330.819C62.912 337.234 61.757 344.236 62.169 351.149C62.36 354.378 62.954 357.739 64.943 360.289Z" fill="black"/>
</g>
<path d="M74.69 376.521C78.36 374.325 82.812 373.789 87.067 374.22C89.353 374.452 91.755 374.98 93.402 376.583C95.048 378.186 95.529 381.158 93.853 382.73C92.855 383.666 91.396 383.89 90.03 383.96C86.73 384.129 83.035 383.779 80.526 385.928C79.094 387.154 78.212 389.099 76.451 389.768C74.727 390.423 72.679 389.511 71.646 387.983C70.614 386.455 70.458 384.474 70.78 382.658C70.78 382.66 70.993 378.733 74.69 376.521Z" fill="#2FF44E"/>
<path d="M58.871 365.444C61.202 362.296 61.405 357.906 60.049 354.232C58.693 350.558 55.96 347.531 52.878 345.114C49.265 342.28 45.094 340.16 40.675 338.912C38.936 338.421 37.111 338.062 35.327 338.346C33.542 338.631 31.792 339.662 31.055 341.312C29.965 343.752 31.333 346.542 32.764 348.798C35.285 352.773 38.12 356.549 41.233 360.081C43.737 362.922 46.576 365.701 50.191 366.828C53.806 367.955 57.463 367.566 59.181 365" fill="#2FF44E"/>
<path d="M67.931 410.279C67.975 410.279 68.011 409.738 68.046 408.76C68.084 407.658 68.131 406.273 68.187 404.626C68.27 402.885 68.393 400.812 68.732 398.541C69.07 396.276 69.667 393.807 70.475 391.29C71.318 388.785 72.394 386.49 73.702 384.625C75 382.753 76.559 381.36 78.054 380.519C79.543 379.663 80.901 379.268 81.845 379.071C82.799 378.912 83.333 378.802 83.33 378.76C83.328 378.717 82.788 378.744 81.803 378.833C80.829 378.96 79.41 379.298 77.837 380.136C76.258 380.959 74.6 382.379 73.235 384.292C71.858 386.198 70.741 388.545 69.883 391.095C69.061 393.656 68.477 396.149 68.163 398.461C67.85 400.769 67.773 402.862 67.746 404.614C67.725 406.367 67.765 407.783 67.803 408.761C67.843 409.739 67.888 410.279 67.931 410.279Z" fill="#263238"/>
<path d="M68.015 407.1C68.036 407.098 68.035 406.856 68.011 406.399C67.977 405.874 67.933 405.213 67.88 404.402C67.766 402.669 67.609 400.16 67.507 397.056C67.271 390.85 67.266 382.264 67.705 372.798C68.151 363.328 68.994 354.783 69.866 348.635C70.067 347.095 70.279 345.707 70.485 344.491C70.677 343.272 70.841 342.222 71.009 341.37C71.149 340.569 71.263 339.917 71.354 339.399C71.426 338.947 71.454 338.707 71.433 338.702C71.412 338.697 71.343 338.928 71.231 339.372C71.11 339.884 70.958 340.53 70.771 341.323C70.566 342.169 70.367 343.215 70.142 344.431C69.903 345.645 69.66 347.031 69.431 348.57C68.445 354.717 67.53 363.279 67.083 372.768C66.643 382.254 66.718 390.861 67.068 397.075C67.227 400.183 67.451 402.693 67.639 404.423C67.74 405.231 67.822 405.889 67.887 406.412C67.95 406.865 67.994 407.102 68.015 407.1Z" fill="#263238"/>
<path d="M67.015 390.553C67.058 390.549 67.004 389.808 66.869 388.467C66.708 387.131 66.401 385.204 65.874 382.854C65.325 380.51 64.588 377.733 63.517 374.732C62.488 371.717 61.131 368.478 59.459 365.202C56.175 358.604 51.945 353.307 48.352 350.087C47.503 349.226 46.579 348.624 45.833 348.025C45.448 347.739 45.106 347.452 44.762 347.228C44.417 347.021 44.096 346.828 43.798 346.65C42.639 345.96 41.991 345.598 41.97 345.636C41.879 345.778 44.564 347.138 48.052 350.411C51.526 353.677 55.646 358.942 58.903 365.485C60.561 368.733 61.923 371.941 62.975 374.924C64.069 377.894 64.844 380.64 65.445 382.957C66.024 385.28 66.394 387.183 66.628 388.503C66.837 389.825 66.973 390.557 67.015 390.553Z" fill="#263238"/>
<path d="M219.587 161.759C217.742 155.225 209.251 155.859 209.251 155.859L209.484 160.403C214.393 159.556 217.444 165.309 217.444 165.309L219.587 161.759Z" fill="#E8505B"/>
<path d="M136.036 85.745C131.452 86.231 130.904 91.987 130.904 91.987L133.972 92.351C133.967 88.969 138.167 87.586 138.167 87.586L136.036 85.745Z" fill="#E8505B"/>
<path d="M178.72 24.768C181.517 31.893 190.973 30.236 190.973 30.236L190.205 25.164C184.792 26.66 180.73 20.546 180.73 20.546L178.72 24.768Z" fill="#F9FE00"/>
<path d="M72.085 145.131C67.501 145.617 66.953 151.373 66.953 151.373L70.021 151.737C70.016 148.355 74.216 146.972 74.216 146.972L72.085 145.131Z" fill="#E8505B"/>
<path d="M90.972 47.535C91.638 42.973 86.199 41.015 86.199 41.015L85.085 43.897C88.363 44.732 88.661 49.143 88.661 49.143L90.972 47.535Z" fill="#1A0BCC"/>
<path d="M12.602 117.545C11.779 124.697 21.253 126.429 21.253 126.429L22.963 121.749C17.279 121.235 16.458 114.539 16.458 114.539L12.602 117.545Z" fill="#E8505B"/>
<path d="M237.779 83.032C242.382 83.295 243.854 77.704 243.854 77.704L240.886 76.848C240.343 80.186 235.975 80.871 235.975 80.871L237.779 83.032Z" fill="#E8505B"/>
<path d="M45.326 197.112C44.5793 197.112 43.8653 197 43.184 196.776C42.5027 196.543 41.966 196.244 41.574 195.88L42.092 194.788C42.4653 195.115 42.9413 195.385 43.52 195.6C44.0987 195.815 44.7007 195.922 45.326 195.922C45.8953 195.922 46.3573 195.857 46.712 195.726C47.0667 195.595 47.328 195.418 47.496 195.194C47.664 194.961 47.748 194.699 47.748 194.41C47.748 194.074 47.636 193.803 47.412 193.598C47.1973 193.393 46.9127 193.229 46.558 193.108C46.2127 192.977 45.83 192.865 45.41 192.772C44.99 192.679 44.5653 192.571 44.136 192.45C43.716 192.319 43.3287 192.156 42.974 191.96C42.6287 191.764 42.3487 191.503 42.134 191.176C41.9193 190.84 41.812 190.411 41.812 189.888C41.812 189.384 41.9427 188.922 42.204 188.502C42.4747 188.073 42.8853 187.732 43.436 187.48C43.996 187.219 44.7053 187.088 45.564 187.088C46.1333 187.088 46.698 187.163 47.258 187.312C47.818 187.461 48.3033 187.676 48.714 187.956L48.252 189.076C47.832 188.796 47.3887 188.595 46.922 188.474C46.4553 188.343 46.0027 188.278 45.564 188.278C45.0133 188.278 44.5607 188.348 44.206 188.488C43.8513 188.628 43.59 188.815 43.422 189.048C43.2633 189.281 43.184 189.543 43.184 189.832C43.184 190.177 43.2913 190.453 43.506 190.658C43.73 190.863 44.0147 191.027 44.36 191.148C44.7147 191.269 45.102 191.381 45.522 191.484C45.942 191.577 46.362 191.685 46.782 191.806C47.2113 191.927 47.5987 192.086 47.944 192.282C48.2987 192.478 48.5833 192.739 48.798 193.066C49.0127 193.393 49.12 193.813 49.12 194.326C49.12 194.821 48.9847 195.283 48.714 195.712C48.4433 196.132 48.0233 196.473 47.454 196.734C46.894 196.986 46.1847 197.112 45.326 197.112ZM54.0913 197.084C53.4566 197.084 52.8966 196.967 52.4113 196.734C51.9353 196.501 51.562 196.146 51.2913 195.67C51.03 195.185 50.8993 194.578 50.8993 193.85V189.58H52.2433V193.696C52.2433 194.424 52.416 194.97 52.7613 195.334C53.116 195.698 53.6106 195.88 54.2453 195.88C54.712 195.88 55.118 195.787 55.4633 195.6C55.8086 195.404 56.0746 195.124 56.2613 194.76C56.448 194.387 56.5413 193.939 56.5413 193.416V189.58H57.8853V197H56.6113V194.998L56.8213 195.53C56.5786 196.025 56.2146 196.407 55.7293 196.678C55.244 196.949 54.698 197.084 54.0913 197.084ZM65.0499 197V195.432L64.9799 195.138V192.464C64.9799 191.895 64.8119 191.456 64.4759 191.148C64.1493 190.831 63.6546 190.672 62.9919 190.672C62.5533 190.672 62.1239 190.747 61.7039 190.896C61.2839 191.036 60.9293 191.227 60.6399 191.47L60.0799 190.462C60.4626 190.154 60.9199 189.921 61.4519 189.762C61.9933 189.594 62.5579 189.51 63.1459 189.51C64.1633 189.51 64.9473 189.757 65.4979 190.252C66.0486 190.747 66.3239 191.503 66.3239 192.52V197H65.0499ZM62.6139 197.084C62.0633 197.084 61.5779 196.991 61.1579 196.804C60.7473 196.617 60.4299 196.361 60.2059 196.034C59.9819 195.698 59.8699 195.32 59.8699 194.9C59.8699 194.499 59.9633 194.135 60.1499 193.808C60.3459 193.481 60.6586 193.22 61.0879 193.024C61.5266 192.828 62.1146 192.73 62.8519 192.73H65.2039V193.696H62.9079C62.2359 193.696 61.7833 193.808 61.5499 194.032C61.3166 194.256 61.1999 194.527 61.1999 194.844C61.1999 195.208 61.3446 195.502 61.6339 195.726C61.9233 195.941 62.3246 196.048 62.8379 196.048C63.3419 196.048 63.7806 195.936 64.1539 195.712C64.5366 195.488 64.8119 195.161 64.9799 194.732L65.2459 195.656C65.0686 196.095 64.7559 196.445 64.3079 196.706C63.8599 196.958 63.2953 197.084 62.6139 197.084ZM75.6369 197.084C74.9182 197.084 74.2742 196.925 73.7049 196.608C73.1449 196.291 72.7015 195.847 72.3749 195.278C72.0482 194.709 71.8849 194.046 71.8849 193.29C71.8849 192.534 72.0482 191.876 72.3749 191.316C72.7015 190.747 73.1449 190.303 73.7049 189.986C74.2742 189.669 74.9182 189.51 75.6369 189.51C76.2622 189.51 76.8269 189.65 77.3309 189.93C77.8349 190.21 78.2362 190.63 78.5349 191.19C78.8429 191.75 78.9969 192.45 78.9969 193.29C78.9969 194.13 78.8475 194.83 78.5489 195.39C78.2595 195.95 77.8629 196.375 77.3589 196.664C76.8549 196.944 76.2809 197.084 75.6369 197.084ZM75.7489 195.908C76.2155 195.908 76.6355 195.801 77.0089 195.586C77.3915 195.371 77.6902 195.068 77.9049 194.676C78.1289 194.275 78.2409 193.813 78.2409 193.29C78.2409 192.758 78.1289 192.301 77.9049 191.918C77.6902 191.526 77.3915 191.223 77.0089 191.008C76.6355 190.793 76.2155 190.686 75.7489 190.686C75.2729 190.686 74.8482 190.793 74.4749 191.008C74.1015 191.223 73.8029 191.526 73.5789 191.918C73.3549 192.301 73.2429 192.758 73.2429 193.29C73.2429 193.813 73.3549 194.275 73.5789 194.676C73.8029 195.068 74.1015 195.371 74.4749 195.586C74.8482 195.801 75.2729 195.908 75.7489 195.908ZM78.2829 197V194.998L78.3669 193.276L78.2269 191.554V186.612H79.5709V197H78.2829ZM85.4178 197.084C84.6245 197.084 83.9245 196.921 83.3178 196.594C82.7205 196.267 82.2538 195.819 81.9178 195.25C81.5912 194.681 81.4278 194.027 81.4278 193.29C81.4278 192.553 81.5865 191.899 81.9038 191.33C82.2305 190.761 82.6738 190.317 83.2338 190C83.8032 189.673 84.4425 189.51 85.1518 189.51C85.8705 189.51 86.5052 189.669 87.0558 189.986C87.6065 190.303 88.0358 190.751 88.3438 191.33C88.6612 191.899 88.8198 192.567 88.8198 193.332C88.8198 193.388 88.8152 193.453 88.8058 193.528C88.8058 193.603 88.8012 193.673 88.7918 193.738H82.4778V192.772H88.0918L87.5458 193.108C87.5552 192.632 87.4572 192.207 87.2518 191.834C87.0465 191.461 86.7618 191.171 86.3978 190.966C86.0432 190.751 85.6278 190.644 85.1518 190.644C84.6852 190.644 84.2698 190.751 83.9058 190.966C83.5418 191.171 83.2572 191.465 83.0518 191.848C82.8465 192.221 82.7438 192.651 82.7438 193.136V193.36C82.7438 193.855 82.8558 194.298 83.0798 194.69C83.3132 195.073 83.6352 195.371 84.0458 195.586C84.4565 195.801 84.9278 195.908 85.4598 195.908C85.8985 195.908 86.2952 195.833 86.6498 195.684C87.0138 195.535 87.3312 195.311 87.6018 195.012L88.3438 195.88C88.0078 196.272 87.5878 196.571 87.0838 196.776C86.5892 196.981 86.0338 197.084 85.4178 197.084ZM94.6481 189.51C95.2548 189.51 95.7868 189.627 96.2441 189.86C96.7108 190.093 97.0748 190.448 97.3361 190.924C97.5974 191.4 97.7281 192.002 97.7281 192.73V197H96.3841V192.884C96.3841 192.165 96.2068 191.624 95.8521 191.26C95.5068 190.896 95.0168 190.714 94.3821 190.714C93.9061 190.714 93.4908 190.807 93.1361 190.994C92.7814 191.181 92.5061 191.456 92.3101 191.82C92.1234 192.184 92.0301 192.637 92.0301 193.178V197H90.6861V189.58H91.9741V191.582L91.7641 191.05C92.0068 190.565 92.3801 190.187 92.8841 189.916C93.3881 189.645 93.9761 189.51 94.6481 189.51ZM103.337 197.084C102.703 197.084 102.143 196.967 101.657 196.734C101.181 196.501 100.808 196.146 100.537 195.67C100.276 195.185 100.145 194.578 100.145 193.85V189.58H101.489V193.696C101.489 194.424 101.662 194.97 102.007 195.334C102.362 195.698 102.857 195.88 103.491 195.88C103.958 195.88 104.364 195.787 104.709 195.6C105.055 195.404 105.321 195.124 105.507 194.76C105.694 194.387 105.787 193.939 105.787 193.416V189.58H107.131V197H105.857V194.998L106.067 195.53C105.825 196.025 105.461 196.407 104.975 196.678C104.49 196.949 103.944 197.084 103.337 197.084ZM113.652 189.51C114.259 189.51 114.791 189.627 115.248 189.86C115.715 190.093 116.079 190.448 116.34 190.924C116.601 191.4 116.732 192.002 116.732 192.73V197H115.388V192.884C115.388 192.165 115.211 191.624 114.856 191.26C114.511 190.896 114.021 190.714 113.386 190.714C112.91 190.714 112.495 190.807 112.14 190.994C111.785 191.181 111.51 191.456 111.314 191.82C111.127 192.184 111.034 192.637 111.034 193.178V197H109.69V189.58H110.978V191.582L110.768 191.05C111.011 190.565 111.384 190.187 111.888 189.916C112.392 189.645 112.98 189.51 113.652 189.51ZM122.453 197.084C121.697 197.084 121.021 196.921 120.423 196.594C119.835 196.267 119.373 195.819 119.037 195.25C118.701 194.681 118.533 194.027 118.533 193.29C118.533 192.553 118.701 191.899 119.037 191.33C119.373 190.761 119.835 190.317 120.423 190C121.021 189.673 121.697 189.51 122.453 189.51C123.125 189.51 123.723 189.645 124.245 189.916C124.777 190.177 125.188 190.569 125.477 191.092L124.455 191.75C124.213 191.386 123.914 191.12 123.559 190.952C123.214 190.775 122.841 190.686 122.439 190.686C121.954 190.686 121.52 190.793 121.137 191.008C120.755 191.223 120.451 191.526 120.227 191.918C120.003 192.301 119.891 192.758 119.891 193.29C119.891 193.822 120.003 194.284 120.227 194.676C120.451 195.068 120.755 195.371 121.137 195.586C121.52 195.801 121.954 195.908 122.439 195.908C122.841 195.908 123.214 195.824 123.559 195.656C123.914 195.479 124.213 195.208 124.455 194.844L125.477 195.488C125.188 196.001 124.777 196.398 124.245 196.678C123.723 196.949 123.125 197.084 122.453 197.084ZM127.122 197V189.58H128.466V197H127.122ZM127.794 188.152C127.532 188.152 127.313 188.068 127.136 187.9C126.968 187.732 126.884 187.527 126.884 187.284C126.884 187.032 126.968 186.822 127.136 186.654C127.313 186.486 127.532 186.402 127.794 186.402C128.055 186.402 128.27 186.486 128.438 186.654C128.615 186.813 128.704 187.013 128.704 187.256C128.704 187.508 128.62 187.723 128.452 187.9C128.284 188.068 128.064 188.152 127.794 188.152ZM135.638 197V195.432L135.568 195.138V192.464C135.568 191.895 135.4 191.456 135.064 191.148C134.737 190.831 134.242 190.672 133.58 190.672C133.141 190.672 132.712 190.747 132.292 190.896C131.872 191.036 131.517 191.227 131.228 191.47L130.668 190.462C131.05 190.154 131.508 189.921 132.04 189.762C132.581 189.594 133.146 189.51 133.734 189.51C134.751 189.51 135.535 189.757 136.086 190.252C136.636 190.747 136.912 191.503 136.912 192.52V197H135.638ZM133.202 197.084C132.651 197.084 132.166 196.991 131.746 196.804C131.335 196.617 131.018 196.361 130.794 196.034C130.57 195.698 130.458 195.32 130.458 194.9C130.458 194.499 130.551 194.135 130.738 193.808C130.934 193.481 131.246 193.22 131.676 193.024C132.114 192.828 132.702 192.73 133.44 192.73H135.792V193.696H133.496C132.824 193.696 132.371 193.808 132.138 194.032C131.904 194.256 131.788 194.527 131.788 194.844C131.788 195.208 131.932 195.502 132.222 195.726C132.511 195.941 132.912 196.048 133.426 196.048C133.93 196.048 134.368 195.936 134.742 195.712C135.124 195.488 135.4 195.161 135.568 194.732L135.834 195.656C135.656 196.095 135.344 196.445 134.896 196.706C134.448 196.958 133.883 197.084 133.202 197.084ZM143.355 197V188.922C143.355 188.194 143.565 187.615 143.985 187.186C144.414 186.747 145.021 186.528 145.805 186.528C146.094 186.528 146.369 186.565 146.631 186.64C146.901 186.705 147.13 186.813 147.317 186.962L146.911 187.984C146.771 187.872 146.612 187.788 146.435 187.732C146.257 187.667 146.071 187.634 145.875 187.634C145.483 187.634 145.184 187.746 144.979 187.97C144.773 188.185 144.671 188.507 144.671 188.936V189.93L144.699 190.546V197H143.355ZM142.095 190.686V189.58H146.827V190.686H142.095ZM151.163 197.084C150.416 197.084 149.754 196.921 149.175 196.594C148.596 196.267 148.139 195.819 147.803 195.25C147.467 194.671 147.299 194.018 147.299 193.29C147.299 192.553 147.467 191.899 147.803 191.33C148.139 190.761 148.596 190.317 149.175 190C149.754 189.673 150.416 189.51 151.163 189.51C151.9 189.51 152.558 189.673 153.137 190C153.725 190.317 154.182 190.761 154.509 191.33C154.845 191.89 155.013 192.543 155.013 193.29C155.013 194.027 154.845 194.681 154.509 195.25C154.182 195.819 153.725 196.267 153.137 196.594C152.558 196.921 151.9 197.084 151.163 197.084ZM151.163 195.908C151.639 195.908 152.064 195.801 152.437 195.586C152.82 195.371 153.118 195.068 153.333 194.676C153.548 194.275 153.655 193.813 153.655 193.29C153.655 192.758 153.548 192.301 153.333 191.918C153.118 191.526 152.82 191.223 152.437 191.008C152.064 190.793 151.639 190.686 151.163 190.686C150.687 190.686 150.262 190.793 149.889 191.008C149.516 191.223 149.217 191.526 148.993 191.918C148.769 192.301 148.657 192.758 148.657 193.29C148.657 193.813 148.769 194.275 148.993 194.676C149.217 195.068 149.516 195.371 149.889 195.586C150.262 195.801 150.687 195.908 151.163 195.908ZM156.872 197V189.58H158.216V197H156.872ZM157.544 188.152C157.282 188.152 157.063 188.068 156.886 187.9C156.718 187.732 156.634 187.527 156.634 187.284C156.634 187.032 156.718 186.822 156.886 186.654C157.063 186.486 157.282 186.402 157.544 186.402C157.805 186.402 158.02 186.486 158.188 186.654C158.365 186.813 158.454 187.013 158.454 187.256C158.454 187.508 158.37 187.723 158.202 187.9C158.034 188.068 157.814 188.152 157.544 188.152ZM164.542 197V189.58H165.83V191.596L165.704 191.092C165.909 190.579 166.254 190.187 166.74 189.916C167.225 189.645 167.822 189.51 168.532 189.51V190.812C168.476 190.803 168.42 190.798 168.364 190.798C168.317 190.798 168.27 190.798 168.224 190.798C167.505 190.798 166.936 191.013 166.516 191.442C166.096 191.871 165.886 192.492 165.886 193.304V197H164.542ZM173.424 197.084C172.63 197.084 171.93 196.921 171.324 196.594C170.726 196.267 170.26 195.819 169.924 195.25C169.597 194.681 169.434 194.027 169.434 193.29C169.434 192.553 169.592 191.899 169.91 191.33C170.236 190.761 170.68 190.317 171.24 190C171.809 189.673 172.448 189.51 173.158 189.51C173.876 189.51 174.511 189.669 175.062 189.986C175.612 190.303 176.042 190.751 176.35 191.33C176.667 191.899 176.826 192.567 176.826 193.332C176.826 193.388 176.821 193.453 176.812 193.528C176.812 193.603 176.807 193.673 176.798 193.738H170.484V192.772H176.098L175.552 193.108C175.561 192.632 175.463 192.207 175.258 191.834C175.052 191.461 174.768 191.171 174.404 190.966C174.049 190.751 173.634 190.644 173.158 190.644C172.691 190.644 172.276 190.751 171.912 190.966C171.548 191.171 171.263 191.465 171.058 191.848C170.852 192.221 170.75 192.651 170.75 193.136V193.36C170.75 193.855 170.862 194.298 171.086 194.69C171.319 195.073 171.641 195.371 172.052 195.586C172.462 195.801 172.934 195.908 173.466 195.908C173.904 195.908 174.301 195.833 174.656 195.684C175.02 195.535 175.337 195.311 175.608 195.012L176.35 195.88C176.014 196.272 175.594 196.571 175.09 196.776C174.595 196.981 174.04 197.084 173.424 197.084ZM181.94 199.8C181.259 199.8 180.596 199.702 179.952 199.506C179.317 199.319 178.799 199.049 178.398 198.694L179.042 197.658C179.387 197.957 179.812 198.19 180.316 198.358C180.82 198.535 181.347 198.624 181.898 198.624C182.775 198.624 183.419 198.419 183.83 198.008C184.241 197.597 184.446 196.972 184.446 196.132V194.564L184.586 193.094L184.516 191.61V189.58H185.79V195.992C185.79 197.299 185.463 198.26 184.81 198.876C184.157 199.492 183.2 199.8 181.94 199.8ZM181.772 196.692C181.053 196.692 180.409 196.543 179.84 196.244C179.28 195.936 178.832 195.511 178.496 194.97C178.169 194.429 178.006 193.803 178.006 193.094C178.006 192.375 178.169 191.75 178.496 191.218C178.832 190.677 179.28 190.257 179.84 189.958C180.409 189.659 181.053 189.51 181.772 189.51C182.407 189.51 182.985 189.641 183.508 189.902C184.031 190.154 184.446 190.546 184.754 191.078C185.071 191.61 185.23 192.282 185.23 193.094C185.23 193.897 185.071 194.564 184.754 195.096C184.446 195.628 184.031 196.029 183.508 196.3C182.985 196.561 182.407 196.692 181.772 196.692ZM181.926 195.516C182.421 195.516 182.859 195.413 183.242 195.208C183.625 195.003 183.923 194.718 184.138 194.354C184.362 193.99 184.474 193.57 184.474 193.094C184.474 192.618 184.362 192.198 184.138 191.834C183.923 191.47 183.625 191.19 183.242 190.994C182.859 190.789 182.421 190.686 181.926 190.686C181.431 190.686 180.988 190.789 180.596 190.994C180.213 191.19 179.91 191.47 179.686 191.834C179.471 192.198 179.364 192.618 179.364 193.094C179.364 193.57 179.471 193.99 179.686 194.354C179.91 194.718 180.213 195.003 180.596 195.208C180.988 195.413 181.431 195.516 181.926 195.516ZM188.358 197V189.58H189.702V197H188.358ZM189.03 188.152C188.769 188.152 188.549 188.068 188.372 187.9C188.204 187.732 188.12 187.527 188.12 187.284C188.12 187.032 188.204 186.822 188.372 186.654C188.549 186.486 188.769 186.402 189.03 186.402C189.291 186.402 189.506 186.486 189.674 186.654C189.851 186.813 189.94 187.013 189.94 187.256C189.94 187.508 189.856 187.723 189.688 187.9C189.52 188.068 189.301 188.152 189.03 188.152ZM194.396 197.084C193.78 197.084 193.192 197 192.632 196.832C192.081 196.664 191.647 196.459 191.33 196.216L191.89 195.152C192.207 195.367 192.599 195.549 193.066 195.698C193.533 195.847 194.009 195.922 194.494 195.922C195.119 195.922 195.567 195.833 195.838 195.656C196.118 195.479 196.258 195.231 196.258 194.914C196.258 194.681 196.174 194.499 196.006 194.368C195.838 194.237 195.614 194.139 195.334 194.074C195.063 194.009 194.76 193.953 194.424 193.906C194.088 193.85 193.752 193.785 193.416 193.71C193.08 193.626 192.772 193.514 192.492 193.374C192.212 193.225 191.988 193.024 191.82 192.772C191.652 192.511 191.568 192.165 191.568 191.736C191.568 191.288 191.694 190.896 191.946 190.56C192.198 190.224 192.553 189.967 193.01 189.79C193.477 189.603 194.027 189.51 194.662 189.51C195.147 189.51 195.637 189.571 196.132 189.692C196.636 189.804 197.047 189.967 197.364 190.182L196.79 191.246C196.454 191.022 196.104 190.868 195.74 190.784C195.376 190.7 195.012 190.658 194.648 190.658C194.06 190.658 193.621 190.756 193.332 190.952C193.043 191.139 192.898 191.381 192.898 191.68C192.898 191.932 192.982 192.128 193.15 192.268C193.327 192.399 193.551 192.501 193.822 192.576C194.102 192.651 194.41 192.716 194.746 192.772C195.082 192.819 195.418 192.884 195.754 192.968C196.09 193.043 196.393 193.15 196.664 193.29C196.944 193.43 197.168 193.626 197.336 193.878C197.513 194.13 197.602 194.466 197.602 194.886C197.602 195.334 197.471 195.721 197.21 196.048C196.949 196.375 196.58 196.631 196.104 196.818C195.628 196.995 195.059 197.084 194.396 197.084ZM201.83 197.084C201.083 197.084 200.504 196.883 200.094 196.482C199.683 196.081 199.478 195.507 199.478 194.76V187.956H200.822V194.704C200.822 195.105 200.92 195.413 201.116 195.628C201.321 195.843 201.61 195.95 201.984 195.95C202.404 195.95 202.754 195.833 203.034 195.6L203.454 196.566C203.248 196.743 203.001 196.874 202.712 196.958C202.432 197.042 202.138 197.084 201.83 197.084ZM198.218 190.686V189.58H202.95V190.686H198.218ZM205.079 197V189.58H206.367V191.596L206.241 191.092C206.446 190.579 206.791 190.187 207.277 189.916C207.762 189.645 208.359 189.51 209.069 189.51V190.812C209.013 190.803 208.957 190.798 208.901 190.798C208.854 190.798 208.807 190.798 208.761 190.798C208.042 190.798 207.473 191.013 207.053 191.442C206.633 191.871 206.423 192.492 206.423 193.304V197H205.079ZM214.784 197V195.432L214.714 195.138V192.464C214.714 191.895 214.546 191.456 214.21 191.148C213.884 190.831 213.389 190.672 212.726 190.672C212.288 190.672 211.858 190.747 211.438 190.896C211.018 191.036 210.664 191.227 210.374 191.47L209.814 190.462C210.197 190.154 210.654 189.921 211.186 189.762C211.728 189.594 212.292 189.51 212.88 189.51C213.898 189.51 214.682 189.757 215.232 190.252C215.783 190.747 216.058 191.503 216.058 192.52V197H214.784ZM212.348 197.084C211.798 197.084 211.312 196.991 210.892 196.804C210.482 196.617 210.164 196.361 209.94 196.034C209.716 195.698 209.604 195.32 209.604 194.9C209.604 194.499 209.698 194.135 209.884 193.808C210.08 193.481 210.393 193.22 210.822 193.024C211.261 192.828 211.849 192.73 212.586 192.73H214.938V193.696H212.642C211.97 193.696 211.518 193.808 211.284 194.032C211.051 194.256 210.934 194.527 210.934 194.844C210.934 195.208 211.079 195.502 211.368 195.726C211.658 195.941 212.059 196.048 212.572 196.048C213.076 196.048 213.515 195.936 213.888 195.712C214.271 195.488 214.546 195.161 214.714 194.732L214.98 195.656C214.803 196.095 214.49 196.445 214.042 196.706C213.594 196.958 213.03 197.084 212.348 197.084ZM221.611 197.084C220.893 197.084 220.249 196.925 219.679 196.608C219.119 196.291 218.676 195.847 218.349 195.278C218.023 194.709 217.859 194.046 217.859 193.29C217.859 192.534 218.023 191.876 218.349 191.316C218.676 190.747 219.119 190.303 219.679 189.986C220.249 189.669 220.893 189.51 221.611 189.51C222.237 189.51 222.801 189.65 223.305 189.93C223.809 190.21 224.211 190.63 224.509 191.19C224.817 191.75 224.971 192.45 224.971 193.29C224.971 194.13 224.822 194.83 224.523 195.39C224.234 195.95 223.837 196.375 223.333 196.664C222.829 196.944 222.255 197.084 221.611 197.084ZM221.723 195.908C222.19 195.908 222.61 195.801 222.983 195.586C223.366 195.371 223.665 195.068 223.879 194.676C224.103 194.275 224.215 193.813 224.215 193.29C224.215 192.758 224.103 192.301 223.879 191.918C223.665 191.526 223.366 191.223 222.983 191.008C222.61 190.793 222.19 190.686 221.723 190.686C221.247 190.686 220.823 190.793 220.449 191.008C220.076 191.223 219.777 191.526 219.553 191.918C219.329 192.301 219.217 192.758 219.217 193.29C219.217 193.813 219.329 194.275 219.553 194.676C219.777 195.068 220.076 195.371 220.449 195.586C220.823 195.801 221.247 195.908 221.723 195.908ZM224.257 197V194.998L224.341 193.276L224.201 191.554V186.612H225.545V197H224.257ZM232.694 197V195.432L232.624 195.138V192.464C232.624 191.895 232.456 191.456 232.12 191.148C231.794 190.831 231.299 190.672 230.636 190.672C230.198 190.672 229.768 190.747 229.348 190.896C228.928 191.036 228.574 191.227 228.284 191.47L227.724 190.462C228.107 190.154 228.564 189.921 229.096 189.762C229.638 189.594 230.202 189.51 230.79 189.51C231.808 189.51 232.592 189.757 233.142 190.252C233.693 190.747 233.968 191.503 233.968 192.52V197H232.694ZM230.258 197.084C229.708 197.084 229.222 196.991 228.802 196.804C228.392 196.617 228.074 196.361 227.85 196.034C227.626 195.698 227.514 195.32 227.514 194.9C227.514 194.499 227.608 194.135 227.794 193.808C227.99 193.481 228.303 193.22 228.732 193.024C229.171 192.828 229.759 192.73 230.496 192.73H232.848V193.696H230.552C229.88 193.696 229.428 193.808 229.194 194.032C228.961 194.256 228.844 194.527 228.844 194.844C228.844 195.208 228.989 195.502 229.278 195.726C229.568 195.941 229.969 196.048 230.482 196.048C230.986 196.048 231.425 195.936 231.798 195.712C232.181 195.488 232.456 195.161 232.624 194.732L232.89 195.656C232.713 196.095 232.4 196.445 231.952 196.706C231.504 196.958 230.94 197.084 230.258 197.084ZM236.526 193.906L236.274 187.2H237.856L237.59 193.906H236.526ZM237.072 197.084C236.81 197.084 236.591 196.995 236.414 196.818C236.236 196.641 236.148 196.431 236.148 196.188C236.148 195.927 236.236 195.712 236.414 195.544C236.591 195.376 236.81 195.292 237.072 195.292C237.333 195.292 237.548 195.376 237.716 195.544C237.884 195.712 237.968 195.927 237.968 196.188C237.968 196.431 237.884 196.641 237.716 196.818C237.548 196.995 237.333 197.084 237.072 197.084Z" fill="black"/>
<path d="M67.447 219.065C66.771 219.065 66.1427 218.952 65.562 218.727C64.99 218.493 64.4873 218.168 64.054 217.752C63.6293 217.327 63.3 216.838 63.066 216.283C62.832 215.72 62.715 215.109 62.715 214.45C62.715 213.791 62.832 213.185 63.066 212.63C63.3 212.067 63.6293 211.577 64.054 211.161C64.4873 210.736 64.99 210.411 65.562 210.186C66.1427 209.952 66.771 209.835 67.447 209.835C68.123 209.835 68.747 209.952 69.319 210.186C69.8997 210.411 70.4023 210.732 70.827 211.148C71.2517 211.564 71.581 212.054 71.815 212.617C72.0577 213.172 72.179 213.783 72.179 214.45C72.179 215.117 72.0577 215.733 71.815 216.296C71.581 216.851 71.2517 217.336 70.827 217.752C70.4023 218.168 69.8997 218.493 69.319 218.727C68.747 218.952 68.123 219.065 67.447 219.065ZM67.447 218.454C68.0277 218.454 68.565 218.354 69.059 218.155C69.553 217.956 69.982 217.674 70.346 217.31C70.71 216.946 70.9917 216.521 71.191 216.036C71.399 215.551 71.503 215.022 71.503 214.45C71.503 213.869 71.399 213.341 71.191 212.864C70.9917 212.379 70.71 211.954 70.346 211.59C69.982 211.226 69.553 210.944 69.059 210.745C68.565 210.546 68.0277 210.446 67.447 210.446C66.8663 210.446 66.329 210.546 65.835 210.745C65.341 210.944 64.9077 211.226 64.535 211.59C64.171 211.954 63.885 212.379 63.677 212.864C63.4777 213.341 63.378 213.869 63.378 214.45C63.378 215.022 63.4777 215.551 63.677 216.036C63.885 216.521 64.171 216.946 64.535 217.31C64.9077 217.674 65.341 217.956 65.835 218.155C66.329 218.354 66.8663 218.454 67.447 218.454ZM77.6766 219.052C77.0786 219.052 76.5369 218.913 76.0516 218.636C75.5749 218.359 75.1936 217.96 74.9076 217.44C74.6302 216.92 74.4916 216.309 74.4916 215.607C74.4916 214.888 74.6302 214.272 74.9076 213.761C75.1936 213.25 75.5749 212.855 76.0516 212.578C76.5369 212.301 77.0786 212.162 77.6766 212.162C78.3179 212.162 78.8899 212.309 79.3926 212.604C79.9039 212.89 80.3026 213.293 80.5886 213.813C80.8832 214.324 81.0306 214.922 81.0306 215.607C81.0306 216.283 80.8832 216.881 80.5886 217.401C80.3026 217.921 79.9039 218.328 79.3926 218.623C78.8899 218.909 78.3179 219.052 77.6766 219.052ZM74.2706 219V209.354H74.9206V214.411L74.7906 215.594L74.8946 216.777V219H74.2706ZM77.6376 218.467C78.1576 218.467 78.6256 218.35 79.0416 218.116C79.4576 217.873 79.7826 217.535 80.0166 217.102C80.2592 216.669 80.3806 216.17 80.3806 215.607C80.3806 215.035 80.2592 214.537 80.0166 214.112C79.7826 213.679 79.4576 213.345 79.0416 213.111C78.6256 212.868 78.1576 212.747 77.6376 212.747C77.1176 212.747 76.6496 212.868 76.2336 213.111C75.8262 213.345 75.5012 213.679 75.2586 214.112C75.0246 214.537 74.9076 215.035 74.9076 215.607C74.9076 216.17 75.0246 216.669 75.2586 217.102C75.5012 217.535 75.8262 217.873 76.2336 218.116C76.6496 218.35 77.1176 218.467 77.6376 218.467ZM83.043 219V212.214H83.667V214.073L83.602 213.865C83.7927 213.319 84.1134 212.899 84.564 212.604C85.0147 212.309 85.578 212.162 86.254 212.162V212.799C86.228 212.799 86.202 212.799 86.176 212.799C86.15 212.79 86.124 212.786 86.098 212.786C85.344 212.786 84.7547 213.024 84.33 213.501C83.9054 213.969 83.693 214.623 83.693 215.464V219H83.043ZM88.045 219V212.214H88.695V219H88.045ZM88.37 210.563C88.2227 210.563 88.097 210.511 87.993 210.407C87.889 210.303 87.837 210.182 87.837 210.043C87.837 209.896 87.889 209.77 87.993 209.666C88.097 209.562 88.2227 209.51 88.37 209.51C88.526 209.51 88.6517 209.562 88.747 209.666C88.851 209.761 88.903 209.883 88.903 210.03C88.903 210.177 88.851 210.303 88.747 210.407C88.6517 210.511 88.526 210.563 88.37 210.563ZM94.2556 221.574C93.6403 221.574 93.0553 221.479 92.5006 221.288C91.946 221.097 91.4953 220.833 91.1486 220.495L91.4996 220.001C91.8376 220.313 92.2406 220.556 92.7086 220.729C93.1853 220.902 93.6966 220.989 94.2426 220.989C95.1526 220.989 95.82 220.777 96.2446 220.352C96.678 219.927 96.8946 219.26 96.8946 218.35V216.465L97.0246 215.451L96.9206 214.437V212.214H97.5446V218.272C97.5446 219.407 97.2673 220.239 96.7126 220.768C96.1666 221.305 95.3476 221.574 94.2556 221.574ZM94.0736 218.753C93.4323 218.753 92.856 218.614 92.3446 218.337C91.842 218.051 91.439 217.661 91.1356 217.167C90.841 216.664 90.6936 216.092 90.6936 215.451C90.6936 214.801 90.841 214.229 91.1356 213.735C91.439 213.241 91.842 212.855 92.3446 212.578C92.856 212.301 93.4323 212.162 94.0736 212.162C94.689 212.162 95.2393 212.296 95.7246 212.565C96.2186 212.825 96.6086 213.202 96.8946 213.696C97.1806 214.181 97.3236 214.766 97.3236 215.451C97.3236 216.127 97.1806 216.712 96.8946 217.206C96.6086 217.7 96.2186 218.081 95.7246 218.35C95.2393 218.619 94.689 218.753 94.0736 218.753ZM94.1256 218.168C94.6716 218.168 95.1526 218.055 95.5686 217.83C95.9846 217.596 96.3096 217.275 96.5436 216.868C96.7863 216.452 96.9076 215.98 96.9076 215.451C96.9076 214.914 96.7863 214.441 96.5436 214.034C96.3096 213.627 95.9846 213.31 95.5686 213.085C95.1526 212.86 94.6716 212.747 94.1256 212.747C93.597 212.747 93.1203 212.86 92.6956 213.085C92.2796 213.31 91.9503 213.627 91.7076 214.034C91.4736 214.441 91.3566 214.914 91.3566 215.451C91.3566 215.98 91.4736 216.452 91.7076 216.868C91.9503 217.275 92.2796 217.596 92.6956 217.83C93.1203 218.055 93.597 218.168 94.1256 218.168ZM104.573 219V217.453L104.547 217.219V214.671C104.547 214.038 104.374 213.557 104.027 213.228C103.689 212.899 103.191 212.734 102.532 212.734C102.064 212.734 101.626 212.816 101.219 212.981C100.82 213.137 100.478 213.341 100.192 213.592L99.867 213.124C100.205 212.821 100.612 212.587 101.089 212.422C101.566 212.249 102.064 212.162 102.584 212.162C103.425 212.162 104.07 212.374 104.521 212.799C104.972 213.224 105.197 213.856 105.197 214.697V219H104.573ZM102.129 219.052C101.626 219.052 101.189 218.974 100.816 218.818C100.452 218.653 100.17 218.424 99.971 218.129C99.7803 217.834 99.685 217.496 99.685 217.115C99.685 216.768 99.763 216.456 99.919 216.179C100.084 215.893 100.352 215.663 100.725 215.49C101.098 215.308 101.596 215.217 102.22 215.217H104.716V215.724H102.233C101.531 215.724 101.037 215.854 100.751 216.114C100.474 216.374 100.335 216.699 100.335 217.089C100.335 217.522 100.5 217.869 100.829 218.129C101.158 218.389 101.622 218.519 102.22 218.519C102.792 218.519 103.273 218.389 103.663 218.129C104.062 217.869 104.356 217.492 104.547 216.998L104.729 217.44C104.547 217.934 104.235 218.328 103.793 218.623C103.36 218.909 102.805 219.052 102.129 219.052ZM110.488 219.052C109.855 219.052 109.283 218.909 108.772 218.623C108.269 218.328 107.871 217.921 107.576 217.401C107.281 216.881 107.134 216.283 107.134 215.607C107.134 214.922 107.281 214.324 107.576 213.813C107.871 213.293 108.269 212.89 108.772 212.604C109.283 212.309 109.855 212.162 110.488 212.162C111.086 212.162 111.623 212.301 112.1 212.578C112.585 212.855 112.967 213.25 113.244 213.761C113.53 214.272 113.673 214.888 113.673 215.607C113.673 216.309 113.534 216.92 113.257 217.44C112.98 217.96 112.598 218.359 112.113 218.636C111.636 218.913 111.095 219.052 110.488 219.052ZM110.527 218.467C111.047 218.467 111.511 218.35 111.918 218.116C112.334 217.873 112.659 217.535 112.893 217.102C113.136 216.669 113.257 216.17 113.257 215.607C113.257 215.035 113.136 214.537 112.893 214.112C112.659 213.679 112.334 213.345 111.918 213.111C111.511 212.868 111.047 212.747 110.527 212.747C110.007 212.747 109.539 212.868 109.123 213.111C108.716 213.345 108.391 213.679 108.148 214.112C107.914 214.537 107.797 215.035 107.797 215.607C107.797 216.17 107.914 216.669 108.148 217.102C108.391 217.535 108.716 217.873 109.123 218.116C109.539 218.35 110.007 218.467 110.527 218.467ZM113.27 219V216.777L113.387 215.594L113.257 214.411V209.354H113.907V219H113.27ZM119.3 219.052C118.65 219.052 118.069 218.905 117.558 218.61C117.055 218.315 116.652 217.908 116.349 217.388C116.054 216.868 115.907 216.274 115.907 215.607C115.907 214.931 116.054 214.337 116.349 213.826C116.652 213.306 117.055 212.899 117.558 212.604C118.069 212.309 118.65 212.162 119.3 212.162C119.95 212.162 120.53 212.309 121.042 212.604C121.553 212.899 121.956 213.306 122.251 213.826C122.545 214.337 122.693 214.931 122.693 215.607C122.693 216.274 122.545 216.868 122.251 217.388C121.956 217.908 121.553 218.315 121.042 218.61C120.53 218.905 119.95 219.052 119.3 219.052ZM119.3 218.467C119.82 218.467 120.288 218.35 120.704 218.116C121.12 217.873 121.445 217.535 121.679 217.102C121.913 216.669 122.03 216.17 122.03 215.607C122.03 215.035 121.913 214.537 121.679 214.112C121.445 213.679 121.12 213.345 120.704 213.111C120.288 212.868 119.82 212.747 119.3 212.747C118.78 212.747 118.312 212.868 117.896 213.111C117.488 213.345 117.163 213.679 116.921 214.112C116.687 214.537 116.57 215.035 116.57 215.607C116.57 216.17 116.687 216.669 116.921 217.102C117.163 217.535 117.488 217.873 117.896 218.116C118.312 218.35 118.78 218.467 119.3 218.467ZM131.454 219.052C130.856 219.052 130.314 218.913 129.829 218.636C129.352 218.359 128.971 217.964 128.685 217.453C128.408 216.933 128.269 216.318 128.269 215.607C128.269 214.896 128.408 214.285 128.685 213.774C128.971 213.254 129.352 212.855 129.829 212.578C130.314 212.301 130.856 212.162 131.454 212.162C132.095 212.162 132.667 212.309 133.17 212.604C133.681 212.89 134.08 213.293 134.366 213.813C134.661 214.333 134.808 214.931 134.808 215.607C134.808 216.283 134.661 216.881 134.366 217.401C134.08 217.921 133.681 218.328 133.17 218.623C132.667 218.909 132.095 219.052 131.454 219.052ZM128.048 221.522V212.214H128.672V214.437L128.568 215.62L128.698 216.803V221.522H128.048ZM131.415 218.467C131.935 218.467 132.403 218.35 132.819 218.116C133.235 217.873 133.56 217.535 133.794 217.102C134.037 216.669 134.158 216.17 134.158 215.607C134.158 215.035 134.037 214.537 133.794 214.112C133.56 213.679 133.235 213.345 132.819 213.111C132.403 212.868 131.935 212.747 131.415 212.747C130.895 212.747 130.427 212.868 130.011 213.111C129.604 213.345 129.279 213.679 129.036 214.112C128.802 214.537 128.685 215.035 128.685 215.607C128.685 216.17 128.802 216.669 129.036 217.102C129.279 217.535 129.604 217.873 130.011 218.116C130.427 218.35 130.895 218.467 131.415 218.467ZM139.472 219.052C138.822 219.052 138.242 218.905 137.73 218.61C137.228 218.315 136.825 217.908 136.521 217.388C136.227 216.868 136.079 216.274 136.079 215.607C136.079 214.931 136.227 214.337 136.521 213.826C136.825 213.306 137.228 212.899 137.73 212.604C138.242 212.309 138.822 212.162 139.472 212.162C140.122 212.162 140.703 212.309 141.214 212.604C141.726 212.899 142.129 213.306 142.423 213.826C142.718 214.337 142.865 214.931 142.865 215.607C142.865 216.274 142.718 216.868 142.423 217.388C142.129 217.908 141.726 218.315 141.214 218.61C140.703 218.905 140.122 219.052 139.472 219.052ZM139.472 218.467C139.992 218.467 140.46 218.35 140.876 218.116C141.292 217.873 141.617 217.535 141.851 217.102C142.085 216.669 142.202 216.17 142.202 215.607C142.202 215.035 142.085 214.537 141.851 214.112C141.617 213.679 141.292 213.345 140.876 213.111C140.46 212.868 139.992 212.747 139.472 212.747C138.952 212.747 138.484 212.868 138.068 213.111C137.661 213.345 137.336 213.679 137.093 214.112C136.859 214.537 136.742 215.035 136.742 215.607C136.742 216.17 136.859 216.669 137.093 217.102C137.336 217.535 137.661 217.873 138.068 218.116C138.484 218.35 138.952 218.467 139.472 218.467ZM144.882 219V212.214H145.506V214.073L145.441 213.865C145.632 213.319 145.952 212.899 146.403 212.604C146.854 212.309 147.417 212.162 148.093 212.162V212.799C148.067 212.799 148.041 212.799 148.015 212.799C147.989 212.79 147.963 212.786 147.937 212.786C147.183 212.786 146.594 213.024 146.169 213.501C145.744 213.969 145.532 214.623 145.532 215.464V219H144.882ZM156.028 219.052C155.369 219.052 154.78 218.905 154.26 218.61C153.749 218.315 153.341 217.908 153.038 217.388C152.743 216.868 152.596 216.274 152.596 215.607C152.596 214.931 152.743 214.333 153.038 213.813C153.341 213.293 153.749 212.89 154.26 212.604C154.78 212.309 155.369 212.162 156.028 212.162C156.574 212.162 157.068 212.266 157.51 212.474C157.961 212.682 158.325 212.994 158.602 213.41L158.121 213.761C157.878 213.414 157.575 213.159 157.211 212.994C156.847 212.829 156.453 212.747 156.028 212.747C155.499 212.747 155.023 212.868 154.598 213.111C154.182 213.345 153.853 213.679 153.61 214.112C153.376 214.537 153.259 215.035 153.259 215.607C153.259 216.179 153.376 216.682 153.61 217.115C153.853 217.54 154.182 217.873 154.598 218.116C155.023 218.35 155.499 218.467 156.028 218.467C156.453 218.467 156.847 218.385 157.211 218.22C157.575 218.055 157.878 217.8 158.121 217.453L158.602 217.804C158.325 218.22 157.961 218.532 157.51 218.74C157.068 218.948 156.574 219.052 156.028 219.052ZM163.086 219.052C162.436 219.052 161.855 218.905 161.344 218.61C160.841 218.315 160.438 217.908 160.135 217.388C159.84 216.868 159.693 216.274 159.693 215.607C159.693 214.931 159.84 214.337 160.135 213.826C160.438 213.306 160.841 212.899 161.344 212.604C161.855 212.309 162.436 212.162 163.086 212.162C163.736 212.162 164.316 212.309 164.828 212.604C165.339 212.899 165.742 213.306 166.037 213.826C166.331 214.337 166.479 214.931 166.479 215.607C166.479 216.274 166.331 216.868 166.037 217.388C165.742 217.908 165.339 218.315 164.828 218.61C164.316 218.905 163.736 219.052 163.086 219.052ZM163.086 218.467C163.606 218.467 164.074 218.35 164.49 218.116C164.906 217.873 165.231 217.535 165.465 217.102C165.699 216.669 165.816 216.17 165.816 215.607C165.816 215.035 165.699 214.537 165.465 214.112C165.231 213.679 164.906 213.345 164.49 213.111C164.074 212.868 163.606 212.747 163.086 212.747C162.566 212.747 162.098 212.868 161.682 213.111C161.274 213.345 160.949 213.679 160.707 214.112C160.473 214.537 160.356 215.035 160.356 215.607C160.356 216.17 160.473 216.669 160.707 217.102C160.949 217.535 161.274 217.873 161.682 218.116C162.098 218.35 162.566 218.467 163.086 218.467ZM171.81 212.162C172.365 212.162 172.846 212.27 173.253 212.487C173.669 212.695 173.99 213.016 174.215 213.449C174.449 213.874 174.566 214.402 174.566 215.035V219H173.916V215.087C173.916 214.324 173.721 213.744 173.331 213.345C172.95 212.946 172.413 212.747 171.719 212.747C171.191 212.747 170.731 212.855 170.341 213.072C169.951 213.289 169.652 213.592 169.444 213.982C169.245 214.372 169.145 214.84 169.145 215.386V219H168.495V212.214H169.119V214.099L169.028 213.891C169.236 213.354 169.579 212.933 170.055 212.63C170.532 212.318 171.117 212.162 171.81 212.162ZM179.218 219.052C178.62 219.052 178.161 218.887 177.84 218.558C177.528 218.229 177.372 217.778 177.372 217.206V210.732H178.022V217.141C178.022 217.574 178.131 217.908 178.347 218.142C178.564 218.376 178.876 218.493 179.283 218.493C179.708 218.493 180.059 218.367 180.336 218.116L180.609 218.571C180.436 218.736 180.224 218.857 179.972 218.935C179.73 219.013 179.478 219.052 179.218 219.052ZM176.124 212.773V212.214H180.18V212.773H176.124ZM182.422 219V212.214H183.046V214.073L182.981 213.865C183.172 213.319 183.492 212.899 183.943 212.604C184.394 212.309 184.957 212.162 185.633 212.162V212.799C185.607 212.799 185.581 212.799 185.555 212.799C185.529 212.79 185.503 212.786 185.477 212.786C184.723 212.786 184.134 213.024 183.709 213.501C183.284 213.969 183.072 214.623 183.072 215.464V219H182.422ZM187.424 219V212.214H188.074V219H187.424ZM187.749 210.563C187.602 210.563 187.476 210.511 187.372 210.407C187.268 210.303 187.216 210.182 187.216 210.043C187.216 209.896 187.268 209.77 187.372 209.666C187.476 209.562 187.602 209.51 187.749 209.51C187.905 209.51 188.031 209.562 188.126 209.666C188.23 209.761 188.282 209.883 188.282 210.03C188.282 210.177 188.23 210.303 188.126 210.407C188.031 210.511 187.905 210.563 187.749 210.563ZM194.22 219.052C193.622 219.052 193.08 218.913 192.595 218.636C192.118 218.359 191.737 217.96 191.451 217.44C191.173 216.92 191.035 216.309 191.035 215.607C191.035 214.888 191.173 214.272 191.451 213.761C191.737 213.25 192.118 212.855 192.595 212.578C193.08 212.301 193.622 212.162 194.22 212.162C194.861 212.162 195.433 212.309 195.936 212.604C196.447 212.89 196.846 213.293 197.132 213.813C197.426 214.324 197.574 214.922 197.574 215.607C197.574 216.283 197.426 216.881 197.132 217.401C196.846 217.921 196.447 218.328 195.936 218.623C195.433 218.909 194.861 219.052 194.22 219.052ZM190.814 219V209.354H191.464V214.411L191.334 215.594L191.438 216.777V219H190.814ZM194.181 218.467C194.701 218.467 195.169 218.35 195.585 218.116C196.001 217.873 196.326 217.535 196.56 217.102C196.802 216.669 196.924 216.17 196.924 215.607C196.924 215.035 196.802 214.537 196.56 214.112C196.326 213.679 196.001 213.345 195.585 213.111C195.169 212.868 194.701 212.747 194.181 212.747C193.661 212.747 193.193 212.868 192.777 213.111C192.369 213.345 192.044 213.679 191.802 214.112C191.568 214.537 191.451 215.035 191.451 215.607C191.451 216.17 191.568 216.669 191.802 217.102C192.044 217.535 192.369 217.873 192.777 218.116C193.193 218.35 193.661 218.467 194.181 218.467ZM202.342 219.052C201.761 219.052 201.259 218.948 200.834 218.74C200.409 218.523 200.08 218.203 199.846 217.778C199.621 217.345 199.508 216.812 199.508 216.179V212.214H200.158V216.127C200.158 216.89 200.353 217.47 200.743 217.869C201.133 218.268 201.683 218.467 202.394 218.467C202.905 218.467 203.347 218.359 203.72 218.142C204.093 217.925 204.379 217.622 204.578 217.232C204.777 216.833 204.877 216.365 204.877 215.828V212.214H205.527V219H204.903V217.115L204.994 217.336C204.795 217.865 204.461 218.285 203.993 218.597C203.534 218.9 202.983 219.052 202.342 219.052ZM208.282 219V212.214H208.932V219H208.282ZM208.607 210.563C208.46 210.563 208.334 210.511 208.23 210.407C208.126 210.303 208.074 210.182 208.074 210.043C208.074 209.896 208.126 209.77 208.23 209.666C208.334 209.562 208.46 209.51 208.607 209.51C208.763 209.51 208.889 209.562 208.984 209.666C209.088 209.761 209.14 209.883 209.14 210.03C209.14 210.177 209.088 210.303 208.984 210.407C208.889 210.511 208.763 210.563 208.607 210.563ZM211.672 219V212.214H212.296V214.073L212.231 213.865C212.422 213.319 212.742 212.899 213.193 212.604C213.644 212.309 214.207 212.162 214.883 212.162V212.799C214.857 212.799 214.831 212.799 214.805 212.799C214.779 212.79 214.753 212.786 214.727 212.786C213.973 212.786 213.384 213.024 212.959 213.501C212.534 213.969 212.322 214.623 212.322 215.464V219H211.672Z" fill="black"/>
<path d="M124.95 251.31H128.56V252.17H124.95V251.31ZM125.05 255H124.05V248H128.99V248.87H125.05V255ZM131.308 251.02H134.908V251.87H131.308V251.02ZM131.398 254.13H135.478V255H130.398V248H135.338V248.87H131.398V254.13ZM137.097 255V248H138.097V255H137.097ZM141.583 255V248.87H139.183V248H144.973V248.87H142.573V255H141.583ZM149.124 255.08C148.591 255.08 148.094 254.99 147.634 254.81C147.181 254.63 146.787 254.38 146.454 254.06C146.121 253.733 145.861 253.353 145.674 252.92C145.487 252.487 145.394 252.013 145.394 251.5C145.394 250.987 145.487 250.513 145.674 250.08C145.861 249.647 146.121 249.27 146.454 248.95C146.787 248.623 147.181 248.37 147.634 248.19C148.087 248.01 148.584 247.92 149.124 247.92C149.657 247.92 150.147 248.01 150.594 248.19C151.047 248.363 151.441 248.613 151.774 248.94C152.114 249.26 152.374 249.637 152.554 250.07C152.741 250.503 152.834 250.98 152.834 251.5C152.834 252.02 152.741 252.497 152.554 252.93C152.374 253.363 152.114 253.743 151.774 254.07C151.441 254.39 151.047 254.64 150.594 254.82C150.147 254.993 149.657 255.08 149.124 255.08ZM149.124 254.19C149.511 254.19 149.867 254.123 150.194 253.99C150.527 253.857 150.814 253.67 151.054 253.43C151.301 253.183 151.491 252.897 151.624 252.57C151.764 252.243 151.834 251.887 151.834 251.5C151.834 251.113 151.764 250.757 151.624 250.43C151.491 250.103 151.301 249.82 151.054 249.58C150.814 249.333 150.527 249.143 150.194 249.01C149.867 248.877 149.511 248.81 149.124 248.81C148.731 248.81 148.367 248.877 148.034 249.01C147.707 249.143 147.421 249.333 147.174 249.58C146.927 249.82 146.734 250.103 146.594 250.43C146.461 250.757 146.394 251.113 146.394 251.5C146.394 251.887 146.461 252.243 146.594 252.57C146.734 252.897 146.927 253.183 147.174 253.43C147.421 253.67 147.707 253.857 148.034 253.99C148.367 254.123 148.731 254.19 149.124 254.19Z" fill="white"/>
</svg>
